<svg width="24" height="24" viewBox="0 0 24 24" fill="none" xmlns="http://www.w3.org/2000/svg">
<path fill-rule="evenodd" clip-rule="evenodd" d="M8.1237 9.08333C8.1237 8.07081 8.94451 7.25 9.95703 7.25C10.9696 7.25 11.7904 8.07081 11.7904 9.08333C11.7904 10.0959 10.9696 10.9167 9.95703 10.9167C8.94451 10.9167 8.1237 10.0959 8.1237 9.08333ZM9.95703 6.25C8.39222 6.25 7.1237 7.51853 7.1237 9.08333C7.1237 10.6481 8.39222 11.9167 9.95703 11.9167C11.5218 11.9167 12.7904 10.6481 12.7904 9.08333C12.7904 7.51853 11.5218 6.25 9.95703 6.25ZM7.91536 13.25C7.16392 13.25 6.44325 13.5485 5.9119 14.0799C5.38054 14.6112 5.08203 15.3319 5.08203 16.0833V17.25C5.08203 17.5261 5.30589 17.75 5.58203 17.75C5.85817 17.75 6.08203 17.5261 6.08203 17.25V16.0833C6.08203 15.5971 6.27519 15.1308 6.619 14.787C6.96282 14.4432 7.42913 14.25 7.91536 14.25H11.9987C12.4849 14.25 12.9512 14.4432 13.2951 14.787C13.6389 15.1308 13.832 15.5971 13.832 16.0833V17.25C13.832 17.5261 14.0559 17.75 14.332 17.75C14.6082 17.75 14.832 17.5261 14.832 17.25V16.0833C14.832 15.3319 14.5335 14.6112 14.0022 14.0799C13.4708 13.5485 12.7501 13.25 11.9987 13.25H7.91536ZM16.6654 9.16666C16.9415 9.16666 17.1654 9.39051 17.1654 9.66666V10.9167H18.4154C18.6915 10.9167 18.9154 11.1405 18.9154 11.4167C18.9154 11.6928 18.6915 11.9167 18.4154 11.9167H17.1654V13.1667C17.1654 13.4428 16.9415 13.6667 16.6654 13.6667C16.3892 13.6667 16.1654 13.4428 16.1654 13.1667V11.9167H14.9154C14.6392 11.9167 14.4154 11.6928 14.4154 11.4167C14.4154 11.1405 14.6392 10.9167 14.9154 10.9167H16.1654V9.66666C16.1654 9.39051 16.3892 9.16666 16.6654 9.16666Z" fill="#007AFF"/>
</svg>
