<svg width="148" height="52" viewBox="0 0 148 52" fill="none" xmlns="http://www.w3.org/2000/svg">
<path d="M34.0292 13C34.0292 13 11.9681 11.9408 11.8832 33.5833M11.8832 33.5833H34.0292M11.8832 33.5833C11.8832 33.5833 3.15551 37.4476 3.24042 48.7502H34.0292M35.1095 9.75H37.2701L40.5109 3.25H31.8686L32.9489 5.41667" stroke="#D3D8DE" stroke-width="3" stroke-linecap="round" stroke-linejoin="round"/>
<path d="M38.3503 48.7499H69.1387C69.1387 36.8332 60.4963 33.5832 60.4963 33.5832M60.4963 33.5832L38.3503 33.5832M60.4963 33.5832C59.4012 11.9166 38.3503 13 38.3503 13" stroke="#091C31" stroke-width="3" stroke-linecap="round" stroke-linejoin="round"/>
<path d="M95.0657 48.75H77.781V33.5833M77.781 33.5833V13H90.7445M77.781 33.5833H90.7445" stroke="#091C31" stroke-width="3" stroke-linecap="round" stroke-linejoin="round"/>
<path d="M119.912 48.75H106.409V13L103.708 17.3333" stroke="#091C31" stroke-width="3" stroke-linecap="round" stroke-linejoin="round"/>
<path d="M144.759 48.75H131.255V13L128.555 17.3333" stroke="#091C31" stroke-width="3" stroke-linecap="round" stroke-linejoin="round"/>
</svg>
