<svg width="80" height="80" viewBox="0 0 80 80" fill="none" xmlns="http://www.w3.org/2000/svg">
<path d="M30.0013 23.3333H50.0013H30.0013ZM50.0013 56.6667V46.6667V56.6667ZM40.0013 56.6667H40.0346H40.0013ZM30.0013 56.6667H30.0346H30.0013ZM30.0013 46.6667H30.0346H30.0013ZM40.0013 46.6667H40.0346H40.0013ZM50.0013 36.6667H50.0346H50.0013ZM40.0013 36.6667H40.0346H40.0013ZM30.0013 36.6667H30.0346H30.0013ZM23.3346 70H56.668C58.4361 70 60.1318 69.2976 61.382 68.0474C62.6323 66.7971 63.3346 65.1014 63.3346 63.3333V16.6667C63.3346 14.8986 62.6323 13.2029 61.382 11.9526C60.1318 10.7024 58.4361 10 56.668 10H23.3346C21.5665 10 19.8708 10.7024 18.6206 11.9526C17.3703 13.2029 16.668 14.8986 16.668 16.6667V63.3333C16.668 65.1014 17.3703 66.7971 18.6206 68.0474C19.8708 69.2976 21.5665 70 23.3346 70Z" stroke="#A7B1BD" stroke-width="6" stroke-linecap="round" stroke-linejoin="round"/>
</svg>
