<svg width="25" height="24" viewBox="0 0 25 24" fill="none" xmlns="http://www.w3.org/2000/svg">
<path d="M7.52222 6C7.22344 6 6.94282 6.04441 6.74069 6.23306C6.53965 6.4207 6.5 6.66803 6.5 6.91852V17.0815C6.5 17.332 6.53965 17.5793 6.74069 17.7669C6.94282 17.9556 7.22344 18 7.52222 18H10.6333C10.8911 18 11.1 18.2756 11.1 18.5333C11.1 18.7911 10.8911 19 10.6333 19H7.52222C6.99589 19 6.48518 18.8052 6.10386 18.4493C5.72146 18.0923 5.5 17.6011 5.5 17.0815V6.91852C5.5 6.3989 5.72146 5.90766 6.10386 5.55075C6.48518 5.19485 6.99589 5 7.52222 5H10.6333C10.8911 5 11.1 5.20893 11.1 5.46667C11.1 5.7244 10.8911 6 10.6333 6H7.52222Z" fill="#FF003A"/>
<path d="M14.97 7.93668C15.1523 7.75444 15.4477 7.75444 15.63 7.93668L19.3633 11.67C19.4081 11.7148 19.4418 11.7663 19.4646 11.8214C19.4871 11.8756 19.4996 11.9349 19.5 11.9972L19.5 12L19.5 12.0028C19.4996 12.0651 19.4871 12.1244 19.4646 12.1786C19.4418 12.2337 19.4081 12.2852 19.3633 12.33L15.63 16.0633C15.4477 16.2456 15.1523 16.2456 14.97 16.0633C14.7878 15.8811 14.7878 15.5856 14.97 15.4034L17.9067 12.4667H10.6333C10.3756 12.4667 10.1667 12.2577 10.1667 12C10.1667 11.7423 10.3756 11.5333 10.6333 11.5333H17.9067L14.97 8.59665C14.7878 8.41441 14.7878 8.11893 14.97 7.93668Z" fill="#FF003A"/>
</svg>
