<svg width="24" height="24" viewBox="0 0 24 24" fill="none" xmlns="http://www.w3.org/2000/svg">
<path d="M5.61605 15.2411L12.0875 8.76961L15.2304 11.9125L8.75895 18.3839C8.70096 18.4419 8.66285 18.4655 8.63599 18.4775C8.61131 18.4884 8.57291 18.5 8.5 18.5H5.875C5.72612 18.5 5.64091 18.4526 5.59418 18.4058C5.54744 18.3591 5.5 18.2739 5.5 18.125V15.5C5.5 15.4271 5.51156 15.3887 5.52253 15.364C5.53447 15.3372 5.55807 15.299 5.61605 15.2411ZM18.3839 8.24105C18.5387 8.39579 18.5387 8.60421 18.3839 8.75895L17.1625 9.98039L14.0196 6.8375L15.2411 5.61605C15.3958 5.46132 15.6042 5.46132 15.7589 5.61605L18.3839 8.24105Z" stroke="#A7B1BD"/>
</svg>
