<svg width="25" height="24" viewBox="0 0 25 24" fill="none" xmlns="http://www.w3.org/2000/svg">
<path d="M6.5 16.9778C6.5 17.2766 6.54441 17.5572 6.73306 17.7593C6.9207 17.9603 7.16803 18 7.41852 18H17.5815C17.832 18 18.0793 17.9603 18.2669 17.7593C18.4556 17.5572 18.5 17.2766 18.5 16.9778V13.8667C18.5 13.6089 18.7756 13.4 19.0333 13.4C19.2911 13.4 19.5 13.6089 19.5 13.8667V16.9778C19.5 17.5041 19.3052 18.0148 18.9493 18.3961C18.5923 18.7785 18.1011 19 17.5815 19H7.41852C6.8989 19 6.40766 18.7785 6.05075 18.3961C5.69485 18.0148 5.5 17.5041 5.5 16.9778V13.8667C5.5 13.6089 5.70893 13.4 5.96667 13.4C6.2244 13.4 6.5 13.6089 6.5 13.8667V16.9778Z" fill="#007AFF"/>
<path d="M8.43668 9.52998C8.25444 9.34774 8.25444 9.05226 8.43668 8.87002L12.17 5.13668C12.2148 5.09194 12.2663 5.05818 12.3214 5.03541C12.3756 5.01293 12.4349 5.00037 12.4972 5.00001L12.5 5L12.5028 5.00001C12.5651 5.00037 12.6244 5.01293 12.6786 5.03541C12.7337 5.05818 12.7852 5.09194 12.83 5.13668L16.5633 8.87002C16.7456 9.05226 16.7456 9.34774 16.5633 9.52998C16.3811 9.71223 16.0856 9.71223 15.9034 9.52998L12.9667 6.5933V13.8667C12.9667 14.1244 12.7577 14.3333 12.5 14.3333C12.2423 14.3333 12.0333 14.1244 12.0333 13.8667V6.5933L9.09665 9.52998C8.91441 9.71223 8.61893 9.71223 8.43668 9.52998Z" fill="#007AFF"/>
</svg>
