<svg width="60" height="60" viewBox="0 0 60 60" fill="none" xmlns="http://www.w3.org/2000/svg">
<path fill-rule="evenodd" clip-rule="evenodd" d="M52.55 12.5H47.5V7.45C47.5 6.1 46.4 5 45.05 5H44.975C43.6 5 42.5 6.1 42.5 7.45V12.5H37.475C36.125 12.5 35.025 13.6 35 14.95V15.025C35 16.4 36.1 17.5 37.475 17.5H42.5V22.525C42.5 23.875 43.6 25 44.975 24.975H45.05C46.4 24.975 47.5 23.875 47.5 22.525V17.5H52.55C53.9 17.5 55 16.4 55 15.05V14.95C55 13.6 53.9 12.5 52.55 12.5ZM40 22.525V20H37.475C36.15 20 34.9 19.475 33.95 18.55C33.025 17.6 32.5 16.35 32.5 14.95C32.5 14.05 32.75 13.225 33.175 12.5H12.5C9.75 12.5 7.5 14.75 7.5 17.5V47.5C7.5 50.25 9.75 52.5 12.5 52.5H42.5C45.25 52.5 47.5 50.25 47.5 47.5V26.8C46.75 27.225 45.9 27.5 44.95 27.5C42.225 27.475 40 25.25 40 22.525ZM39.9 47.5H15C13.975 47.5 13.375 46.325 14 45.5L18.95 38.925C19.475 38.225 20.5 38.275 21 38.975L25 45L31.525 36.3C32.025 35.65 33 35.625 33.5 36.275L40.875 45.475C41.525 46.3 40.95 47.5 39.9 47.5Z" fill="#919EAC"/>
</svg>
