<svg width="80" height="80" viewBox="0 0 80 80" fill="none" xmlns="http://www.w3.org/2000/svg">
<path d="M53.3333 53.3333V56.6667C53.3333 59.3188 52.2798 61.8624 50.4044 63.7377C48.529 65.6131 45.9855 66.6667 43.3333 66.6667H20C17.3478 66.6667 14.8043 65.6131 12.9289 63.7377C11.0536 61.8624 10 59.3188 10 56.6667V23.3333C10 20.6812 11.0536 18.1376 12.9289 16.2623C14.8043 14.3869 17.3478 13.3333 20 13.3333H43.3333C45.9855 13.3333 48.529 14.3869 50.4044 16.2623C52.2798 18.1376 53.3333 20.6812 53.3333 23.3333V26.6667M36.6667 53.3333L23.3333 40L36.6667 53.3333ZM23.3333 40L36.6667 26.6667L23.3333 40ZM23.3333 40H70H23.3333Z" stroke="#00C48C" stroke-width="6" stroke-linecap="round" stroke-linejoin="round"/>
</svg>
