<svg width="24" height="24" viewBox="0 0 24 24" fill="none" xmlns="http://www.w3.org/2000/svg">
<path fill-rule="evenodd" clip-rule="evenodd" d="M11.674 5.27185C11.673 5.27281 11.6732 5.27266 11.674 5.27185L11.6682 5.27769C10.3709 6.55375 9.95141 7.92702 9.84567 8.97943C9.79228 9.51085 9.81928 9.962 9.85849 10.2751C9.87803 10.4311 9.90037 10.5511 9.91653 10.6274C9.9246 10.6655 9.93108 10.6926 9.93484 10.7076L9.93824 10.7208C10.035 11.067 9.93855 11.4387 9.68524 11.6942L4 17.4274V19.9999H5.98344V19.0078C5.98344 18.4555 6.43116 18.0078 6.98344 18.0078H7.97516V17.0156C7.97516 16.4633 8.42288 16.0156 8.97516 16.0156H10.5454L12.2429 14.2759C12.4983 14.0142 12.8761 13.9128 13.228 14.0113M13.228 14.0113L13.2414 14.0147C13.2566 14.0185 13.2838 14.0251 13.322 14.0332C13.3987 14.0495 13.5192 14.072 13.6759 14.092C13.9905 14.1319 14.4443 14.1603 14.9802 14.1094C16.0346 14.0091 17.4103 13.6032 18.7019 12.3466L18.7041 12.344C18.7215 12.3232 18.7498 12.2888 18.7864 12.2416C18.8598 12.147 18.9657 12.0026 19.085 11.8157C19.3255 11.439 19.6091 10.9067 19.7962 10.2757C20.1579 9.05554 20.1786 7.4357 18.679 5.72145C17.1877 4.0166 15.5789 3.83523 14.2558 4.09559C13.5703 4.23048 12.9538 4.48888 12.4779 4.74542C12.2414 4.87289 12.0462 4.99644 11.9014 5.09753C11.8291 5.14805 11.7719 5.19118 11.7303 5.22448C11.6955 5.25239 11.6779 5.2683 11.674 5.27185M19.4317 13.0316C20.1762 13.6992 20.1769 13.6984 20.1769 13.6984L20.1777 13.6976L20.1795 13.6955L20.184 13.6904L20.1969 13.6756C20.2071 13.6639 20.2205 13.6482 20.2368 13.6288C20.2694 13.59 20.3135 13.5359 20.3665 13.4676C20.4723 13.3313 20.6145 13.1368 20.7709 12.8917C21.0817 12.4047 21.4597 11.7011 21.7137 10.8442C22.2342 9.08857 22.2134 6.72415 20.1844 4.40463C18.1471 2.07569 15.7724 1.75882 13.8697 2.13322C12.9423 2.31571 12.1354 2.65793 11.5288 2.98495C10.945 3.29967 10.4839 3.63481 10.2632 3.8542C8.57473 5.51634 7.99885 7.35463 7.85569 8.77949C7.7846 9.48704 7.81984 10.0912 7.87399 10.5236C7.88001 10.5716 7.88626 10.6176 7.89265 10.6615L2.28993 16.3115C2.10421 16.4988 2 16.7519 2 17.0156V20.9999C2 21.5522 2.44772 21.9999 3 21.9999H6.98344C7.53573 21.9999 7.98344 21.5522 7.98344 20.9999V20.0078H8.97516C9.52745 20.0078 9.97517 19.56 9.97517 19.0078V18.0156H10.9669C11.2364 18.0156 11.4944 17.9069 11.6826 17.714L13.2976 16.0588C13.3379 16.0647 13.3801 16.0704 13.4239 16.076C13.8562 16.1309 14.4605 16.1678 15.1695 16.1004C16.5969 15.9647 18.4452 15.4045 20.1329 13.7445C20.1478 13.7298 20.1622 13.7147 20.1762 13.6992L19.4317 13.0316ZM15.0748 5.93042C15.6957 5.93042 16.4536 6.14807 17.1513 6.84592C17.849 7.54376 18.0665 8.30172 18.0665 8.92254C18.0665 9.2195 18.0172 9.46859 17.9658 9.64855C17.94 9.73911 17.913 9.81422 17.89 9.87166C17.8785 9.90046 17.8679 9.92505 17.8588 9.94517C17.8543 9.95524 17.8501 9.96421 17.8463 9.97206L17.8411 9.98299L17.8387 9.98782L17.8376 9.99007L17.837 9.99116C17.837 9.99116 17.8365 9.99222 16.9421 9.54508L17.3893 9.76865L17.8365 9.99222C17.6928 10.2798 17.4195 10.4807 17.1022 10.5322C16.7849 10.5837 16.4622 10.4795 16.2349 10.2521L13.7452 7.76196C13.518 7.53466 13.4138 7.21199 13.4653 6.89473C13.5168 6.57747 13.7176 6.3043 14.0051 6.16053L14.4524 7.05492C14.0051 6.16053 14.0062 6.16 14.0062 6.16L14.0073 6.15946L14.0095 6.15834L14.0144 6.15597L14.0253 6.1507C14.0331 6.14696 14.0421 6.14278 14.0522 6.13823C14.0723 6.12915 14.0969 6.11854 14.1257 6.10702C14.1831 6.08404 14.2582 6.05704 14.3488 6.03116C14.5287 5.97973 14.7779 5.93042 15.0748 5.93042Z" fill="#007AFF"/>
</svg>
