<svg width="74" height="18" viewBox="0 0 74 18" fill="none" xmlns="http://www.w3.org/2000/svg">
<path d="M8.75818 17.7019C5.8923 17.7019 3.73163 16.9099 2.27619 15.3259C0.820743 13.7419 0.0930176 11.5901 0.0930176 8.87036C0.0930176 7.1967 0.415615 5.69489 1.06081 4.36493C1.70601 3.02002 2.67381 1.95904 3.9642 1.18198C5.26961 0.404928 6.8676 0.0163994 8.75818 0.0163994C9.55342 0.0163994 10.2586 0.0836447 10.8738 0.218135C11.504 0.337682 12.1792 0.54689 12.8994 0.845758V3.60281C11.6691 2.99014 10.3112 2.6838 8.8257 2.6838C7.70035 2.6838 6.71755 2.95278 5.87729 3.49074C5.03703 4.01376 4.38433 4.74598 3.91919 5.68742C3.46905 6.61391 3.24398 7.66742 3.24398 8.84795C3.25899 10.7308 3.74664 12.2326 4.70693 13.3534C5.66723 14.4741 7.01764 15.0345 8.75818 15.0345C9.52341 15.0345 10.2661 14.9299 10.9864 14.7207C11.7216 14.4965 12.4943 14.1753 13.3046 13.7569L14.2499 16.3346C13.3796 16.7829 12.4643 17.1191 11.504 17.3433C10.5437 17.5824 9.62844 17.7019 8.75818 17.7019ZM26.9429 14.6086V17.3209H17.1299V0.330211H20.2583V14.6086H26.9429ZM40.8823 14.7655V17.3209H29.9439V0.330211H40.7697V2.88553H33.0723V7.50304H39.6444V10.0584H33.0723V14.7655H40.8823ZM50.0576 10.6636H47.4468V17.3209H44.3183V0.330211H50.7778C54.799 0.330211 56.8097 2.05617 56.8097 5.5081C56.8097 6.79323 56.5096 7.84674 55.9094 8.66863C55.3092 9.49051 54.4164 10.0584 53.2311 10.3722L57.5524 17.3209H54.0638L50.0576 10.6636ZM47.4468 7.99617H50.7778C52.6834 7.99617 53.6362 7.1444 53.6362 5.44085C53.6362 4.58908 53.3961 3.96893 52.916 3.5804C52.4508 3.19187 51.7381 2.99761 50.7778 2.99761H47.4468V7.99617ZM64.7014 10.4618L63.7336 11.5153V17.3209H60.6051V0.330211H63.7336V7.16681L69.9905 0.330211H73.8842L66.727 8.19791L73.9967 17.3209H70.058L64.7014 10.4618Z" fill="#091C31"/>
</svg>
