<svg width="80" height="80" viewBox="0 0 80 80" fill="none" xmlns="http://www.w3.org/2000/svg">
<path d="M26.6668 36.6667V23.3333C26.6668 19.7971 28.0716 16.4057 30.5721 13.9052C33.0726 11.4048 36.4639 10 40.0002 10C43.5364 10 46.9278 11.4048 49.4283 13.9052C51.9287 16.4057 53.3335 19.7971 53.3335 23.3333M40.0002 50V56.6667M20.0002 70H60.0002C61.7683 70 63.464 69.2976 64.7142 68.0474C65.9644 66.7971 66.6668 65.1014 66.6668 63.3333V43.3333C66.6668 41.5652 65.9644 39.8695 64.7142 38.6193C63.464 37.369 61.7683 36.6667 60.0002 36.6667H20.0002C18.2321 36.6667 16.5364 37.369 15.2861 38.6193C14.0359 39.8695 13.3335 41.5652 13.3335 43.3333V63.3333C13.3335 65.1014 14.0359 66.7971 15.2861 68.0474C16.5364 69.2976 18.2321 70 20.0002 70Z" stroke="#FFD600" stroke-width="6" stroke-linecap="round" stroke-linejoin="round"/>
</svg>
