<svg width="80" height="80" viewBox="0 0 80 80" fill="none" xmlns="http://www.w3.org/2000/svg">
<path d="M43.3333 53.3333V56.6667C43.3333 59.3188 42.2798 61.8624 40.4044 63.7377C38.529 65.6131 35.9855 66.6667 33.3333 66.6667H20C17.3478 66.6667 14.8043 65.6131 12.9289 63.7377C11.0536 61.8624 10 59.3188 10 56.6667V23.3333C10 20.6812 11.0536 18.1376 12.9289 16.2623C14.8043 14.3869 17.3478 13.3333 20 13.3333H33.3333C35.9855 13.3333 38.529 14.3869 40.4044 16.2623C42.2798 18.1376 43.3333 20.6812 43.3333 23.3333V26.6667M56.6667 53.3333L70 40L56.6667 53.3333ZM70 40L56.6667 26.6667L70 40ZM70 40H23.3333H70Z" stroke="#A7B1BD" stroke-width="6" stroke-linecap="round" stroke-linejoin="round"/>
</svg>
