<svg width="80" height="80" viewBox="0 0 80 80" fill="none" xmlns="http://www.w3.org/2000/svg">
<path d="M52 63V58C52 55.3478 50.9464 52.8043 49.0711 50.9289C47.1957 49.0536 44.6522 48 42 48H22C19.3478 48 16.8043 49.0536 14.9289 50.9289C13.0536 52.8043 12 55.3478 12 58V63" stroke="#007AFF" stroke-width="6" stroke-linecap="round" stroke-linejoin="round"/>
<path d="M32 38C37.5228 38 42 33.5228 42 28C42 22.4772 37.5228 18 32 18C26.4772 18 22 22.4772 22 28C22 33.5228 26.4772 38 32 38Z" stroke="#007AFF" stroke-width="6" stroke-linecap="round" stroke-linejoin="round"/>
<path d="M67 62.9997V57.9997C66.9983 55.784 66.2609 53.6316 64.9034 51.8805C63.5459 50.1294 61.6453 48.8786 59.5 48.3247" stroke="#007AFF" stroke-width="6" stroke-linecap="round" stroke-linejoin="round"/>
<path d="M49.5 18.3247C51.651 18.8755 53.5576 20.1265 54.9191 21.8805C56.2806 23.6345 57.0196 25.7918 57.0196 28.0122C57.0196 30.2326 56.2806 32.3899 54.9191 34.1439C53.5576 35.898 51.651 37.149 49.5 37.6997" stroke="#007AFF" stroke-width="6" stroke-linecap="round" stroke-linejoin="round"/>
</svg>
