<svg width="14" height="14" viewBox="0 0 14 14" fill="none" xmlns="http://www.w3.org/2000/svg">
<path fill-rule="evenodd" clip-rule="evenodd" d="M3.12516 4.08333C3.12516 3.07081 3.94597 2.25 4.95849 2.25C5.97102 2.25 6.79183 3.07081 6.79183 4.08333C6.79183 5.09586 5.97102 5.91667 4.95849 5.91667C3.94597 5.91667 3.12516 5.09586 3.12516 4.08333ZM4.95849 1.25C3.39369 1.25 2.12516 2.51853 2.12516 4.08333C2.12516 5.64814 3.39369 6.91667 4.95849 6.91667C6.5233 6.91667 7.79183 5.64814 7.79183 4.08333C7.79183 2.51853 6.5233 1.25 4.95849 1.25ZM2.91683 8.25C2.16538 8.25 1.44471 8.54851 0.91336 9.07986C0.382007 9.61122 0.0834961 10.3319 0.0834961 11.0833V12.25C0.0834961 12.5261 0.307354 12.75 0.583496 12.75C0.859638 12.75 1.0835 12.5261 1.0835 12.25V11.0833C1.0835 10.5971 1.27665 10.1308 1.62047 9.78697C1.96428 9.44315 2.4306 9.25 2.91683 9.25H7.00016C7.48639 9.25 7.95271 9.44315 8.29653 9.78697C8.64034 10.1308 8.8335 10.5971 8.8335 11.0833V12.25C8.8335 12.5261 9.05735 12.75 9.3335 12.75C9.60964 12.75 9.8335 12.5261 9.8335 12.25V11.0833C9.8335 10.3319 9.53499 9.61122 9.00363 9.07986C8.47228 8.54851 7.75161 8.25 7.00016 8.25H2.91683ZM11.6668 4.16666C11.943 4.16666 12.1668 4.39051 12.1668 4.66666V5.91666H13.4168C13.693 5.91666 13.9168 6.14051 13.9168 6.41666C13.9168 6.6928 13.693 6.91666 13.4168 6.91666H12.1668V8.16666C12.1668 8.4428 11.943 8.66666 11.6668 8.66666C11.3907 8.66666 11.1668 8.4428 11.1668 8.16666V6.91666H9.91683C9.64069 6.91666 9.41683 6.6928 9.41683 6.41666C9.41683 6.14051 9.64069 5.91666 9.91683 5.91666H11.1668V4.66666C11.1668 4.39051 11.3907 4.16666 11.6668 4.16666Z" fill="#007AFF"/>
</svg>
