<svg width="150" height="210" viewBox="0 0 150 210" fill="none" xmlns="http://www.w3.org/2000/svg">
<rect x="1.5" y="1.5" width="147" height="207" rx="6.5" fill="#FBFDFF" stroke="#091C31" stroke-width="3" stroke-linecap="round" stroke-linejoin="round"/>
<line x1="47.5" y1="37.5" x2="102.5" y2="37.5" stroke="#091C31" stroke-width="5" stroke-linecap="round"/>
<line x1="28.5" y1="56.5" x2="139.5" y2="56.5" stroke="#091C31" stroke-width="3" stroke-linecap="round"/>
<line x1="28.5" y1="86.5" x2="139.5" y2="86.5" stroke="#091C31" stroke-width="3" stroke-linecap="round"/>
<line x1="28.5" y1="116.5" x2="139.5" y2="116.5" stroke="#091C31" stroke-width="3" stroke-linecap="round"/>
<line x1="10.5" y1="56.5" x2="17.5" y2="56.5" stroke="#091C31" stroke-width="3" stroke-linecap="round"/>
<line x1="10.5" y1="86.5" x2="17.5" y2="86.5" stroke="#091C31" stroke-width="3" stroke-linecap="round"/>
<line x1="10.5" y1="116.5" x2="17.5" y2="116.5" stroke="#091C31" stroke-width="3" stroke-linecap="round"/>
<line x1="10.5" y1="66.5" x2="17.5" y2="66.5" stroke="#091C31" stroke-width="3" stroke-linecap="round"/>
<line x1="10.5" y1="96.5" x2="17.5" y2="96.5" stroke="#091C31" stroke-width="3" stroke-linecap="round"/>
<line x1="10.5" y1="126.5" x2="17.5" y2="126.5" stroke="#091C31" stroke-width="3" stroke-linecap="round"/>
<line x1="10.5" y1="76.5" x2="17.5" y2="76.5" stroke="#091C31" stroke-width="3" stroke-linecap="round"/>
<line x1="10.5" y1="106.5" x2="17.5" y2="106.5" stroke="#091C31" stroke-width="3" stroke-linecap="round"/>
<line x1="10.5" y1="136.5" x2="17.5" y2="136.5" stroke="#091C31" stroke-width="3" stroke-linecap="round"/>
<line x1="28.5" y1="66.5" x2="139.5" y2="66.5" stroke="#091C31" stroke-width="3" stroke-linecap="round"/>
<line x1="28.5" y1="96.5" x2="139.5" y2="96.5" stroke="#091C31" stroke-width="3" stroke-linecap="round"/>
<line x1="28.5" y1="126.5" x2="139.5" y2="126.5" stroke="#091C31" stroke-width="3" stroke-linecap="round"/>
<line x1="28.5" y1="76.5" x2="139.5" y2="76.5" stroke="#091C31" stroke-width="3" stroke-linecap="round"/>
<line x1="28.5" y1="106.5" x2="139.5" y2="106.5" stroke="#091C31" stroke-width="3" stroke-linecap="round"/>
<line x1="28.5" y1="136.5" x2="139.5" y2="136.5" stroke="#091C31" stroke-width="3" stroke-linecap="round"/>
<line x1="10.5" y1="167.5" x2="50.5" y2="167.5" stroke="#091C31" stroke-width="3" stroke-linecap="round"/>
<line x1="10.5" y1="187.5" x2="50.5" y2="187.5" stroke="#091C31" stroke-width="3" stroke-linecap="round"/>
<path d="M45.2417 23H43.1001V11.022H45.2417V23ZM49.417 23H47.3501V11.022H49.2095L55.1528 19.4141H55.2275V11.022H57.2861V23H55.4434L49.4917 14.5996H49.417V23ZM65.1968 23H62.7397L58.5728 11.022H60.9302L63.9683 20.7007H64.0181L67.0562 11.022H69.3638L65.1968 23ZM75.8052 10.8228C77.5483 10.8228 78.929 11.3789 79.9473 12.4912C80.971 13.6035 81.4829 15.1115 81.4829 17.0151C81.4829 18.9188 80.971 20.4268 79.9473 21.5391C78.929 22.6458 77.5483 23.1992 75.8052 23.1992C74.0565 23.1992 72.6702 22.6458 71.6465 21.5391C70.6283 20.4268 70.1191 18.9188 70.1191 17.0151C70.1191 15.1115 70.6283 13.6035 71.6465 12.4912C72.6702 11.3789 74.0565 10.8228 75.8052 10.8228ZM78.3535 13.8359C77.7227 13.0446 76.8732 12.6489 75.8052 12.6489C74.7371 12.6489 73.8877 13.0418 73.2568 13.8276C72.626 14.6134 72.3105 15.6759 72.3105 17.0151C72.3105 18.3488 72.626 19.4085 73.2568 20.1943C73.8877 20.9801 74.7371 21.373 75.8052 21.373C76.8732 21.373 77.7227 20.9801 78.3535 20.1943C78.9844 19.4085 79.2998 18.3488 79.2998 17.0151C79.2998 15.6815 78.9844 14.6217 78.3535 13.8359ZM85.3345 23H83.1929V11.022H85.3345V23ZM92.606 23.1992C90.8905 23.1992 89.5319 22.6458 88.5303 21.5391C87.5342 20.4323 87.0361 18.9215 87.0361 17.0068C87.0361 15.1032 87.5369 13.598 88.5386 12.4912C89.5457 11.3789 90.9015 10.8228 92.606 10.8228C94.0005 10.8228 95.1764 11.2212 96.1338 12.0181C97.0911 12.8094 97.6362 13.847 97.769 15.1309H95.6606C95.5223 14.3783 95.1709 13.7751 94.6064 13.3213C94.0475 12.8675 93.3807 12.6406 92.606 12.6406C91.5767 12.6406 90.7549 13.0363 90.1406 13.8276C89.5319 14.6134 89.2275 15.6732 89.2275 17.0068C89.2275 18.3516 89.5319 19.4168 90.1406 20.2026C90.7493 20.9884 91.5739 21.3813 92.6143 21.3813C93.4056 21.3813 94.0697 21.1794 94.6064 20.7754C95.1488 20.3659 95.5029 19.8014 95.6689 19.082H97.769C97.5809 20.3659 97.0275 21.373 96.1089 22.1035C95.1903 22.834 94.0226 23.1992 92.606 23.1992ZM107.149 21.1904V23H99.396V11.022H107.149V12.8315H101.538V16.0688H106.842V17.7705H101.538V21.1904H107.149Z" fill="#091C31"/>
<path d="M52.9124 154.09L58.3358 148.667C59.7279 147.275 61.2908 146.576 63.0245 146.569C64.7518 146.556 66.3115 147.246 67.7036 148.638C69.0893 150.024 69.766 151.596 69.7338 153.356C69.708 155.109 68.9861 156.694 67.5682 158.112L64.7453 160.935L69.3567 165.546L66.8625 168.041L52.9124 154.09ZM57.4464 153.636L62.7345 158.924L64.9967 156.662C65.8925 155.766 66.3566 154.838 66.3888 153.878C66.421 152.917 66.015 152.015 65.1707 151.171C64.3329 150.333 63.437 149.933 62.4832 149.972C61.5357 150.004 60.6141 150.468 59.7183 151.364L57.4464 153.636ZM86.7098 148.193L81.9148 145.776L76.7813 150.91L79.1982 155.705L76.6267 158.276L67.6262 139.377L70.4395 136.563L89.3394 145.564L86.7098 148.193ZM71.4352 140.498L75.4376 148.406L79.4012 144.442L71.5029 140.43L71.4352 140.498ZM93.3321 141.571L90.8379 144.065L76.8877 130.115L79.3819 127.621L93.3321 141.571ZM81.8374 125.165L86.9322 120.071C89.0204 117.982 91.2536 116.961 93.6318 117.006C96.01 117.051 98.3011 118.176 100.505 120.38C102.716 122.591 103.854 124.895 103.918 127.292C103.982 129.69 102.971 131.933 100.882 134.021L95.7876 139.115L81.8374 125.165ZM86.4392 124.779L96.1743 134.514L98.5138 132.174C99.9188 130.769 100.576 129.274 100.486 127.689C100.396 126.103 99.5579 124.518 97.9725 122.932C96.4128 121.372 94.8402 120.554 93.2547 120.477C91.6628 120.393 90.1708 121.047 88.7787 122.439L86.4392 124.779Z" fill="#919EAC"/>
<path d="M102.925 159.749L102.757 160.54L102.565 162.301L102.266 166.674L102.074 169.585V172.03V173.982M100.05 168.998L97.5335 170.268H96.7788L96.1917 169.585L96 168.304L96.5511 166.051L97.5335 164.062L98.48 162.625L100.05 161.055L101.224 160.216L102.266 159.749L103.308 159.426H104.255L105.105 159.749L105.86 160.384L106.256 161.175L106.495 162.301V163.152L106.256 164.589L105.86 165.692L105.393 166.842L104.53 168.483L103.5 169.969L102.398 171.239L101.559 172.03L100.673 172.509L100.205 172.641H99.8099L99.4864 172.413L99.1749 171.982L99.0911 170.951L99.3427 170.041L99.6062 169.442L100.169 168.447L100.924 167.597L101.811 166.842L102.721 166.267L103.692 165.931L104.578 165.859L105.213 166.003L105.932 166.626L106.16 167.285V168.124L105.98 168.855L105.645 169.394L105.489 169.442L105.393 169.082L105.537 168.591L105.932 168.004L106.208 167.848L106.375 168.124L106.208 168.783L106.687 168.004L106.807 168.124V168.543L107.01 168.327L107.07 167.776L107.166 168.124L107.406 167.944L107.573 167.525V167.944L107.825 167.74L108.041 167.189V166.554L107.825 167.189V167.525V168.004M109.119 165.081L108.736 164.589L108.472 163.942L108.388 163.044L108.58 161.978L108.951 160.911L109.454 159.881L110.089 158.982L110.796 158.323L111.635 158L112.33 158.072L112.977 158.431L113.552 159.09L114.007 160.001L114.379 161.259L114.534 162.457L114.594 163.343V164.35L114.438 165.452L114.115 166.998L113.792 168.447L113.3 169.813L112.629 171.107L112.054 172.054L111.264 172.952L110.7 173.335L110.365 173.395L109.934 173.252L109.502 172.533L109.419 171.251L109.778 169.633L110.365 168.208L111.12 166.998L111.958 165.919L112.737 165.165L113.492 164.649L114.031 164.446L114.666 164.518L114.954 164.733L115.241 165.224L115.301 165.847L115.121 166.626L114.87 166.998L114.798 166.626L114.87 166.267L115.121 165.692L115.553 164.985L116.068 164.35L116.583 164.158L116.799 164.35L116.859 164.829L117.074 163.99L117.098 164.314L117.206 164.446L117.398 164.23L117.494 163.823L117.554 164.314L117.817 164.23L118.117 163.99V163.595L118.284 163.99L118.464 163.823V163.427L118.644 163.679L119.087 163.343L119.446 162.792L119.89 161.522L120.189 160.456L120.333 159.51V158.767L120.189 158.371L120.046 158.767L119.89 159.51L119.77 160.456L119.638 161.522L119.554 162.241L119.446 163.523L119.339 164.158L119.171 165.584L119.027 165.452L119.171 164.296L119.027 163.727L119.554 163.679L120.393 163.224L121.112 162.589L121.627 162.014L121.891 161.87L122.573 161.702L123.412 161.367M122.286 160.133L124.754 158.767L126 158.168" stroke="#091C31" stroke-width="0.5" stroke-linecap="round"/>
<path d="M102.925 179.749L102.757 180.54L102.565 182.301L102.266 186.674L102.074 189.585V192.03V193.982M100.05 188.998L97.5335 190.268H96.7788L96.1917 189.585L96 188.304L96.5511 186.051L97.5335 184.062L98.48 182.625L100.05 181.055L101.224 180.216L102.266 179.749L103.308 179.426H104.255L105.105 179.749L105.86 180.384L106.256 181.175L106.495 182.301V183.152L106.256 184.589L105.86 185.692L105.393 186.842L104.53 188.483L103.5 189.969L102.398 191.239L101.559 192.03L100.673 192.509L100.205 192.641H99.8099L99.4864 192.413L99.1749 191.982L99.0911 190.951L99.3427 190.041L99.6062 189.442L100.169 188.447L100.924 187.597L101.811 186.842L102.721 186.267L103.692 185.931L104.578 185.859L105.213 186.003L105.932 186.626L106.16 187.285V188.124L105.98 188.855L105.645 189.394L105.489 189.442L105.393 189.082L105.537 188.591L105.932 188.004L106.208 187.848L106.375 188.124L106.208 188.783L106.687 188.004L106.807 188.124V188.543L107.01 188.327L107.07 187.776L107.166 188.124L107.406 187.944L107.573 187.525V187.944L107.825 187.74L108.041 187.189V186.554L107.825 187.189V187.525V188.004M109.119 185.081L108.736 184.589L108.472 183.942L108.388 183.044L108.58 181.978L108.951 180.911L109.454 179.881L110.089 178.982L110.796 178.323L111.635 178L112.33 178.072L112.977 178.431L113.552 179.09L114.007 180.001L114.379 181.259L114.534 182.457L114.594 183.343V184.35L114.438 185.452L114.115 186.998L113.792 188.447L113.3 189.813L112.629 191.107L112.054 192.054L111.264 192.952L110.7 193.335L110.365 193.395L109.934 193.252L109.502 192.533L109.419 191.251L109.778 189.633L110.365 188.208L111.12 186.998L111.958 185.919L112.737 185.165L113.492 184.649L114.031 184.446L114.666 184.518L114.954 184.733L115.241 185.224L115.301 185.847L115.121 186.626L114.87 186.998L114.798 186.626L114.87 186.267L115.121 185.692L115.553 184.985L116.068 184.35L116.583 184.158L116.799 184.35L116.859 184.829L117.074 183.99L117.098 184.314L117.206 184.446L117.398 184.23L117.494 183.823L117.554 184.314L117.817 184.23L118.117 183.99V183.595L118.284 183.99L118.464 183.823V183.427L118.644 183.679L119.087 183.343L119.446 182.792L119.89 181.522L120.189 180.456L120.333 179.51V178.767L120.189 178.371L120.046 178.767L119.89 179.51L119.77 180.456L119.638 181.522L119.554 182.241L119.446 183.523L119.339 184.158L119.171 185.584L119.027 185.452L119.171 184.296L119.027 183.727L119.554 183.679L120.393 183.224L121.112 182.589L121.627 182.014L121.891 181.87L122.573 181.702L123.412 181.367M122.286 180.133L124.754 178.767L126 178.168" stroke="#091C31" stroke-width="0.5" stroke-linecap="round"/>
</svg>
