<svg width="24" height="24" viewBox="0 0 24 24" fill="none" xmlns="http://www.w3.org/2000/svg">
<path d="M15.8889 15.8889H17.4444C17.857 15.8889 18.2527 15.725 18.5444 15.4333C18.8361 15.1416 19 14.7459 19 14.3333V11.2222C19 10.8097 18.8361 10.414 18.5444 10.1223C18.2527 9.83056 17.857 9.66667 17.4444 9.66667H6.55556C6.143 9.66667 5.74733 9.83056 5.45561 10.1223C5.16389 10.414 5 10.8097 5 11.2222V14.3333C5 14.7459 5.16389 15.1416 5.45561 15.4333C5.74733 15.725 6.143 15.8889 6.55556 15.8889H8.11111M9.66667 19H14.3333C14.7459 19 15.1416 18.8361 15.4333 18.5444C15.725 18.2527 15.8889 17.857 15.8889 17.4444V14.3333C15.8889 13.9208 15.725 13.5251 15.4333 13.2334C15.1416 12.9417 14.7459 12.7778 14.3333 12.7778H9.66667C9.25411 12.7778 8.85845 12.9417 8.56672 13.2334C8.275 13.5251 8.11111 13.9208 8.11111 14.3333V17.4444C8.11111 17.857 8.275 18.2527 8.56672 18.5444C8.85845 18.8361 9.25411 19 9.66667 19ZM15.8889 9.66667V6.55556C15.8889 6.143 15.725 5.74733 15.4333 5.45561C15.1416 5.16389 14.7459 5 14.3333 5H9.66667C9.25411 5 8.85845 5.16389 8.56672 5.45561C8.275 5.74733 8.11111 6.143 8.11111 6.55556V9.66667H15.8889Z" stroke="#A7B1BD" stroke-linecap="round" stroke-linejoin="round"/>
</svg>
