<svg width="25" height="24" viewBox="0 0 25 24" fill="none" xmlns="http://www.w3.org/2000/svg">
<path d="M16.3889 15.8889H17.9444C18.357 15.8889 18.7527 15.725 19.0444 15.4333C19.3361 15.1416 19.5 14.7459 19.5 14.3333V11.2222C19.5 10.8097 19.3361 10.414 19.0444 10.1223C18.7527 9.83056 18.357 9.66667 17.9444 9.66667H7.05556C6.643 9.66667 6.24733 9.83056 5.95561 10.1223C5.66389 10.414 5.5 10.8097 5.5 11.2222V14.3333C5.5 14.7459 5.66389 15.1416 5.95561 15.4333C6.24733 15.725 6.643 15.8889 7.05556 15.8889H8.61111M10.1667 19H14.8333C15.2459 19 15.6416 18.8361 15.9333 18.5444C16.225 18.2527 16.3889 17.857 16.3889 17.4444V14.3333C16.3889 13.9208 16.225 13.5251 15.9333 13.2334C15.6416 12.9417 15.2459 12.7778 14.8333 12.7778H10.1667C9.75411 12.7778 9.35845 12.9417 9.06672 13.2334C8.775 13.5251 8.61111 13.9208 8.61111 14.3333V17.4444C8.61111 17.857 8.775 18.2527 9.06672 18.5444C9.35845 18.8361 9.75411 19 10.1667 19ZM16.3889 9.66667V6.55556C16.3889 6.143 16.225 5.74733 15.9333 5.45561C15.6416 5.16389 15.2459 5 14.8333 5H10.1667C9.75411 5 9.35845 5.16389 9.06672 5.45561C8.775 5.74733 8.61111 6.143 8.61111 6.55556V9.66667H16.3889Z" stroke="#A7B1BD" stroke-linecap="round" stroke-linejoin="round"/>
</svg>
