<svg width="210" height="150" viewBox="0 0 210 150" fill="none" xmlns="http://www.w3.org/2000/svg">
<rect x="1.5" y="148.5" width="147" height="207" rx="6.5" transform="rotate(-90 1.5 148.5)" fill="#FBFDFF" stroke="#091C31" stroke-width="3" stroke-linecap="round" stroke-linejoin="round"/>
<line x1="106.5" y1="6.37709e-08" x2="106.5" y2="150" stroke="#091C31" stroke-width="3"/>
<path d="M33.7001 23.8345H35.0629V16.1282H33.7001V23.8345Z" fill="#091C31"/>
<path d="M36.4046 23.8345H37.7199V18.4299H37.7674L41.5549 23.8345H42.7275V16.1282H41.4175V21.5274H41.37L37.5878 16.1282H36.4046V23.8345Z" fill="#091C31"/>
<path d="M43.5463 16.1282L46.198 23.8345H47.7616L50.4133 16.1282H48.9448L47.0115 22.3551H46.9798L45.0465 16.1282H43.5463Z" fill="#091C31"/>
<path fill-rule="evenodd" clip-rule="evenodd" d="M57.1483 17.0734C56.5003 16.3578 55.6217 16 54.5124 16C53.3996 16 52.5174 16.3578 51.8659 17.0734C51.218 17.7891 50.894 18.7592 50.894 19.984C50.894 21.2087 51.218 22.1789 51.8659 22.8945C52.5174 23.6066 53.3996 23.9626 54.5124 23.9626C55.6217 23.9626 56.5003 23.6066 57.1483 22.8945C57.7997 22.1789 58.1255 21.2087 58.1255 19.984C58.1255 18.7592 57.7997 17.7891 57.1483 17.0734ZM54.5124 17.1749C55.192 17.1749 55.7326 17.4295 56.1341 17.9386C56.5355 18.4442 56.7362 19.1259 56.7362 19.984C56.7362 20.842 56.5355 21.5238 56.1341 22.0294C55.7326 22.5349 55.192 22.7877 54.5124 22.7877C53.8327 22.7877 53.2922 22.5349 52.8907 22.0294C52.4893 21.5238 52.2885 20.842 52.2885 19.984C52.2885 19.1224 52.4893 18.4388 52.8907 17.9332C53.2922 17.4277 53.8327 17.1749 54.5124 17.1749Z" fill="#091C31"/>
<path d="M59.2136 23.8345H60.5765V16.1282H59.2136V23.8345Z" fill="#091C31"/>
<path d="M62.6102 22.8945C63.2476 23.6066 64.1121 23.9626 65.2038 23.9626C66.1053 23.9626 66.8484 23.7276 67.4329 23.2577C68.0175 22.7877 68.3697 22.1398 68.4894 21.3138H67.153C67.0473 21.7766 66.8219 22.1398 66.4768 22.4032C66.1352 22.6631 65.7127 22.7931 65.2091 22.7931C64.547 22.7931 64.0223 22.5403 63.6349 22.0347C63.2476 21.5292 63.0539 20.8438 63.0539 19.9786C63.0539 19.1206 63.2476 18.4388 63.6349 17.9332C64.0258 17.4241 64.5488 17.1696 65.2038 17.1696C65.6968 17.1696 66.1212 17.3155 66.4768 17.6075C66.836 17.8994 67.0596 18.2875 67.1477 18.7717H68.4894C68.4049 17.9457 68.058 17.2782 67.4488 16.769C66.8395 16.2563 66.0912 16 65.2038 16C64.1192 16 63.2564 16.3578 62.6155 17.0734C61.9781 17.7855 61.6594 18.7539 61.6594 19.9786C61.6594 21.2105 61.9763 22.1825 62.6102 22.8945Z" fill="#091C31"/>
<path d="M74.4584 23.8345V22.6702H70.8876V20.47H74.263V19.3752H70.8876V17.2924H74.4584V16.1282H69.5247V23.8345H74.4584Z" fill="#091C31"/>
<path d="M36.5 31.5549C35.6214 31.5549 34.9091 32.275 34.9091 33.1633C34.9091 34.0516 35.6214 34.7717 36.5 34.7717H71.5C72.3786 34.7717 73.0909 34.0516 73.0909 33.1633C73.0909 32.275 72.3786 31.5549 71.5 31.5549H36.5Z" fill="#091C31"/>
<path d="M24.4091 44.4222C23.8819 44.4222 23.4545 44.8543 23.4545 45.3873C23.4545 45.9203 23.8819 46.3524 24.4091 46.3524H95.0455C95.5726 46.3524 96 45.9203 96 45.3873C96 44.8543 95.5726 44.4222 95.0455 44.4222H24.4091Z" fill="#091C31"/>
<path d="M23.4545 64.6884C23.4545 64.1554 23.8819 63.7233 24.4091 63.7233H95.0455C95.5726 63.7233 96 64.1554 96 64.6884C96 65.2213 95.5726 65.6534 95.0455 65.6534H24.4091C23.8819 65.6534 23.4545 65.2213 23.4545 64.6884Z" fill="#091C31"/>
<path d="M24.4091 83.0244C23.8819 83.0244 23.4545 83.4564 23.4545 83.9894C23.4545 84.5224 23.8819 84.9545 24.4091 84.9545H95.0455C95.5726 84.9545 96 84.5224 96 83.9894C96 83.4564 95.5726 83.0244 95.0455 83.0244H24.4091Z" fill="#091C31"/>
<path d="M12 45.3873C12 44.8543 12.4274 44.4222 12.9545 44.4222H17.4091C17.9363 44.4222 18.3636 44.8543 18.3636 45.3873C18.3636 45.9203 17.9363 46.3524 17.4091 46.3524H12.9545C12.4274 46.3524 12 45.9203 12 45.3873Z" fill="#091C31"/>
<path d="M12.9545 63.7233C12.4274 63.7233 12 64.1554 12 64.6884C12 65.2213 12.4274 65.6534 12.9545 65.6534H17.4091C17.9363 65.6534 18.3636 65.2213 18.3636 64.6884C18.3636 64.1554 17.9363 63.7233 17.4091 63.7233H12.9545Z" fill="#091C31"/>
<path d="M12 83.9894C12 83.4564 12.4274 83.0244 12.9545 83.0244H17.4091C17.9363 83.0244 18.3636 83.4564 18.3636 83.9894C18.3636 84.5224 17.9363 84.9545 17.4091 84.9545H12.9545C12.4274 84.9545 12 84.5224 12 83.9894Z" fill="#091C31"/>
<path d="M12.9545 50.8559C12.4274 50.8559 12 51.288 12 51.821C12 52.354 12.4274 52.786 12.9545 52.786H17.4091C17.9363 52.786 18.3636 52.354 18.3636 51.821C18.3636 51.288 17.9363 50.8559 17.4091 50.8559H12.9545Z" fill="#091C31"/>
<path d="M12 71.122C12 70.5891 12.4274 70.157 12.9545 70.157H17.4091C17.9363 70.157 18.3636 70.5891 18.3636 71.122C18.3636 71.655 17.9363 72.0871 17.4091 72.0871H12.9545C12.4274 72.0871 12 71.655 12 71.122Z" fill="#091C31"/>
<path d="M12.9545 89.458C12.4274 89.458 12 89.8901 12 90.4231C12 90.9561 12.4274 91.3881 12.9545 91.3881H17.4091C17.9363 91.3881 18.3636 90.9561 18.3636 90.4231C18.3636 89.8901 17.9363 89.458 17.4091 89.458H12.9545Z" fill="#091C31"/>
<path d="M12 58.2547C12 57.7217 12.4274 57.2896 12.9545 57.2896H17.4091C17.9363 57.2896 18.3636 57.7217 18.3636 58.2547C18.3636 58.7877 17.9363 59.2197 17.4091 59.2197H12.9545C12.4274 59.2197 12 58.7877 12 58.2547Z" fill="#091C31"/>
<path d="M12.9545 76.5907C12.4274 76.5907 12 77.0227 12 77.5557C12 78.0887 12.4274 78.5208 12.9545 78.5208H17.4091C17.9363 78.5208 18.3636 78.0887 18.3636 77.5557C18.3636 77.0227 17.9363 76.5907 17.4091 76.5907H12.9545Z" fill="#091C31"/>
<path d="M12 96.8568C12 96.3238 12.4274 95.8917 12.9545 95.8917H17.4091C17.9363 95.8917 18.3636 96.3238 18.3636 96.8568C18.3636 97.3898 17.9363 97.8218 17.4091 97.8218H12.9545C12.4274 97.8218 12 97.3898 12 96.8568Z" fill="#091C31"/>
<path d="M24.4091 50.8559C23.8819 50.8559 23.4545 51.288 23.4545 51.821C23.4545 52.354 23.8819 52.786 24.4091 52.786H95.0455C95.5726 52.786 96 52.354 96 51.821C96 51.288 95.5726 50.8559 95.0455 50.8559H24.4091Z" fill="#091C31"/>
<path d="M23.4545 71.122C23.4545 70.5891 23.8819 70.157 24.4091 70.157H95.0455C95.5726 70.157 96 70.5891 96 71.122C96 71.655 95.5726 72.0871 95.0455 72.0871H24.4091C23.8819 72.0871 23.4545 71.655 23.4545 71.122Z" fill="#091C31"/>
<path d="M24.4091 89.458C23.8819 89.458 23.4545 89.8901 23.4545 90.4231C23.4545 90.9561 23.8819 91.3881 24.4091 91.3881H95.0455C95.5726 91.3881 96 90.9561 96 90.4231C96 89.8901 95.5726 89.458 95.0455 89.458H24.4091Z" fill="#091C31"/>
<path d="M23.4545 58.2547C23.4545 57.7217 23.8819 57.2896 24.4091 57.2896H95.0455C95.5726 57.2896 96 57.7217 96 58.2547C96 58.7877 95.5726 59.2197 95.0455 59.2197H24.4091C23.8819 59.2197 23.4545 58.7877 23.4545 58.2547Z" fill="#091C31"/>
<path d="M24.4091 76.5907C23.8819 76.5907 23.4545 77.0227 23.4545 77.5557C23.4545 78.0887 23.8819 78.5208 24.4091 78.5208H95.0455C95.5726 78.5208 96 78.0887 96 77.5557C96 77.0227 95.5726 76.5907 95.0455 76.5907H24.4091Z" fill="#091C31"/>
<path d="M23.4545 96.8568C23.4545 96.3238 23.8819 95.8917 24.4091 95.8917H95.0455C95.5726 95.8917 96 96.3238 96 96.8568C96 97.3898 95.5726 97.8218 95.0455 97.8218H24.4091C23.8819 97.8218 23.4545 97.3898 23.4545 96.8568Z" fill="#091C31"/>
<path d="M12.9545 115.836C12.4274 115.836 12 116.268 12 116.801C12 117.334 12.4274 117.766 12.9545 117.766H38.4091C38.9363 117.766 39.3636 117.334 39.3636 116.801C39.3636 116.268 38.9363 115.836 38.4091 115.836H12.9545Z" fill="#091C31"/>
<path d="M12 129.669C12 129.136 12.4274 128.704 12.9545 128.704H38.4091C38.9363 128.704 39.3636 129.136 39.3636 129.669C39.3636 130.202 38.9363 130.634 38.4091 130.634H12.9545C12.4274 130.634 12 130.202 12 129.669Z" fill="#091C31"/>
<path fill-rule="evenodd" clip-rule="evenodd" d="M82.7568 110.457L83.0074 111.154V111.673L82.9126 112.303L82.718 113.004L82.4925 113.657L82.4554 114.104L82.7947 113.917L83.2316 113.527L83.5715 113.143L83.7814 113.028L84.2253 112.917L84.7486 112.706C84.8302 112.673 84.9228 112.713 84.9554 112.795C84.9881 112.878 84.9484 112.972 84.8668 113.005L84.3228 113.225L83.8975 113.33L83.7719 113.399L83.4562 113.756L82.9782 114.183L82.4025 114.499L82.373 114.674L82.2304 115.899L81.8493 115.546L81.9472 114.75L81.8762 114.466L81.7895 114.532L81.4869 114.818L81.453 114.737L81.3236 114.842L80.965 114.957L80.8534 115.084L80.8137 115.035L80.7914 115.123L80.4794 115.103L80.4488 114.854L80.4278 114.836L80.2303 114.91L79.9365 115.276L79.7858 115.526L79.807 115.749L79.6802 116.304L79.2884 116.889L79.1638 116.239L79.2191 115.959L79.3904 115.563L79.4589 115.45L79.453 115.388L79.3066 115.135L79.254 115.511L79.0471 116.511L79.0467 116.513L78.8386 117.456L78.519 118.354L78.0847 119.201L77.7087 119.826L77.183 120.43L76.7799 120.708L76.4931 120.76L76.1244 120.635L75.7998 120.088L75.7425 119.202L75.9791 118.125L76.363 117.183L76.8547 116.386L77.4003 115.677L77.9137 115.174L78.4209 114.824L78.8177 114.672L79.0373 114.697V114.132L78.9998 113.572L78.903 112.819L78.6742 112.036L78.3998 111.481L78.0655 111.094L77.7066 110.892L77.3348 110.853L76.8654 111.036L76.4501 111.428L76.0629 111.982L75.7525 112.624L75.5234 113.289L75.4074 113.941L75.4566 114.474L75.6071 114.847L75.8375 115.146C75.8916 115.216 75.8792 115.317 75.81 115.371C75.7407 115.426 75.6407 115.414 75.5867 115.344L75.3291 115.01L75.1442 114.551L75.0866 113.927L75.2146 113.207L75.4582 112.5L75.7882 111.817L76.2092 111.215L76.6935 110.758L77.2915 110.525L77.8042 110.579L78.2686 110.84L78.6663 111.3L78.9714 111.917L79.2152 112.752L79.3166 113.541L79.3554 114.122V114.767L79.5462 114.912L79.6624 115.113L79.676 115.09L80.0379 114.639L80.4961 114.467L80.6049 114.564L80.6205 114.503L80.8572 114.525L80.8865 114.398L81.1993 114.416L81.2119 114.52L81.2788 114.466V114.289L81.4999 114.243V113.679L81.8077 114.115L81.9373 114.016L82.1403 113.701L82.1788 113.589L82.1946 113.399L82.2481 112.937L82.2482 112.936L82.3321 112.25L82.4092 111.634L82.5119 111.138L82.7568 110.457ZM79.0018 115.017L78.9404 115.456L78.7361 116.443L78.7357 116.445L78.5324 117.366L78.2268 118.225L77.8072 119.043L77.4513 119.635L76.9707 120.187L76.6571 120.403L76.5169 120.429L76.3367 120.368L76.1123 119.99L76.0629 119.227L76.2838 118.222L76.647 117.33L77.116 116.57L77.6378 115.892L78.1155 115.424L78.5689 115.111L78.8583 115L79.0018 115.017Z" fill="#091C31"/>
<path d="M86.5979 110.727C86.636 110.807 86.6027 110.904 86.5235 110.942L85.7347 111.325L84.1681 112.202C84.0912 112.245 83.9944 112.217 83.9519 112.139C83.9093 112.061 83.9371 111.964 84.014 111.921L85.5886 111.04L85.5927 111.038L86.3856 110.652C86.4648 110.614 86.5599 110.647 86.5979 110.727Z" fill="#091C31"/>
<path fill-rule="evenodd" clip-rule="evenodd" d="M71.9903 111.446H72.6459L73.2398 111.674L73.7659 112.121L74.0413 112.678L74.2015 113.439V114.017L74.0445 114.969L73.7858 115.698L73.6618 116.007L73.8205 116.146L73.988 116.636V116.929L74.0421 117.019L74.1345 116.868L74.248 116.982L74.2502 116.962L74.5084 116.941L74.5809 116.757L74.7296 116.786V116.575L74.8753 116.141L75.185 116.193V116.632L75.0478 116.986V117.125C75.0478 117.214 74.9765 117.286 74.8887 117.286C74.8491 117.286 74.813 117.272 74.7851 117.248L74.5695 117.424V117.328L74.5275 117.36L74.5226 117.405L74.0815 117.877V117.568L73.9949 117.711L73.881 117.662L73.863 117.736L73.6047 118.156L73.2908 118.253L73.1758 117.817L73.2867 117.434L73.5731 117.004L73.6698 116.949V116.69L73.5476 116.332L73.5353 116.322L73.4854 116.446L72.9283 117.517L72.2622 118.488L71.5499 119.318L71.3882 119.472V120.972C71.3882 121.061 71.3169 121.133 71.2291 121.133C71.1412 121.133 71.07 121.061 71.07 120.972V119.776L70.9952 119.847L70.3972 120.174L70.0617 120.269H69.7378L69.4689 120.078L69.2291 119.742L69.1698 119.006L69.3405 118.382L69.4133 118.214L68.3774 118.743H67.7862L67.3351 118.213L67.2017 117.311L67.564 115.814L68.2012 114.509L68.8179 113.562L69.8374 112.532L70.6082 111.975L71.2948 111.664L71.9903 111.446ZM69.884 117.974L70.0123 117.909C70.0907 117.869 70.1222 117.772 70.0826 117.693C70.0765 117.68 70.069 117.669 70.0604 117.659L70.147 117.505L70.6088 116.979L71.1559 116.508L71.177 116.494L71.07 118.138V119.333L70.8073 119.584L70.2769 119.874L70.0177 119.948H69.8385L69.6956 119.846L69.539 119.627L69.4915 119.037L69.641 118.49L69.8009 118.123L69.884 117.974ZM71.3882 119.016L72.0106 118.291L72.6558 117.35L73.1965 116.31L73.2813 116.099L73.1526 115.986L72.8111 115.908L72.2913 115.951L71.7102 116.154L71.5097 116.282L71.3882 118.148V119.016ZM73.4078 115.784L73.4897 115.58L73.7353 114.888L73.8833 113.99V113.473L73.7385 112.785L73.5107 112.325L73.0762 111.955L72.5875 111.767H72.0385L71.929 111.802C71.9302 111.817 71.9293 111.832 71.926 111.848L71.821 112.349L71.7002 113.471L71.5367 115.884L71.5714 115.862L72.2254 115.633L72.8339 115.583L73.3007 115.69L73.4078 115.784ZM71.2033 116.097L70.9668 116.248L70.3856 116.748L69.8867 117.317L69.6546 117.731L68.3017 118.421H67.9322L67.6362 118.073L67.5256 117.326L67.8647 115.924L68.4778 114.67L69.0658 113.767L70.0438 112.778L70.7673 112.255L71.4074 111.965L71.588 111.909L71.5064 112.298L71.3835 113.439L71.383 113.445L71.2033 116.097Z" fill="#091C31"/>
<path fill-rule="evenodd" clip-rule="evenodd" d="M82.7568 123.325L82.5119 124.006L82.4092 124.501L82.3321 125.117L82.2482 125.803L82.2481 125.804L82.1947 126.267L82.1942 126.272L82.1788 126.457L82.1403 126.568L81.9373 126.883L81.8077 126.982L81.4999 126.546V127.111L81.2788 127.156V127.333L81.2119 127.387L81.1993 127.283L80.8865 127.266L80.8572 127.392L80.6205 127.371L80.6049 127.432L80.4961 127.334L80.0379 127.506L79.676 127.957L79.6624 127.98L79.5462 127.779L79.3554 127.635V126.989L79.3166 126.408L79.2152 125.62L78.9714 124.785L78.6663 124.168L78.2686 123.707L77.8042 123.446L77.2915 123.393L76.6935 123.626L76.2092 124.082L75.7882 124.685L75.4582 125.368L75.2146 126.075L75.0866 126.795L75.1442 127.418L75.3291 127.877L75.5867 128.211C75.6407 128.281 75.7407 128.294 75.81 128.239C75.8792 128.184 75.8916 128.083 75.8375 128.013L75.6071 127.715L75.4566 127.341L75.4074 126.809L75.5234 126.157L75.7525 125.492L76.0629 124.849L76.4501 124.295L76.8654 123.904L77.3348 123.721L77.7066 123.759L78.0655 123.961L78.3998 124.348L78.6742 124.903L78.903 125.687L78.9998 126.44L79.0373 127V127.564L78.8177 127.539L78.4209 127.691L77.9137 128.041L77.4003 128.544L76.8547 129.253L76.363 130.05L75.9791 130.993L75.7425 132.069L75.7998 132.956L76.1244 133.503L76.4931 133.627L76.7799 133.575L77.183 133.298L77.7087 132.694L78.0847 132.068L78.519 131.221L78.8386 130.323L79.0467 129.38L79.0471 129.378L79.254 128.379L79.3066 128.002L79.453 128.255L79.4589 128.317L79.3904 128.431L79.2191 128.827L79.1638 129.106L79.2884 129.756L79.6802 129.172L79.807 128.616L79.7858 128.393L79.9365 128.143L80.2303 127.777L80.4278 127.703L80.4488 127.722L80.4794 127.97L80.7914 127.99L80.8137 127.902L80.8534 127.951L80.965 127.824L81.3236 127.709L81.453 127.604L81.4869 127.685L81.7895 127.4L81.8762 127.333L81.9472 127.617L81.8493 128.413L82.2304 128.767L82.373 127.541L82.4025 127.366L82.9782 127.05L83.4562 126.623L83.7719 126.267L83.8975 126.197L84.3228 126.092L84.8668 125.872C84.9484 125.839 84.9881 125.745 84.9554 125.663C84.9228 125.58 84.8302 125.54 84.7486 125.573L84.2253 125.785L83.7814 125.895L83.5715 126.011L83.2316 126.394L82.7947 126.785L82.4554 126.971L82.4925 126.524L82.718 125.871L82.9126 125.171L83.0074 124.54V124.022L82.7568 123.325ZM78.9404 128.323L79.0018 127.884L78.8583 127.868L78.5689 127.978L78.1155 128.291L77.6378 128.759L77.116 129.438L76.647 130.198L76.2838 131.09L76.0629 132.094L76.1123 132.857L76.3367 133.235L76.5169 133.296L76.6571 133.271L76.9707 133.055L77.4513 132.503L77.8072 131.91L78.2268 131.092L78.5324 130.233L78.7357 129.312L78.7361 129.31L78.9404 128.323Z" fill="#091C31"/>
<path d="M86.5235 123.809C86.6027 123.771 86.636 123.675 86.5979 123.595C86.5599 123.515 86.4648 123.481 86.3856 123.52L85.5927 123.905L85.5886 123.907L84.014 124.788C83.9371 124.831 83.9093 124.929 83.9519 125.006C83.9944 125.084 84.0912 125.112 84.1681 125.069L85.7347 124.193L86.5235 123.809Z" fill="#091C31"/>
<path fill-rule="evenodd" clip-rule="evenodd" d="M71.9903 124.313L71.2948 124.531L70.6082 124.842L69.8374 125.399L68.8179 126.43L68.2012 127.377L67.564 128.681L67.2017 130.178L67.3351 131.08L67.7862 131.61H68.3774L69.4133 131.082L69.3405 131.249L69.1698 131.874L69.2291 132.61L69.4689 132.945L69.7378 133.137H70.0617L70.3972 133.041L70.9952 132.714L71.07 132.643V133.839C71.07 133.928 71.1412 134 71.2291 134C71.3169 134 71.3882 133.928 71.3882 133.839V132.34L71.5499 132.186L72.2622 131.356L72.9283 130.385L73.4854 129.313L73.5353 129.189L73.5476 129.2L73.6698 129.557V129.816L73.5731 129.871L73.2867 130.301L73.1758 130.685L73.2908 131.121L73.6047 131.023L73.863 130.603L73.881 130.529L73.9949 130.578L74.0815 130.436V130.744L74.5226 130.272L74.5275 130.227L74.5695 130.195V130.291L74.7851 130.115C74.813 130.139 74.8491 130.154 74.8887 130.154C74.9765 130.154 75.0478 130.082 75.0478 129.993V129.854L75.185 129.499V129.06L74.8753 129.008L74.7296 129.442V129.654L74.5809 129.625L74.5084 129.808L74.2502 129.829L74.248 129.85L74.1345 129.735L74.0421 129.887L73.988 129.797V129.503L73.8205 129.013L73.6618 128.874L73.7857 128.566L73.7881 128.559L74.0445 127.837L74.2015 126.884V126.307L74.0413 125.546L73.7659 124.989L73.2398 124.541L72.6459 124.313H71.9903ZM70.0123 130.776L69.884 130.842L69.8009 130.99L69.641 131.357L69.4915 131.904L69.539 132.494L69.6956 132.713L69.8385 132.815H70.0177L70.2769 132.741L70.8073 132.451L71.07 132.201V131.005L71.177 129.362L71.1559 129.375L70.6088 129.846L70.147 130.372L70.0604 130.527C70.069 130.537 70.0765 130.548 70.0826 130.56C70.1222 130.639 70.0907 130.736 70.0123 130.776ZM72.0106 131.158L71.3882 131.883V131.016L71.5097 129.149L71.7102 129.021L72.2913 128.818L72.8111 128.775L73.1526 128.854L73.2813 128.966L73.1965 129.177L72.6558 130.218L72.0106 131.158ZM73.4897 128.448L73.4078 128.651L73.3007 128.558L72.8339 128.451L72.2254 128.501L71.5714 128.729L71.5367 128.751L71.7002 126.338L71.821 125.216L71.926 124.715C71.9279 124.706 71.9291 124.697 71.9294 124.688C71.9297 124.682 71.9295 124.675 71.929 124.669L72.0385 124.635H72.5875L73.0762 124.823L73.5107 125.192L73.7385 125.653L73.8833 126.341V126.858L73.7353 127.755L73.4897 128.448ZM71.2033 128.964L71.3834 126.306L71.5064 125.165L71.588 124.776L71.4074 124.833L70.7673 125.123L70.0438 125.645L69.0658 126.634L68.4778 127.537L67.8647 128.792L67.5256 130.193L67.6362 130.941L67.9322 131.289H68.3017L69.6546 130.598L69.8867 130.184L70.3856 129.616L70.9668 129.115L71.2033 128.964Z" fill="#091C31"/>
<path d="M33.7001 23.8345H35.0629V16.1282H33.7001V23.8345Z" stroke="#091C31"/>
<path d="M36.4046 23.8345H37.7199V18.4299H37.7674L41.5549 23.8345H42.7275V16.1282H41.4175V21.5274H41.37L37.5878 16.1282H36.4046V23.8345Z" stroke="#091C31"/>
<path d="M43.5463 16.1282L46.198 23.8345H47.7616L50.4133 16.1282H48.9448L47.0115 22.3551H46.9798L45.0465 16.1282H43.5463Z" stroke="#091C31"/>
<path fill-rule="evenodd" clip-rule="evenodd" d="M57.1483 17.0734C56.5003 16.3578 55.6217 16 54.5124 16C53.3996 16 52.5174 16.3578 51.8659 17.0734C51.218 17.7891 50.894 18.7592 50.894 19.984C50.894 21.2087 51.218 22.1789 51.8659 22.8945C52.5174 23.6066 53.3996 23.9626 54.5124 23.9626C55.6217 23.9626 56.5003 23.6066 57.1483 22.8945C57.7997 22.1789 58.1255 21.2087 58.1255 19.984C58.1255 18.7592 57.7997 17.7891 57.1483 17.0734ZM54.5124 17.1749C55.192 17.1749 55.7326 17.4295 56.1341 17.9386C56.5355 18.4442 56.7362 19.1259 56.7362 19.984C56.7362 20.842 56.5355 21.5238 56.1341 22.0294C55.7326 22.5349 55.192 22.7877 54.5124 22.7877C53.8327 22.7877 53.2922 22.5349 52.8907 22.0294C52.4893 21.5238 52.2885 20.842 52.2885 19.984C52.2885 19.1224 52.4893 18.4388 52.8907 17.9332C53.2922 17.4277 53.8327 17.1749 54.5124 17.1749Z" stroke="#091C31"/>
<path d="M59.2136 23.8345H60.5765V16.1282H59.2136V23.8345Z" stroke="#091C31"/>
<path d="M62.6102 22.8945C63.2476 23.6066 64.1121 23.9626 65.2038 23.9626C66.1053 23.9626 66.8484 23.7276 67.4329 23.2577C68.0175 22.7877 68.3697 22.1398 68.4894 21.3138H67.153C67.0473 21.7766 66.8219 22.1398 66.4768 22.4032C66.1352 22.6631 65.7127 22.7931 65.2091 22.7931C64.547 22.7931 64.0223 22.5403 63.6349 22.0347C63.2476 21.5292 63.0539 20.8438 63.0539 19.9786C63.0539 19.1206 63.2476 18.4388 63.6349 17.9332C64.0258 17.4241 64.5488 17.1696 65.2038 17.1696C65.6968 17.1696 66.1212 17.3155 66.4768 17.6075C66.836 17.8994 67.0596 18.2875 67.1477 18.7717H68.4894C68.4049 17.9457 68.058 17.2782 67.4488 16.769C66.8395 16.2563 66.0912 16 65.2038 16C64.1192 16 63.2564 16.3578 62.6155 17.0734C61.9781 17.7855 61.6594 18.7539 61.6594 19.9786C61.6594 21.2105 61.9763 22.1825 62.6102 22.8945Z" stroke="#091C31"/>
<path d="M74.4584 23.8345V22.6702H70.8876V20.47H74.263V19.3752H70.8876V17.2924H74.4584V16.1282H69.5247V23.8345H74.4584Z" stroke="#091C31"/>
<path d="M36.5 31.5549C35.6214 31.5549 34.9091 32.275 34.9091 33.1633C34.9091 34.0516 35.6214 34.7717 36.5 34.7717H71.5C72.3786 34.7717 73.0909 34.0516 73.0909 33.1633C73.0909 32.275 72.3786 31.5549 71.5 31.5549H36.5Z" stroke="#091C31"/>
<path d="M24.4091 44.4222C23.8819 44.4222 23.4545 44.8543 23.4545 45.3873C23.4545 45.9203 23.8819 46.3524 24.4091 46.3524H95.0455C95.5726 46.3524 96 45.9203 96 45.3873C96 44.8543 95.5726 44.4222 95.0455 44.4222H24.4091Z" stroke="#091C31"/>
<path d="M23.4545 64.6884C23.4545 64.1554 23.8819 63.7233 24.4091 63.7233H95.0455C95.5726 63.7233 96 64.1554 96 64.6884C96 65.2213 95.5726 65.6534 95.0455 65.6534H24.4091C23.8819 65.6534 23.4545 65.2213 23.4545 64.6884Z" stroke="#091C31"/>
<path d="M24.4091 83.0244C23.8819 83.0244 23.4545 83.4564 23.4545 83.9894C23.4545 84.5224 23.8819 84.9545 24.4091 84.9545H95.0455C95.5726 84.9545 96 84.5224 96 83.9894C96 83.4564 95.5726 83.0244 95.0455 83.0244H24.4091Z" stroke="#091C31"/>
<path d="M12 45.3873C12 44.8543 12.4274 44.4222 12.9545 44.4222H17.4091C17.9363 44.4222 18.3636 44.8543 18.3636 45.3873C18.3636 45.9203 17.9363 46.3524 17.4091 46.3524H12.9545C12.4274 46.3524 12 45.9203 12 45.3873Z" stroke="#091C31"/>
<path d="M12.9545 63.7233C12.4274 63.7233 12 64.1554 12 64.6884C12 65.2213 12.4274 65.6534 12.9545 65.6534H17.4091C17.9363 65.6534 18.3636 65.2213 18.3636 64.6884C18.3636 64.1554 17.9363 63.7233 17.4091 63.7233H12.9545Z" stroke="#091C31"/>
<path d="M12 83.9894C12 83.4564 12.4274 83.0244 12.9545 83.0244H17.4091C17.9363 83.0244 18.3636 83.4564 18.3636 83.9894C18.3636 84.5224 17.9363 84.9545 17.4091 84.9545H12.9545C12.4274 84.9545 12 84.5224 12 83.9894Z" stroke="#091C31"/>
<path d="M12.9545 50.8559C12.4274 50.8559 12 51.288 12 51.821C12 52.354 12.4274 52.786 12.9545 52.786H17.4091C17.9363 52.786 18.3636 52.354 18.3636 51.821C18.3636 51.288 17.9363 50.8559 17.4091 50.8559H12.9545Z" stroke="#091C31"/>
<path d="M12 71.122C12 70.5891 12.4274 70.157 12.9545 70.157H17.4091C17.9363 70.157 18.3636 70.5891 18.3636 71.122C18.3636 71.655 17.9363 72.0871 17.4091 72.0871H12.9545C12.4274 72.0871 12 71.655 12 71.122Z" stroke="#091C31"/>
<path d="M12.9545 89.458C12.4274 89.458 12 89.8901 12 90.4231C12 90.9561 12.4274 91.3881 12.9545 91.3881H17.4091C17.9363 91.3881 18.3636 90.9561 18.3636 90.4231C18.3636 89.8901 17.9363 89.458 17.4091 89.458H12.9545Z" stroke="#091C31"/>
<path d="M12 58.2547C12 57.7217 12.4274 57.2896 12.9545 57.2896H17.4091C17.9363 57.2896 18.3636 57.7217 18.3636 58.2547C18.3636 58.7877 17.9363 59.2197 17.4091 59.2197H12.9545C12.4274 59.2197 12 58.7877 12 58.2547Z" stroke="#091C31"/>
<path d="M12.9545 76.5907C12.4274 76.5907 12 77.0227 12 77.5557C12 78.0887 12.4274 78.5208 12.9545 78.5208H17.4091C17.9363 78.5208 18.3636 78.0887 18.3636 77.5557C18.3636 77.0227 17.9363 76.5907 17.4091 76.5907H12.9545Z" stroke="#091C31"/>
<path d="M12 96.8568C12 96.3238 12.4274 95.8917 12.9545 95.8917H17.4091C17.9363 95.8917 18.3636 96.3238 18.3636 96.8568C18.3636 97.3898 17.9363 97.8218 17.4091 97.8218H12.9545C12.4274 97.8218 12 97.3898 12 96.8568Z" stroke="#091C31"/>
<path d="M24.4091 50.8559C23.8819 50.8559 23.4545 51.288 23.4545 51.821C23.4545 52.354 23.8819 52.786 24.4091 52.786H95.0455C95.5726 52.786 96 52.354 96 51.821C96 51.288 95.5726 50.8559 95.0455 50.8559H24.4091Z" stroke="#091C31"/>
<path d="M23.4545 71.122C23.4545 70.5891 23.8819 70.157 24.4091 70.157H95.0455C95.5726 70.157 96 70.5891 96 71.122C96 71.655 95.5726 72.0871 95.0455 72.0871H24.4091C23.8819 72.0871 23.4545 71.655 23.4545 71.122Z" stroke="#091C31"/>
<path d="M24.4091 89.458C23.8819 89.458 23.4545 89.8901 23.4545 90.4231C23.4545 90.9561 23.8819 91.3881 24.4091 91.3881H95.0455C95.5726 91.3881 96 90.9561 96 90.4231C96 89.8901 95.5726 89.458 95.0455 89.458H24.4091Z" stroke="#091C31"/>
<path d="M23.4545 58.2547C23.4545 57.7217 23.8819 57.2896 24.4091 57.2896H95.0455C95.5726 57.2896 96 57.7217 96 58.2547C96 58.7877 95.5726 59.2197 95.0455 59.2197H24.4091C23.8819 59.2197 23.4545 58.7877 23.4545 58.2547Z" stroke="#091C31"/>
<path d="M24.4091 76.5907C23.8819 76.5907 23.4545 77.0227 23.4545 77.5557C23.4545 78.0887 23.8819 78.5208 24.4091 78.5208H95.0455C95.5726 78.5208 96 78.0887 96 77.5557C96 77.0227 95.5726 76.5907 95.0455 76.5907H24.4091Z" stroke="#091C31"/>
<path d="M23.4545 96.8568C23.4545 96.3238 23.8819 95.8917 24.4091 95.8917H95.0455C95.5726 95.8917 96 96.3238 96 96.8568C96 97.3898 95.5726 97.8218 95.0455 97.8218H24.4091C23.8819 97.8218 23.4545 97.3898 23.4545 96.8568Z" stroke="#091C31"/>
<path d="M12.9545 115.836C12.4274 115.836 12 116.268 12 116.801C12 117.334 12.4274 117.766 12.9545 117.766H38.4091C38.9363 117.766 39.3636 117.334 39.3636 116.801C39.3636 116.268 38.9363 115.836 38.4091 115.836H12.9545Z" stroke="#091C31"/>
<path d="M12 129.669C12 129.136 12.4274 128.704 12.9545 128.704H38.4091C38.9363 128.704 39.3636 129.136 39.3636 129.669C39.3636 130.202 38.9363 130.634 38.4091 130.634H12.9545C12.4274 130.634 12 130.202 12 129.669Z" stroke="#091C31"/>
<path fill-rule="evenodd" clip-rule="evenodd" d="M82.7568 110.457L83.0074 111.154V111.673L82.9126 112.303L82.718 113.004L82.4925 113.657L82.4554 114.104L82.7947 113.917L83.2316 113.527L83.5715 113.143L83.7814 113.028L84.2253 112.917L84.7486 112.706C84.8302 112.673 84.9228 112.713 84.9554 112.795C84.9881 112.878 84.9484 112.972 84.8668 113.005L84.3228 113.225L83.8975 113.33L83.7719 113.399L83.4562 113.756L82.9782 114.183L82.4025 114.499L82.373 114.674L82.2304 115.899L81.8493 115.546L81.9472 114.75L81.8762 114.466L81.7895 114.532L81.4869 114.818L81.453 114.737L81.3236 114.842L80.965 114.957L80.8534 115.084L80.8137 115.035L80.7914 115.123L80.4794 115.103L80.4488 114.854L80.4278 114.836L80.2303 114.91L79.9365 115.276L79.7858 115.526L79.807 115.749L79.6802 116.304L79.2884 116.889L79.1638 116.239L79.2191 115.959L79.3904 115.563L79.4589 115.45L79.453 115.388L79.3066 115.135L79.254 115.511L79.0471 116.511L79.0467 116.513L78.8386 117.456L78.519 118.354L78.0847 119.201L77.7087 119.826L77.183 120.43L76.7799 120.708L76.4931 120.76L76.1244 120.635L75.7998 120.088L75.7425 119.202L75.9791 118.125L76.363 117.183L76.8547 116.386L77.4003 115.677L77.9137 115.174L78.4209 114.824L78.8177 114.672L79.0373 114.697V114.132L78.9998 113.572L78.903 112.819L78.6742 112.036L78.3998 111.481L78.0655 111.094L77.7066 110.892L77.3348 110.853L76.8654 111.036L76.4501 111.428L76.0629 111.982L75.7525 112.624L75.5234 113.289L75.4074 113.941L75.4566 114.474L75.6071 114.847L75.8375 115.146C75.8916 115.216 75.8792 115.317 75.81 115.371C75.7407 115.426 75.6407 115.414 75.5867 115.344L75.3291 115.01L75.1442 114.551L75.0866 113.927L75.2146 113.207L75.4582 112.5L75.7882 111.817L76.2092 111.215L76.6935 110.758L77.2915 110.525L77.8042 110.579L78.2686 110.84L78.6663 111.3L78.9714 111.917L79.2152 112.752L79.3166 113.541L79.3554 114.122V114.767L79.5462 114.912L79.6624 115.113L79.676 115.09L80.0379 114.639L80.4961 114.467L80.6049 114.564L80.6205 114.503L80.8572 114.525L80.8865 114.398L81.1993 114.416L81.2119 114.52L81.2788 114.466V114.289L81.4999 114.243V113.679L81.8077 114.115L81.9373 114.016L82.1403 113.701L82.1788 113.589L82.1946 113.399L82.2481 112.937L82.2482 112.936L82.3321 112.25L82.4092 111.634L82.5119 111.138L82.7568 110.457ZM79.0018 115.017L78.9404 115.456L78.7361 116.443L78.7357 116.445L78.5324 117.366L78.2268 118.225L77.8072 119.043L77.4513 119.635L76.9707 120.187L76.6571 120.403L76.5169 120.429L76.3367 120.368L76.1123 119.99L76.0629 119.227L76.2838 118.222L76.647 117.33L77.116 116.57L77.6378 115.892L78.1155 115.424L78.5689 115.111L78.8583 115L79.0018 115.017Z" stroke="#091C31"/>
<path d="M86.5979 110.727C86.636 110.807 86.6027 110.904 86.5235 110.942L85.7347 111.325L84.1681 112.202C84.0912 112.245 83.9944 112.217 83.9519 112.139C83.9093 112.061 83.9371 111.964 84.014 111.921L85.5886 111.04L85.5927 111.038L86.3856 110.652C86.4648 110.614 86.5599 110.647 86.5979 110.727Z" stroke="#091C31"/>
<path fill-rule="evenodd" clip-rule="evenodd" d="M71.9903 111.446H72.6459L73.2398 111.674L73.7659 112.121L74.0413 112.678L74.2015 113.439V114.017L74.0445 114.969L73.7858 115.698L73.6618 116.007L73.8205 116.146L73.988 116.636V116.929L74.0421 117.019L74.1345 116.868L74.248 116.982L74.2502 116.962L74.5084 116.941L74.5809 116.757L74.7296 116.786V116.575L74.8753 116.141L75.185 116.193V116.632L75.0478 116.986V117.125C75.0478 117.214 74.9765 117.286 74.8887 117.286C74.8491 117.286 74.813 117.272 74.7851 117.248L74.5695 117.424V117.328L74.5275 117.36L74.5226 117.405L74.0815 117.877V117.568L73.9949 117.711L73.881 117.662L73.863 117.736L73.6047 118.156L73.2908 118.253L73.1758 117.817L73.2867 117.434L73.5731 117.004L73.6698 116.949V116.69L73.5476 116.332L73.5353 116.322L73.4854 116.446L72.9283 117.517L72.2622 118.488L71.5499 119.318L71.3882 119.472V120.972C71.3882 121.061 71.3169 121.133 71.2291 121.133C71.1412 121.133 71.07 121.061 71.07 120.972V119.776L70.9952 119.847L70.3972 120.174L70.0617 120.269H69.7378L69.4689 120.078L69.2291 119.742L69.1698 119.006L69.3405 118.382L69.4133 118.214L68.3774 118.743H67.7862L67.3351 118.213L67.2017 117.311L67.564 115.814L68.2012 114.509L68.8179 113.562L69.8374 112.532L70.6082 111.975L71.2948 111.664L71.9903 111.446ZM69.884 117.974L70.0123 117.909C70.0907 117.869 70.1222 117.772 70.0826 117.693C70.0765 117.68 70.069 117.669 70.0604 117.659L70.147 117.505L70.6088 116.979L71.1559 116.508L71.177 116.494L71.07 118.138V119.333L70.8073 119.584L70.2769 119.874L70.0177 119.948H69.8385L69.6956 119.846L69.539 119.627L69.4915 119.037L69.641 118.49L69.8009 118.123L69.884 117.974ZM71.3882 119.016L72.0106 118.291L72.6558 117.35L73.1965 116.31L73.2813 116.099L73.1526 115.986L72.8111 115.908L72.2913 115.951L71.7102 116.154L71.5097 116.282L71.3882 118.148V119.016ZM73.4078 115.784L73.4897 115.58L73.7353 114.888L73.8833 113.99V113.473L73.7385 112.785L73.5107 112.325L73.0762 111.955L72.5875 111.767H72.0385L71.929 111.802C71.9302 111.817 71.9293 111.832 71.926 111.848L71.821 112.349L71.7002 113.471L71.5367 115.884L71.5714 115.862L72.2254 115.633L72.8339 115.583L73.3007 115.69L73.4078 115.784ZM71.2033 116.097L70.9668 116.248L70.3856 116.748L69.8867 117.317L69.6546 117.731L68.3017 118.421H67.9322L67.6362 118.073L67.5256 117.326L67.8647 115.924L68.4778 114.67L69.0658 113.767L70.0438 112.778L70.7673 112.255L71.4074 111.965L71.588 111.909L71.5064 112.298L71.3835 113.439L71.383 113.445L71.2033 116.097Z" stroke="#091C31"/>
<path fill-rule="evenodd" clip-rule="evenodd" d="M82.7568 123.325L82.5119 124.006L82.4092 124.501L82.3321 125.117L82.2482 125.803L82.2481 125.804L82.1947 126.267L82.1942 126.272L82.1788 126.457L82.1403 126.568L81.9373 126.883L81.8077 126.982L81.4999 126.546V127.111L81.2788 127.156V127.333L81.2119 127.387L81.1993 127.283L80.8865 127.266L80.8572 127.392L80.6205 127.371L80.6049 127.432L80.4961 127.334L80.0379 127.506L79.676 127.957L79.6624 127.98L79.5462 127.779L79.3554 127.635V126.989L79.3166 126.408L79.2152 125.62L78.9714 124.785L78.6663 124.168L78.2686 123.707L77.8042 123.446L77.2915 123.393L76.6935 123.626L76.2092 124.082L75.7882 124.685L75.4582 125.368L75.2146 126.075L75.0866 126.795L75.1442 127.418L75.3291 127.877L75.5867 128.211C75.6407 128.281 75.7407 128.294 75.81 128.239C75.8792 128.184 75.8916 128.083 75.8375 128.013L75.6071 127.715L75.4566 127.341L75.4074 126.809L75.5234 126.157L75.7525 125.492L76.0629 124.849L76.4501 124.295L76.8654 123.904L77.3348 123.721L77.7066 123.759L78.0655 123.961L78.3998 124.348L78.6742 124.903L78.903 125.687L78.9998 126.44L79.0373 127V127.564L78.8177 127.539L78.4209 127.691L77.9137 128.041L77.4003 128.544L76.8547 129.253L76.363 130.05L75.9791 130.993L75.7425 132.069L75.7998 132.956L76.1244 133.503L76.4931 133.627L76.7799 133.575L77.183 133.298L77.7087 132.694L78.0847 132.068L78.519 131.221L78.8386 130.323L79.0467 129.38L79.0471 129.378L79.254 128.379L79.3066 128.002L79.453 128.255L79.4589 128.317L79.3904 128.431L79.2191 128.827L79.1638 129.106L79.2884 129.756L79.6802 129.172L79.807 128.616L79.7858 128.393L79.9365 128.143L80.2303 127.777L80.4278 127.703L80.4488 127.722L80.4794 127.97L80.7914 127.99L80.8137 127.902L80.8534 127.951L80.965 127.824L81.3236 127.709L81.453 127.604L81.4869 127.685L81.7895 127.4L81.8762 127.333L81.9472 127.617L81.8493 128.413L82.2304 128.767L82.373 127.541L82.4025 127.366L82.9782 127.05L83.4562 126.623L83.7719 126.267L83.8975 126.197L84.3228 126.092L84.8668 125.872C84.9484 125.839 84.9881 125.745 84.9554 125.663C84.9228 125.58 84.8302 125.54 84.7486 125.573L84.2253 125.785L83.7814 125.895L83.5715 126.011L83.2316 126.394L82.7947 126.785L82.4554 126.971L82.4925 126.524L82.718 125.871L82.9126 125.171L83.0074 124.54V124.022L82.7568 123.325ZM78.9404 128.323L79.0018 127.884L78.8583 127.868L78.5689 127.978L78.1155 128.291L77.6378 128.759L77.116 129.438L76.647 130.198L76.2838 131.09L76.0629 132.094L76.1123 132.857L76.3367 133.235L76.5169 133.296L76.6571 133.271L76.9707 133.055L77.4513 132.503L77.8072 131.91L78.2268 131.092L78.5324 130.233L78.7357 129.312L78.7361 129.31L78.9404 128.323Z" stroke="#091C31"/>
<path d="M86.5235 123.809C86.6027 123.771 86.636 123.675 86.5979 123.595C86.5599 123.515 86.4648 123.481 86.3856 123.52L85.5927 123.905L85.5886 123.907L84.014 124.788C83.9371 124.831 83.9093 124.929 83.9519 125.006C83.9944 125.084 84.0912 125.112 84.1681 125.069L85.7347 124.193L86.5235 123.809Z" stroke="#091C31"/>
<path fill-rule="evenodd" clip-rule="evenodd" d="M71.9903 124.313L71.2948 124.531L70.6082 124.842L69.8374 125.399L68.8179 126.43L68.2012 127.377L67.564 128.681L67.2017 130.178L67.3351 131.08L67.7862 131.61H68.3774L69.4133 131.082L69.3405 131.249L69.1698 131.874L69.2291 132.61L69.4689 132.945L69.7378 133.137H70.0617L70.3972 133.041L70.9952 132.714L71.07 132.643V133.839C71.07 133.928 71.1412 134 71.2291 134C71.3169 134 71.3882 133.928 71.3882 133.839V132.34L71.5499 132.186L72.2622 131.356L72.9283 130.385L73.4854 129.313L73.5353 129.189L73.5476 129.2L73.6698 129.557V129.816L73.5731 129.871L73.2867 130.301L73.1758 130.685L73.2908 131.121L73.6047 131.023L73.863 130.603L73.881 130.529L73.9949 130.578L74.0815 130.436V130.744L74.5226 130.272L74.5275 130.227L74.5695 130.195V130.291L74.7851 130.115C74.813 130.139 74.8491 130.154 74.8887 130.154C74.9765 130.154 75.0478 130.082 75.0478 129.993V129.854L75.185 129.499V129.06L74.8753 129.008L74.7296 129.442V129.654L74.5809 129.625L74.5084 129.808L74.2502 129.829L74.248 129.85L74.1345 129.735L74.0421 129.887L73.988 129.797V129.503L73.8205 129.013L73.6618 128.874L73.7857 128.566L73.7881 128.559L74.0445 127.837L74.2015 126.884V126.307L74.0413 125.546L73.7659 124.989L73.2398 124.541L72.6459 124.313H71.9903ZM70.0123 130.776L69.884 130.842L69.8009 130.99L69.641 131.357L69.4915 131.904L69.539 132.494L69.6956 132.713L69.8385 132.815H70.0177L70.2769 132.741L70.8073 132.451L71.07 132.201V131.005L71.177 129.362L71.1559 129.375L70.6088 129.846L70.147 130.372L70.0604 130.527C70.069 130.537 70.0765 130.548 70.0826 130.56C70.1222 130.639 70.0907 130.736 70.0123 130.776ZM72.0106 131.158L71.3882 131.883V131.016L71.5097 129.149L71.7102 129.021L72.2913 128.818L72.8111 128.775L73.1526 128.854L73.2813 128.966L73.1965 129.177L72.6558 130.218L72.0106 131.158ZM73.4897 128.448L73.4078 128.651L73.3007 128.558L72.8339 128.451L72.2254 128.501L71.5714 128.729L71.5367 128.751L71.7002 126.338L71.821 125.216L71.926 124.715C71.9279 124.706 71.9291 124.697 71.9294 124.688C71.9297 124.682 71.9295 124.675 71.929 124.669L72.0385 124.635H72.5875L73.0762 124.823L73.5107 125.192L73.7385 125.653L73.8833 126.341V126.858L73.7353 127.755L73.4897 128.448ZM71.2033 128.964L71.3834 126.306L71.5064 125.165L71.588 124.776L71.4074 124.833L70.7673 125.123L70.0438 125.645L69.0658 126.634L68.4778 127.537L67.8647 128.792L67.5256 130.193L67.6362 130.941L67.9322 131.289H68.3017L69.6546 130.598L69.8867 130.184L70.3856 129.616L70.9668 129.115L71.2033 128.964Z" stroke="#091C31"/>
<path d="M135.7 23.8345H137.063V16.1282H135.7V23.8345Z" fill="#091C31"/>
<path d="M138.405 23.8345H139.72V18.4299H139.767L143.555 23.8345H144.728V16.1282H143.418V21.5274H143.37L139.588 16.1282H138.405V23.8345Z" fill="#091C31"/>
<path d="M145.546 16.1282L148.198 23.8345H149.762L152.413 16.1282H150.945L149.011 22.3551H148.98L147.046 16.1282H145.546Z" fill="#091C31"/>
<path fill-rule="evenodd" clip-rule="evenodd" d="M159.148 17.0734C158.5 16.3578 157.622 16 156.512 16C155.4 16 154.517 16.3578 153.866 17.0734C153.218 17.7891 152.894 18.7592 152.894 19.984C152.894 21.2087 153.218 22.1789 153.866 22.8945C154.517 23.6066 155.4 23.9626 156.512 23.9626C157.622 23.9626 158.5 23.6066 159.148 22.8945C159.8 22.1789 160.125 21.2087 160.125 19.984C160.125 18.7592 159.8 17.7891 159.148 17.0734ZM156.512 17.1749C157.192 17.1749 157.733 17.4295 158.134 17.9386C158.536 18.4442 158.736 19.1259 158.736 19.984C158.736 20.842 158.536 21.5238 158.134 22.0294C157.733 22.5349 157.192 22.7877 156.512 22.7877C155.833 22.7877 155.292 22.5349 154.891 22.0294C154.489 21.5238 154.289 20.842 154.289 19.984C154.289 19.1224 154.489 18.4388 154.891 17.9332C155.292 17.4277 155.833 17.1749 156.512 17.1749Z" fill="#091C31"/>
<path d="M161.214 23.8345H162.576V16.1282H161.214V23.8345Z" fill="#091C31"/>
<path d="M164.61 22.8945C165.248 23.6066 166.112 23.9626 167.204 23.9626C168.105 23.9626 168.848 23.7276 169.433 23.2577C170.018 22.7877 170.37 22.1398 170.489 21.3138H169.153C169.047 21.7766 168.822 22.1398 168.477 22.4032C168.135 22.6631 167.713 22.7931 167.209 22.7931C166.547 22.7931 166.022 22.5403 165.635 22.0347C165.248 21.5292 165.054 20.8438 165.054 19.9786C165.054 19.1206 165.248 18.4388 165.635 17.9332C166.026 17.4241 166.549 17.1696 167.204 17.1696C167.697 17.1696 168.121 17.3155 168.477 17.6075C168.836 17.8994 169.06 18.2875 169.148 18.7717H170.489C170.405 17.9457 170.058 17.2782 169.449 16.769C168.84 16.2563 168.091 16 167.204 16C166.119 16 165.256 16.3578 164.615 17.0734C163.978 17.7855 163.659 18.7539 163.659 19.9786C163.659 21.2105 163.976 22.1825 164.61 22.8945Z" fill="#091C31"/>
<path d="M176.458 23.8345V22.6702H172.888V20.47H176.263V19.3752H172.888V17.2924H176.458V16.1282H171.525V23.8345H176.458Z" fill="#091C31"/>
<path d="M138.5 31.5549C137.621 31.5549 136.909 32.275 136.909 33.1633C136.909 34.0516 137.621 34.7717 138.5 34.7717H173.5C174.379 34.7717 175.091 34.0516 175.091 33.1633C175.091 32.275 174.379 31.5549 173.5 31.5549H138.5Z" fill="#091C31"/>
<path d="M126.409 44.4222C125.882 44.4222 125.455 44.8543 125.455 45.3873C125.455 45.9203 125.882 46.3524 126.409 46.3524H197.045C197.573 46.3524 198 45.9203 198 45.3873C198 44.8543 197.573 44.4222 197.045 44.4222H126.409Z" fill="#091C31"/>
<path d="M125.455 64.6884C125.455 64.1554 125.882 63.7233 126.409 63.7233H197.045C197.573 63.7233 198 64.1554 198 64.6884C198 65.2213 197.573 65.6534 197.045 65.6534H126.409C125.882 65.6534 125.455 65.2213 125.455 64.6884Z" fill="#091C31"/>
<path d="M126.409 83.0244C125.882 83.0244 125.455 83.4564 125.455 83.9894C125.455 84.5224 125.882 84.9545 126.409 84.9545H197.045C197.573 84.9545 198 84.5224 198 83.9894C198 83.4564 197.573 83.0244 197.045 83.0244H126.409Z" fill="#091C31"/>
<path d="M114 45.3873C114 44.8543 114.427 44.4222 114.955 44.4222H119.409C119.936 44.4222 120.364 44.8543 120.364 45.3873C120.364 45.9203 119.936 46.3524 119.409 46.3524H114.955C114.427 46.3524 114 45.9203 114 45.3873Z" fill="#091C31"/>
<path d="M114.955 63.7233C114.427 63.7233 114 64.1554 114 64.6884C114 65.2213 114.427 65.6534 114.955 65.6534H119.409C119.936 65.6534 120.364 65.2213 120.364 64.6884C120.364 64.1554 119.936 63.7233 119.409 63.7233H114.955Z" fill="#091C31"/>
<path d="M114 83.9894C114 83.4564 114.427 83.0244 114.955 83.0244H119.409C119.936 83.0244 120.364 83.4564 120.364 83.9894C120.364 84.5224 119.936 84.9545 119.409 84.9545H114.955C114.427 84.9545 114 84.5224 114 83.9894Z" fill="#091C31"/>
<path d="M114.955 50.8559C114.427 50.8559 114 51.288 114 51.821C114 52.354 114.427 52.786 114.955 52.786H119.409C119.936 52.786 120.364 52.354 120.364 51.821C120.364 51.288 119.936 50.8559 119.409 50.8559H114.955Z" fill="#091C31"/>
<path d="M114 71.122C114 70.5891 114.427 70.157 114.955 70.157H119.409C119.936 70.157 120.364 70.5891 120.364 71.122C120.364 71.655 119.936 72.0871 119.409 72.0871H114.955C114.427 72.0871 114 71.655 114 71.122Z" fill="#091C31"/>
<path d="M114.955 89.458C114.427 89.458 114 89.8901 114 90.4231C114 90.9561 114.427 91.3881 114.955 91.3881H119.409C119.936 91.3881 120.364 90.9561 120.364 90.4231C120.364 89.8901 119.936 89.458 119.409 89.458H114.955Z" fill="#091C31"/>
<path d="M114 58.2547C114 57.7217 114.427 57.2896 114.955 57.2896H119.409C119.936 57.2896 120.364 57.7217 120.364 58.2547C120.364 58.7877 119.936 59.2197 119.409 59.2197H114.955C114.427 59.2197 114 58.7877 114 58.2547Z" fill="#091C31"/>
<path d="M114.955 76.5907C114.427 76.5907 114 77.0227 114 77.5557C114 78.0887 114.427 78.5208 114.955 78.5208H119.409C119.936 78.5208 120.364 78.0887 120.364 77.5557C120.364 77.0227 119.936 76.5907 119.409 76.5907H114.955Z" fill="#091C31"/>
<path d="M114 96.8568C114 96.3238 114.427 95.8917 114.955 95.8917H119.409C119.936 95.8917 120.364 96.3238 120.364 96.8568C120.364 97.3898 119.936 97.8218 119.409 97.8218H114.955C114.427 97.8218 114 97.3898 114 96.8568Z" fill="#091C31"/>
<path d="M126.409 50.8559C125.882 50.8559 125.455 51.288 125.455 51.821C125.455 52.354 125.882 52.786 126.409 52.786H197.045C197.573 52.786 198 52.354 198 51.821C198 51.288 197.573 50.8559 197.045 50.8559H126.409Z" fill="#091C31"/>
<path d="M125.455 71.122C125.455 70.5891 125.882 70.157 126.409 70.157H197.045C197.573 70.157 198 70.5891 198 71.122C198 71.655 197.573 72.0871 197.045 72.0871H126.409C125.882 72.0871 125.455 71.655 125.455 71.122Z" fill="#091C31"/>
<path d="M126.409 89.458C125.882 89.458 125.455 89.8901 125.455 90.4231C125.455 90.9561 125.882 91.3881 126.409 91.3881H197.045C197.573 91.3881 198 90.9561 198 90.4231C198 89.8901 197.573 89.458 197.045 89.458H126.409Z" fill="#091C31"/>
<path d="M125.455 58.2547C125.455 57.7217 125.882 57.2896 126.409 57.2896H197.045C197.573 57.2896 198 57.7217 198 58.2547C198 58.7877 197.573 59.2197 197.045 59.2197H126.409C125.882 59.2197 125.455 58.7877 125.455 58.2547Z" fill="#091C31"/>
<path d="M126.409 76.5907C125.882 76.5907 125.455 77.0227 125.455 77.5557C125.455 78.0887 125.882 78.5208 126.409 78.5208H197.045C197.573 78.5208 198 78.0887 198 77.5557C198 77.0227 197.573 76.5907 197.045 76.5907H126.409Z" fill="#091C31"/>
<path d="M125.455 96.8568C125.455 96.3238 125.882 95.8917 126.409 95.8917H197.045C197.573 95.8917 198 96.3238 198 96.8568C198 97.3898 197.573 97.8218 197.045 97.8218H126.409C125.882 97.8218 125.455 97.3898 125.455 96.8568Z" fill="#091C31"/>
<path d="M114.955 115.836C114.427 115.836 114 116.268 114 116.801C114 117.334 114.427 117.766 114.955 117.766H140.409C140.936 117.766 141.364 117.334 141.364 116.801C141.364 116.268 140.936 115.836 140.409 115.836H114.955Z" fill="#091C31"/>
<path d="M114 129.669C114 129.136 114.427 128.704 114.955 128.704H140.409C140.936 128.704 141.364 129.136 141.364 129.669C141.364 130.202 140.936 130.634 140.409 130.634H114.955C114.427 130.634 114 130.202 114 129.669Z" fill="#091C31"/>
<path fill-rule="evenodd" clip-rule="evenodd" d="M184.757 110.457L185.007 111.154V111.673L184.913 112.303L184.718 113.004L184.493 113.657L184.455 114.104L184.795 113.917L185.232 113.527L185.572 113.143L185.781 113.028L186.225 112.917L186.749 112.706C186.83 112.673 186.923 112.713 186.955 112.795C186.988 112.878 186.948 112.972 186.867 113.005L186.323 113.225L185.897 113.33L185.772 113.399L185.456 113.756L184.978 114.183L184.403 114.499L184.373 114.674L184.23 115.899L183.849 115.546L183.947 114.75L183.876 114.466L183.79 114.532L183.487 114.818L183.453 114.737L183.324 114.842L182.965 114.957L182.853 115.084L182.814 115.035L182.791 115.123L182.479 115.103L182.449 114.854L182.428 114.836L182.23 114.91L181.937 115.276L181.786 115.526L181.807 115.749L181.68 116.304L181.288 116.889L181.164 116.239L181.219 115.959L181.39 115.563L181.459 115.45L181.453 115.388L181.307 115.135L181.254 115.511L181.047 116.511L181.047 116.513L180.839 117.456L180.519 118.354L180.085 119.201L179.709 119.826L179.183 120.43L178.78 120.708L178.493 120.76L178.124 120.635L177.8 120.088L177.742 119.202L177.979 118.125L178.363 117.183L178.855 116.386L179.4 115.677L179.914 115.174L180.421 114.824L180.818 114.672L181.037 114.697V114.132L181 113.572L180.903 112.819L180.674 112.036L180.4 111.481L180.065 111.094L179.707 110.892L179.335 110.853L178.865 111.036L178.45 111.428L178.063 111.982L177.752 112.624L177.523 113.289L177.407 113.941L177.457 114.474L177.607 114.847L177.838 115.146C177.892 115.216 177.879 115.317 177.81 115.371C177.741 115.426 177.641 115.414 177.587 115.344L177.329 115.01L177.144 114.551L177.087 113.927L177.215 113.207L177.458 112.5L177.788 111.817L178.209 111.215L178.694 110.758L179.292 110.525L179.804 110.579L180.269 110.84L180.666 111.3L180.971 111.917L181.215 112.752L181.317 113.541L181.355 114.122V114.767L181.546 114.912L181.662 115.113L181.676 115.09L182.038 114.639L182.496 114.467L182.605 114.564L182.62 114.503L182.857 114.525L182.887 114.398L183.199 114.416L183.212 114.52L183.279 114.466V114.289L183.5 114.243V113.679L183.808 114.115L183.937 114.016L184.14 113.701L184.179 113.589L184.195 113.399L184.248 112.937L184.248 112.936L184.332 112.25L184.409 111.634L184.512 111.138L184.757 110.457ZM181.002 115.017L180.94 115.456L180.736 116.443L180.736 116.445L180.532 117.366L180.227 118.225L179.807 119.043L179.451 119.635L178.971 120.187L178.657 120.403L178.517 120.429L178.337 120.368L178.112 119.99L178.063 119.227L178.284 118.222L178.647 117.33L179.116 116.57L179.638 115.892L180.116 115.424L180.569 115.111L180.858 115L181.002 115.017Z" fill="#091C31"/>
<path d="M188.598 110.727C188.636 110.807 188.603 110.904 188.523 110.942L187.735 111.325L186.168 112.202C186.091 112.245 185.994 112.217 185.952 112.139C185.909 112.061 185.937 111.964 186.014 111.921L187.589 111.04L187.593 111.038L188.386 110.652C188.465 110.614 188.56 110.647 188.598 110.727Z" fill="#091C31"/>
<path fill-rule="evenodd" clip-rule="evenodd" d="M173.99 111.446H174.646L175.24 111.674L175.766 112.121L176.041 112.678L176.201 113.439V114.017L176.044 114.969L175.786 115.698L175.662 116.007L175.821 116.146L175.988 116.636V116.929L176.042 117.019L176.134 116.868L176.248 116.982L176.25 116.962L176.508 116.941L176.581 116.757L176.73 116.786V116.575L176.875 116.141L177.185 116.193V116.632L177.048 116.986V117.125C177.048 117.214 176.977 117.286 176.889 117.286C176.849 117.286 176.813 117.272 176.785 117.248L176.569 117.424V117.328L176.527 117.36L176.523 117.405L176.082 117.877V117.568L175.995 117.711L175.881 117.662L175.863 117.736L175.605 118.156L175.291 118.253L175.176 117.817L175.287 117.434L175.573 117.004L175.67 116.949V116.69L175.548 116.332L175.535 116.322L175.485 116.446L174.928 117.517L174.262 118.488L173.55 119.318L173.388 119.472V120.972C173.388 121.061 173.317 121.133 173.229 121.133C173.141 121.133 173.07 121.061 173.07 120.972V119.776L172.995 119.847L172.397 120.174L172.062 120.269H171.738L171.469 120.078L171.229 119.742L171.17 119.006L171.341 118.382L171.413 118.214L170.377 118.743H169.786L169.335 118.213L169.202 117.311L169.564 115.814L170.201 114.509L170.818 113.562L171.837 112.532L172.608 111.975L173.295 111.664L173.99 111.446ZM171.884 117.974L172.012 117.909C172.091 117.869 172.122 117.772 172.083 117.693C172.076 117.68 172.069 117.669 172.06 117.659L172.147 117.505L172.609 116.979L173.156 116.508L173.177 116.494L173.07 118.138V119.333L172.807 119.584L172.277 119.874L172.018 119.948H171.838L171.696 119.846L171.539 119.627L171.492 119.037L171.641 118.49L171.801 118.123L171.884 117.974ZM173.388 119.016L174.011 118.291L174.656 117.35L175.197 116.31L175.281 116.099L175.153 115.986L174.811 115.908L174.291 115.951L173.71 116.154L173.51 116.282L173.388 118.148V119.016ZM175.408 115.784L175.49 115.58L175.735 114.888L175.883 113.99V113.473L175.739 112.785L175.511 112.325L175.076 111.955L174.587 111.767H174.038L173.929 111.802C173.93 111.817 173.929 111.832 173.926 111.848L173.821 112.349L173.7 113.471L173.537 115.884L173.571 115.862L174.225 115.633L174.834 115.583L175.301 115.69L175.408 115.784ZM173.203 116.097L172.967 116.248L172.386 116.748L171.887 117.317L171.655 117.731L170.302 118.421H169.932L169.636 118.073L169.526 117.326L169.865 115.924L170.478 114.67L171.066 113.767L172.044 112.778L172.767 112.255L173.407 111.965L173.588 111.909L173.506 112.298L173.384 113.439L173.383 113.445L173.203 116.097Z" fill="#091C31"/>
<path fill-rule="evenodd" clip-rule="evenodd" d="M184.757 123.325L184.512 124.006L184.409 124.501L184.332 125.117L184.248 125.803L184.248 125.804L184.195 126.267L184.194 126.272L184.179 126.457L184.14 126.568L183.937 126.883L183.808 126.982L183.5 126.546V127.111L183.279 127.156V127.333L183.212 127.387L183.199 127.283L182.887 127.266L182.857 127.392L182.62 127.371L182.605 127.432L182.496 127.334L182.038 127.506L181.676 127.957L181.662 127.98L181.546 127.779L181.355 127.635V126.989L181.317 126.408L181.215 125.62L180.971 124.785L180.666 124.168L180.269 123.707L179.804 123.446L179.292 123.393L178.694 123.626L178.209 124.082L177.788 124.685L177.458 125.368L177.215 126.075L177.087 126.795L177.144 127.418L177.329 127.877L177.587 128.211C177.641 128.281 177.741 128.294 177.81 128.239C177.879 128.184 177.892 128.083 177.838 128.013L177.607 127.715L177.457 127.341L177.407 126.809L177.523 126.157L177.752 125.492L178.063 124.849L178.45 124.295L178.865 123.904L179.335 123.721L179.707 123.759L180.065 123.961L180.4 124.348L180.674 124.903L180.903 125.687L181 126.44L181.037 127V127.564L180.818 127.539L180.421 127.691L179.914 128.041L179.4 128.544L178.855 129.253L178.363 130.05L177.979 130.993L177.742 132.069L177.8 132.956L178.124 133.503L178.493 133.627L178.78 133.575L179.183 133.298L179.709 132.694L180.085 132.068L180.519 131.221L180.839 130.323L181.047 129.38L181.047 129.378L181.254 128.379L181.307 128.002L181.453 128.255L181.459 128.317L181.39 128.431L181.219 128.827L181.164 129.106L181.288 129.756L181.68 129.172L181.807 128.616L181.786 128.393L181.937 128.143L182.23 127.777L182.428 127.703L182.449 127.722L182.479 127.97L182.791 127.99L182.814 127.902L182.853 127.951L182.965 127.824L183.324 127.709L183.453 127.604L183.487 127.685L183.79 127.4L183.876 127.333L183.947 127.617L183.849 128.413L184.23 128.767L184.373 127.541L184.403 127.366L184.978 127.05L185.456 126.623L185.772 126.267L185.897 126.197L186.323 126.092L186.867 125.872C186.948 125.839 186.988 125.745 186.955 125.663C186.923 125.58 186.83 125.54 186.749 125.573L186.225 125.785L185.781 125.895L185.572 126.011L185.232 126.394L184.795 126.785L184.455 126.971L184.493 126.524L184.718 125.871L184.913 125.171L185.007 124.54V124.022L184.757 123.325ZM180.94 128.323L181.002 127.884L180.858 127.868L180.569 127.978L180.116 128.291L179.638 128.759L179.116 129.438L178.647 130.198L178.284 131.09L178.063 132.094L178.112 132.857L178.337 133.235L178.517 133.296L178.657 133.271L178.971 133.055L179.451 132.503L179.807 131.91L180.227 131.092L180.532 130.233L180.736 129.312L180.736 129.31L180.94 128.323Z" fill="#091C31"/>
<path d="M188.523 123.809C188.603 123.771 188.636 123.675 188.598 123.595C188.56 123.515 188.465 123.481 188.386 123.52L187.593 123.905L187.589 123.907L186.014 124.788C185.937 124.831 185.909 124.929 185.952 125.006C185.994 125.084 186.091 125.112 186.168 125.069L187.735 124.193L188.523 123.809Z" fill="#091C31"/>
<path fill-rule="evenodd" clip-rule="evenodd" d="M173.99 124.313L173.295 124.531L172.608 124.842L171.837 125.399L170.818 126.43L170.201 127.377L169.564 128.681L169.202 130.178L169.335 131.08L169.786 131.61H170.377L171.413 131.082L171.341 131.249L171.17 131.874L171.229 132.61L171.469 132.945L171.738 133.137H172.062L172.397 133.041L172.995 132.714L173.07 132.643V133.839C173.07 133.928 173.141 134 173.229 134C173.317 134 173.388 133.928 173.388 133.839V132.34L173.55 132.186L174.262 131.356L174.928 130.385L175.485 129.313L175.535 129.189L175.548 129.2L175.67 129.557V129.816L175.573 129.871L175.287 130.301L175.176 130.685L175.291 131.121L175.605 131.023L175.863 130.603L175.881 130.529L175.995 130.578L176.082 130.436V130.744L176.523 130.272L176.527 130.227L176.569 130.195V130.291L176.785 130.115C176.813 130.139 176.849 130.154 176.889 130.154C176.977 130.154 177.048 130.082 177.048 129.993V129.854L177.185 129.499V129.06L176.875 129.008L176.73 129.442V129.654L176.581 129.625L176.508 129.808L176.25 129.829L176.248 129.85L176.134 129.735L176.042 129.887L175.988 129.797V129.503L175.821 129.013L175.662 128.874L175.786 128.566L175.788 128.559L176.044 127.837L176.201 126.884V126.307L176.041 125.546L175.766 124.989L175.24 124.541L174.646 124.313H173.99ZM172.012 130.776L171.884 130.842L171.801 130.99L171.641 131.357L171.492 131.904L171.539 132.494L171.696 132.713L171.838 132.815H172.018L172.277 132.741L172.807 132.451L173.07 132.201V131.005L173.177 129.362L173.156 129.375L172.609 129.846L172.147 130.372L172.06 130.527C172.069 130.537 172.076 130.548 172.083 130.56C172.122 130.639 172.091 130.736 172.012 130.776ZM174.011 131.158L173.388 131.883V131.016L173.51 129.149L173.71 129.021L174.291 128.818L174.811 128.775L175.153 128.854L175.281 128.966L175.197 129.177L174.656 130.218L174.011 131.158ZM175.49 128.448L175.408 128.651L175.301 128.558L174.834 128.451L174.225 128.501L173.571 128.729L173.537 128.751L173.7 126.338L173.821 125.216L173.926 124.715C173.928 124.706 173.929 124.697 173.929 124.688C173.93 124.682 173.93 124.675 173.929 124.669L174.038 124.635H174.587L175.076 124.823L175.511 125.192L175.739 125.653L175.883 126.341V126.858L175.735 127.755L175.49 128.448ZM173.203 128.964L173.383 126.306L173.506 125.165L173.588 124.776L173.407 124.833L172.767 125.123L172.044 125.645L171.066 126.634L170.478 127.537L169.865 128.792L169.526 130.193L169.636 130.941L169.932 131.289H170.302L171.655 130.598L171.887 130.184L172.386 129.616L172.967 129.115L173.203 128.964Z" fill="#091C31"/>
<path d="M135.7 23.8345H137.063V16.1282H135.7V23.8345Z" stroke="#091C31"/>
<path d="M138.405 23.8345H139.72V18.4299H139.767L143.555 23.8345H144.728V16.1282H143.418V21.5274H143.37L139.588 16.1282H138.405V23.8345Z" stroke="#091C31"/>
<path d="M145.546 16.1282L148.198 23.8345H149.762L152.413 16.1282H150.945L149.011 22.3551H148.98L147.046 16.1282H145.546Z" stroke="#091C31"/>
<path fill-rule="evenodd" clip-rule="evenodd" d="M159.148 17.0734C158.5 16.3578 157.622 16 156.512 16C155.4 16 154.517 16.3578 153.866 17.0734C153.218 17.7891 152.894 18.7592 152.894 19.984C152.894 21.2087 153.218 22.1789 153.866 22.8945C154.517 23.6066 155.4 23.9626 156.512 23.9626C157.622 23.9626 158.5 23.6066 159.148 22.8945C159.8 22.1789 160.125 21.2087 160.125 19.984C160.125 18.7592 159.8 17.7891 159.148 17.0734ZM156.512 17.1749C157.192 17.1749 157.733 17.4295 158.134 17.9386C158.536 18.4442 158.736 19.1259 158.736 19.984C158.736 20.842 158.536 21.5238 158.134 22.0294C157.733 22.5349 157.192 22.7877 156.512 22.7877C155.833 22.7877 155.292 22.5349 154.891 22.0294C154.489 21.5238 154.289 20.842 154.289 19.984C154.289 19.1224 154.489 18.4388 154.891 17.9332C155.292 17.4277 155.833 17.1749 156.512 17.1749Z" stroke="#091C31"/>
<path d="M161.214 23.8345H162.576V16.1282H161.214V23.8345Z" stroke="#091C31"/>
<path d="M164.61 22.8945C165.248 23.6066 166.112 23.9626 167.204 23.9626C168.105 23.9626 168.848 23.7276 169.433 23.2577C170.018 22.7877 170.37 22.1398 170.489 21.3138H169.153C169.047 21.7766 168.822 22.1398 168.477 22.4032C168.135 22.6631 167.713 22.7931 167.209 22.7931C166.547 22.7931 166.022 22.5403 165.635 22.0347C165.248 21.5292 165.054 20.8438 165.054 19.9786C165.054 19.1206 165.248 18.4388 165.635 17.9332C166.026 17.4241 166.549 17.1696 167.204 17.1696C167.697 17.1696 168.121 17.3155 168.477 17.6075C168.836 17.8994 169.06 18.2875 169.148 18.7717H170.489C170.405 17.9457 170.058 17.2782 169.449 16.769C168.84 16.2563 168.091 16 167.204 16C166.119 16 165.256 16.3578 164.615 17.0734C163.978 17.7855 163.659 18.7539 163.659 19.9786C163.659 21.2105 163.976 22.1825 164.61 22.8945Z" stroke="#091C31"/>
<path d="M176.458 23.8345V22.6702H172.888V20.47H176.263V19.3752H172.888V17.2924H176.458V16.1282H171.525V23.8345H176.458Z" stroke="#091C31"/>
<path d="M138.5 31.5549C137.621 31.5549 136.909 32.275 136.909 33.1633C136.909 34.0516 137.621 34.7717 138.5 34.7717H173.5C174.379 34.7717 175.091 34.0516 175.091 33.1633C175.091 32.275 174.379 31.5549 173.5 31.5549H138.5Z" stroke="#091C31"/>
<path d="M126.409 44.4222C125.882 44.4222 125.455 44.8543 125.455 45.3873C125.455 45.9203 125.882 46.3524 126.409 46.3524H197.045C197.573 46.3524 198 45.9203 198 45.3873C198 44.8543 197.573 44.4222 197.045 44.4222H126.409Z" stroke="#091C31"/>
<path d="M125.455 64.6884C125.455 64.1554 125.882 63.7233 126.409 63.7233H197.045C197.573 63.7233 198 64.1554 198 64.6884C198 65.2213 197.573 65.6534 197.045 65.6534H126.409C125.882 65.6534 125.455 65.2213 125.455 64.6884Z" stroke="#091C31"/>
<path d="M126.409 83.0244C125.882 83.0244 125.455 83.4564 125.455 83.9894C125.455 84.5224 125.882 84.9545 126.409 84.9545H197.045C197.573 84.9545 198 84.5224 198 83.9894C198 83.4564 197.573 83.0244 197.045 83.0244H126.409Z" stroke="#091C31"/>
<path d="M114 45.3873C114 44.8543 114.427 44.4222 114.955 44.4222H119.409C119.936 44.4222 120.364 44.8543 120.364 45.3873C120.364 45.9203 119.936 46.3524 119.409 46.3524H114.955C114.427 46.3524 114 45.9203 114 45.3873Z" stroke="#091C31"/>
<path d="M114.955 63.7233C114.427 63.7233 114 64.1554 114 64.6884C114 65.2213 114.427 65.6534 114.955 65.6534H119.409C119.936 65.6534 120.364 65.2213 120.364 64.6884C120.364 64.1554 119.936 63.7233 119.409 63.7233H114.955Z" stroke="#091C31"/>
<path d="M114 83.9894C114 83.4564 114.427 83.0244 114.955 83.0244H119.409C119.936 83.0244 120.364 83.4564 120.364 83.9894C120.364 84.5224 119.936 84.9545 119.409 84.9545H114.955C114.427 84.9545 114 84.5224 114 83.9894Z" stroke="#091C31"/>
<path d="M114.955 50.8559C114.427 50.8559 114 51.288 114 51.821C114 52.354 114.427 52.786 114.955 52.786H119.409C119.936 52.786 120.364 52.354 120.364 51.821C120.364 51.288 119.936 50.8559 119.409 50.8559H114.955Z" stroke="#091C31"/>
<path d="M114 71.122C114 70.5891 114.427 70.157 114.955 70.157H119.409C119.936 70.157 120.364 70.5891 120.364 71.122C120.364 71.655 119.936 72.0871 119.409 72.0871H114.955C114.427 72.0871 114 71.655 114 71.122Z" stroke="#091C31"/>
<path d="M114.955 89.458C114.427 89.458 114 89.8901 114 90.4231C114 90.9561 114.427 91.3881 114.955 91.3881H119.409C119.936 91.3881 120.364 90.9561 120.364 90.4231C120.364 89.8901 119.936 89.458 119.409 89.458H114.955Z" stroke="#091C31"/>
<path d="M114 58.2547C114 57.7217 114.427 57.2896 114.955 57.2896H119.409C119.936 57.2896 120.364 57.7217 120.364 58.2547C120.364 58.7877 119.936 59.2197 119.409 59.2197H114.955C114.427 59.2197 114 58.7877 114 58.2547Z" stroke="#091C31"/>
<path d="M114.955 76.5907C114.427 76.5907 114 77.0227 114 77.5557C114 78.0887 114.427 78.5208 114.955 78.5208H119.409C119.936 78.5208 120.364 78.0887 120.364 77.5557C120.364 77.0227 119.936 76.5907 119.409 76.5907H114.955Z" stroke="#091C31"/>
<path d="M114 96.8568C114 96.3238 114.427 95.8917 114.955 95.8917H119.409C119.936 95.8917 120.364 96.3238 120.364 96.8568C120.364 97.3898 119.936 97.8218 119.409 97.8218H114.955C114.427 97.8218 114 97.3898 114 96.8568Z" stroke="#091C31"/>
<path d="M126.409 50.8559C125.882 50.8559 125.455 51.288 125.455 51.821C125.455 52.354 125.882 52.786 126.409 52.786H197.045C197.573 52.786 198 52.354 198 51.821C198 51.288 197.573 50.8559 197.045 50.8559H126.409Z" stroke="#091C31"/>
<path d="M125.455 71.122C125.455 70.5891 125.882 70.157 126.409 70.157H197.045C197.573 70.157 198 70.5891 198 71.122C198 71.655 197.573 72.0871 197.045 72.0871H126.409C125.882 72.0871 125.455 71.655 125.455 71.122Z" stroke="#091C31"/>
<path d="M126.409 89.458C125.882 89.458 125.455 89.8901 125.455 90.4231C125.455 90.9561 125.882 91.3881 126.409 91.3881H197.045C197.573 91.3881 198 90.9561 198 90.4231C198 89.8901 197.573 89.458 197.045 89.458H126.409Z" stroke="#091C31"/>
<path d="M125.455 58.2547C125.455 57.7217 125.882 57.2896 126.409 57.2896H197.045C197.573 57.2896 198 57.7217 198 58.2547C198 58.7877 197.573 59.2197 197.045 59.2197H126.409C125.882 59.2197 125.455 58.7877 125.455 58.2547Z" stroke="#091C31"/>
<path d="M126.409 76.5907C125.882 76.5907 125.455 77.0227 125.455 77.5557C125.455 78.0887 125.882 78.5208 126.409 78.5208H197.045C197.573 78.5208 198 78.0887 198 77.5557C198 77.0227 197.573 76.5907 197.045 76.5907H126.409Z" stroke="#091C31"/>
<path d="M125.455 96.8568C125.455 96.3238 125.882 95.8917 126.409 95.8917H197.045C197.573 95.8917 198 96.3238 198 96.8568C198 97.3898 197.573 97.8218 197.045 97.8218H126.409C125.882 97.8218 125.455 97.3898 125.455 96.8568Z" stroke="#091C31"/>
<path d="M114.955 115.836C114.427 115.836 114 116.268 114 116.801C114 117.334 114.427 117.766 114.955 117.766H140.409C140.936 117.766 141.364 117.334 141.364 116.801C141.364 116.268 140.936 115.836 140.409 115.836H114.955Z" stroke="#091C31"/>
<path d="M114 129.669C114 129.136 114.427 128.704 114.955 128.704H140.409C140.936 128.704 141.364 129.136 141.364 129.669C141.364 130.202 140.936 130.634 140.409 130.634H114.955C114.427 130.634 114 130.202 114 129.669Z" stroke="#091C31"/>
<path fill-rule="evenodd" clip-rule="evenodd" d="M184.757 110.457L185.007 111.154V111.673L184.913 112.303L184.718 113.004L184.493 113.657L184.455 114.104L184.795 113.917L185.232 113.527L185.572 113.143L185.781 113.028L186.225 112.917L186.749 112.706C186.83 112.673 186.923 112.713 186.955 112.795C186.988 112.878 186.948 112.972 186.867 113.005L186.323 113.225L185.897 113.33L185.772 113.399L185.456 113.756L184.978 114.183L184.403 114.499L184.373 114.674L184.23 115.899L183.849 115.546L183.947 114.75L183.876 114.466L183.79 114.532L183.487 114.818L183.453 114.737L183.324 114.842L182.965 114.957L182.853 115.084L182.814 115.035L182.791 115.123L182.479 115.103L182.449 114.854L182.428 114.836L182.23 114.91L181.937 115.276L181.786 115.526L181.807 115.749L181.68 116.304L181.288 116.889L181.164 116.239L181.219 115.959L181.39 115.563L181.459 115.45L181.453 115.388L181.307 115.135L181.254 115.511L181.047 116.511L181.047 116.513L180.839 117.456L180.519 118.354L180.085 119.201L179.709 119.826L179.183 120.43L178.78 120.708L178.493 120.76L178.124 120.635L177.8 120.088L177.742 119.202L177.979 118.125L178.363 117.183L178.855 116.386L179.4 115.677L179.914 115.174L180.421 114.824L180.818 114.672L181.037 114.697V114.132L181 113.572L180.903 112.819L180.674 112.036L180.4 111.481L180.065 111.094L179.707 110.892L179.335 110.853L178.865 111.036L178.45 111.428L178.063 111.982L177.752 112.624L177.523 113.289L177.407 113.941L177.457 114.474L177.607 114.847L177.838 115.146C177.892 115.216 177.879 115.317 177.81 115.371C177.741 115.426 177.641 115.414 177.587 115.344L177.329 115.01L177.144 114.551L177.087 113.927L177.215 113.207L177.458 112.5L177.788 111.817L178.209 111.215L178.694 110.758L179.292 110.525L179.804 110.579L180.269 110.84L180.666 111.3L180.971 111.917L181.215 112.752L181.317 113.541L181.355 114.122V114.767L181.546 114.912L181.662 115.113L181.676 115.09L182.038 114.639L182.496 114.467L182.605 114.564L182.62 114.503L182.857 114.525L182.887 114.398L183.199 114.416L183.212 114.52L183.279 114.466V114.289L183.5 114.243V113.679L183.808 114.115L183.937 114.016L184.14 113.701L184.179 113.589L184.195 113.399L184.248 112.937L184.248 112.936L184.332 112.25L184.409 111.634L184.512 111.138L184.757 110.457ZM181.002 115.017L180.94 115.456L180.736 116.443L180.736 116.445L180.532 117.366L180.227 118.225L179.807 119.043L179.451 119.635L178.971 120.187L178.657 120.403L178.517 120.429L178.337 120.368L178.112 119.99L178.063 119.227L178.284 118.222L178.647 117.33L179.116 116.57L179.638 115.892L180.116 115.424L180.569 115.111L180.858 115L181.002 115.017Z" stroke="#091C31"/>
<path d="M188.598 110.727C188.636 110.807 188.603 110.904 188.523 110.942L187.735 111.325L186.168 112.202C186.091 112.245 185.994 112.217 185.952 112.139C185.909 112.061 185.937 111.964 186.014 111.921L187.589 111.04L187.593 111.038L188.386 110.652C188.465 110.614 188.56 110.647 188.598 110.727Z" stroke="#091C31"/>
<path fill-rule="evenodd" clip-rule="evenodd" d="M173.99 111.446H174.646L175.24 111.674L175.766 112.121L176.041 112.678L176.201 113.439V114.017L176.044 114.969L175.786 115.698L175.662 116.007L175.821 116.146L175.988 116.636V116.929L176.042 117.019L176.134 116.868L176.248 116.982L176.25 116.962L176.508 116.941L176.581 116.757L176.73 116.786V116.575L176.875 116.141L177.185 116.193V116.632L177.048 116.986V117.125C177.048 117.214 176.977 117.286 176.889 117.286C176.849 117.286 176.813 117.272 176.785 117.248L176.569 117.424V117.328L176.527 117.36L176.523 117.405L176.082 117.877V117.568L175.995 117.711L175.881 117.662L175.863 117.736L175.605 118.156L175.291 118.253L175.176 117.817L175.287 117.434L175.573 117.004L175.67 116.949V116.69L175.548 116.332L175.535 116.322L175.485 116.446L174.928 117.517L174.262 118.488L173.55 119.318L173.388 119.472V120.972C173.388 121.061 173.317 121.133 173.229 121.133C173.141 121.133 173.07 121.061 173.07 120.972V119.776L172.995 119.847L172.397 120.174L172.062 120.269H171.738L171.469 120.078L171.229 119.742L171.17 119.006L171.341 118.382L171.413 118.214L170.377 118.743H169.786L169.335 118.213L169.202 117.311L169.564 115.814L170.201 114.509L170.818 113.562L171.837 112.532L172.608 111.975L173.295 111.664L173.99 111.446ZM171.884 117.974L172.012 117.909C172.091 117.869 172.122 117.772 172.083 117.693C172.076 117.68 172.069 117.669 172.06 117.659L172.147 117.505L172.609 116.979L173.156 116.508L173.177 116.494L173.07 118.138V119.333L172.807 119.584L172.277 119.874L172.018 119.948H171.838L171.696 119.846L171.539 119.627L171.492 119.037L171.641 118.49L171.801 118.123L171.884 117.974ZM173.388 119.016L174.011 118.291L174.656 117.35L175.197 116.31L175.281 116.099L175.153 115.986L174.811 115.908L174.291 115.951L173.71 116.154L173.51 116.282L173.388 118.148V119.016ZM175.408 115.784L175.49 115.58L175.735 114.888L175.883 113.99V113.473L175.739 112.785L175.511 112.325L175.076 111.955L174.587 111.767H174.038L173.929 111.802C173.93 111.817 173.929 111.832 173.926 111.848L173.821 112.349L173.7 113.471L173.537 115.884L173.571 115.862L174.225 115.633L174.834 115.583L175.301 115.69L175.408 115.784ZM173.203 116.097L172.967 116.248L172.386 116.748L171.887 117.317L171.655 117.731L170.302 118.421H169.932L169.636 118.073L169.526 117.326L169.865 115.924L170.478 114.67L171.066 113.767L172.044 112.778L172.767 112.255L173.407 111.965L173.588 111.909L173.506 112.298L173.384 113.439L173.383 113.445L173.203 116.097Z" stroke="#091C31"/>
<path fill-rule="evenodd" clip-rule="evenodd" d="M184.757 123.325L184.512 124.006L184.409 124.501L184.332 125.117L184.248 125.803L184.248 125.804L184.195 126.267L184.194 126.272L184.179 126.457L184.14 126.568L183.937 126.883L183.808 126.982L183.5 126.546V127.111L183.279 127.156V127.333L183.212 127.387L183.199 127.283L182.887 127.266L182.857 127.392L182.62 127.371L182.605 127.432L182.496 127.334L182.038 127.506L181.676 127.957L181.662 127.98L181.546 127.779L181.355 127.635V126.989L181.317 126.408L181.215 125.62L180.971 124.785L180.666 124.168L180.269 123.707L179.804 123.446L179.292 123.393L178.694 123.626L178.209 124.082L177.788 124.685L177.458 125.368L177.215 126.075L177.087 126.795L177.144 127.418L177.329 127.877L177.587 128.211C177.641 128.281 177.741 128.294 177.81 128.239C177.879 128.184 177.892 128.083 177.838 128.013L177.607 127.715L177.457 127.341L177.407 126.809L177.523 126.157L177.752 125.492L178.063 124.849L178.45 124.295L178.865 123.904L179.335 123.721L179.707 123.759L180.065 123.961L180.4 124.348L180.674 124.903L180.903 125.687L181 126.44L181.037 127V127.564L180.818 127.539L180.421 127.691L179.914 128.041L179.4 128.544L178.855 129.253L178.363 130.05L177.979 130.993L177.742 132.069L177.8 132.956L178.124 133.503L178.493 133.627L178.78 133.575L179.183 133.298L179.709 132.694L180.085 132.068L180.519 131.221L180.839 130.323L181.047 129.38L181.047 129.378L181.254 128.379L181.307 128.002L181.453 128.255L181.459 128.317L181.39 128.431L181.219 128.827L181.164 129.106L181.288 129.756L181.68 129.172L181.807 128.616L181.786 128.393L181.937 128.143L182.23 127.777L182.428 127.703L182.449 127.722L182.479 127.97L182.791 127.99L182.814 127.902L182.853 127.951L182.965 127.824L183.324 127.709L183.453 127.604L183.487 127.685L183.79 127.4L183.876 127.333L183.947 127.617L183.849 128.413L184.23 128.767L184.373 127.541L184.403 127.366L184.978 127.05L185.456 126.623L185.772 126.267L185.897 126.197L186.323 126.092L186.867 125.872C186.948 125.839 186.988 125.745 186.955 125.663C186.923 125.58 186.83 125.54 186.749 125.573L186.225 125.785L185.781 125.895L185.572 126.011L185.232 126.394L184.795 126.785L184.455 126.971L184.493 126.524L184.718 125.871L184.913 125.171L185.007 124.54V124.022L184.757 123.325ZM180.94 128.323L181.002 127.884L180.858 127.868L180.569 127.978L180.116 128.291L179.638 128.759L179.116 129.438L178.647 130.198L178.284 131.09L178.063 132.094L178.112 132.857L178.337 133.235L178.517 133.296L178.657 133.271L178.971 133.055L179.451 132.503L179.807 131.91L180.227 131.092L180.532 130.233L180.736 129.312L180.736 129.31L180.94 128.323Z" stroke="#091C31"/>
<path d="M188.523 123.809C188.603 123.771 188.636 123.675 188.598 123.595C188.56 123.515 188.465 123.481 188.386 123.52L187.593 123.905L187.589 123.907L186.014 124.788C185.937 124.831 185.909 124.929 185.952 125.006C185.994 125.084 186.091 125.112 186.168 125.069L187.735 124.193L188.523 123.809Z" stroke="#091C31"/>
<path fill-rule="evenodd" clip-rule="evenodd" d="M173.99 124.313L173.295 124.531L172.608 124.842L171.837 125.399L170.818 126.43L170.201 127.377L169.564 128.681L169.202 130.178L169.335 131.08L169.786 131.61H170.377L171.413 131.082L171.341 131.249L171.17 131.874L171.229 132.61L171.469 132.945L171.738 133.137H172.062L172.397 133.041L172.995 132.714L173.07 132.643V133.839C173.07 133.928 173.141 134 173.229 134C173.317 134 173.388 133.928 173.388 133.839V132.34L173.55 132.186L174.262 131.356L174.928 130.385L175.485 129.313L175.535 129.189L175.548 129.2L175.67 129.557V129.816L175.573 129.871L175.287 130.301L175.176 130.685L175.291 131.121L175.605 131.023L175.863 130.603L175.881 130.529L175.995 130.578L176.082 130.436V130.744L176.523 130.272L176.527 130.227L176.569 130.195V130.291L176.785 130.115C176.813 130.139 176.849 130.154 176.889 130.154C176.977 130.154 177.048 130.082 177.048 129.993V129.854L177.185 129.499V129.06L176.875 129.008L176.73 129.442V129.654L176.581 129.625L176.508 129.808L176.25 129.829L176.248 129.85L176.134 129.735L176.042 129.887L175.988 129.797V129.503L175.821 129.013L175.662 128.874L175.786 128.566L175.788 128.559L176.044 127.837L176.201 126.884V126.307L176.041 125.546L175.766 124.989L175.24 124.541L174.646 124.313H173.99ZM172.012 130.776L171.884 130.842L171.801 130.99L171.641 131.357L171.492 131.904L171.539 132.494L171.696 132.713L171.838 132.815H172.018L172.277 132.741L172.807 132.451L173.07 132.201V131.005L173.177 129.362L173.156 129.375L172.609 129.846L172.147 130.372L172.06 130.527C172.069 130.537 172.076 130.548 172.083 130.56C172.122 130.639 172.091 130.736 172.012 130.776ZM174.011 131.158L173.388 131.883V131.016L173.51 129.149L173.71 129.021L174.291 128.818L174.811 128.775L175.153 128.854L175.281 128.966L175.197 129.177L174.656 130.218L174.011 131.158ZM175.49 128.448L175.408 128.651L175.301 128.558L174.834 128.451L174.225 128.501L173.571 128.729L173.537 128.751L173.7 126.338L173.821 125.216L173.926 124.715C173.928 124.706 173.929 124.697 173.929 124.688C173.93 124.682 173.93 124.675 173.929 124.669L174.038 124.635H174.587L175.076 124.823L175.511 125.192L175.739 125.653L175.883 126.341V126.858L175.735 127.755L175.49 128.448ZM173.203 128.964L173.383 126.306L173.506 125.165L173.588 124.776L173.407 124.833L172.767 125.123L172.044 125.645L171.066 126.634L170.478 127.537L169.865 128.792L169.526 130.193L169.636 130.941L169.932 131.289H170.302L171.655 130.598L171.887 130.184L172.386 129.616L172.967 129.115L173.203 128.964Z" stroke="#091C31"/>
<path d="M36.9271 106.756L40.4136 103.269C41.3085 102.374 42.3132 101.925 43.4278 101.921C44.5381 101.912 45.5408 102.356 46.4357 103.251C47.3265 104.141 47.7615 105.152 47.7408 106.283C47.7243 107.41 47.2602 108.43 46.3487 109.341L44.534 111.156L47.4985 114.12L45.895 115.724L36.9271 106.756ZM39.8418 106.464L43.2413 109.863L44.6956 108.409C45.2715 107.833 45.5698 107.236 45.5905 106.619C45.6112 106.002 45.3502 105.422 44.8074 104.879C44.2688 104.34 43.6929 104.083 43.0797 104.108C42.4707 104.129 41.8782 104.427 41.3023 105.003L39.8418 106.464ZM58.654 102.965L55.5715 101.411L52.2714 104.711L53.8251 107.794L52.172 109.447L46.386 97.2968L48.1945 95.4883L60.3445 101.274L58.654 102.965ZM48.8346 98.0178L51.4076 103.101L53.9556 100.553L48.8781 97.9743L48.8346 98.0178ZM62.9112 98.7076L61.3077 100.311L52.3398 91.3431L53.9432 89.7396L62.9112 98.7076ZM55.5218 88.1611L58.797 84.8859C60.1394 83.5435 61.575 82.8868 63.1038 82.9158C64.6327 82.9448 66.1056 83.6678 67.5226 85.0848C68.9437 86.5059 69.6749 87.9871 69.7164 89.5283C69.7578 91.0696 69.1073 92.5114 67.7649 93.8538L64.4897 97.129L55.5218 88.1611ZM58.48 87.9125L64.7383 94.1708L66.2423 92.6668C67.1455 91.7636 67.5681 90.8024 67.5101 89.7831C67.4521 88.7639 66.9135 87.7447 65.8943 86.7255C64.8916 85.7228 63.8807 85.1966 62.8615 85.1469C61.8381 85.093 60.8789 85.5136 59.984 86.4085L58.48 87.9125Z" fill="#919EAC"/>
<path d="M138.927 106.756L142.414 103.269C143.309 102.374 144.313 101.925 145.428 101.921C146.538 101.912 147.541 102.356 148.436 103.251C149.327 104.141 149.762 105.152 149.741 106.283C149.724 107.41 149.26 108.43 148.349 109.341L146.534 111.156L149.498 114.12L147.895 115.724L138.927 106.756ZM141.842 106.464L145.241 109.863L146.696 108.409C147.271 107.833 147.57 107.236 147.591 106.619C147.611 106.002 147.35 105.422 146.807 104.879C146.269 104.34 145.693 104.083 145.08 104.108C144.471 104.129 143.878 104.427 143.302 105.003L141.842 106.464ZM160.654 102.965L157.571 101.411L154.271 104.711L155.825 107.794L154.172 109.447L148.386 97.2968L150.195 95.4883L162.344 101.274L160.654 102.965ZM150.835 98.0178L153.408 103.101L155.956 100.553L150.878 97.9743L150.835 98.0178ZM164.911 98.7076L163.308 100.311L154.34 91.3431L155.943 89.7396L164.911 98.7076ZM157.522 88.1611L160.797 84.8859C162.139 83.5435 163.575 82.8868 165.104 82.9158C166.633 82.9448 168.106 83.6678 169.523 85.0848C170.944 86.5059 171.675 87.9871 171.716 89.5283C171.758 91.0696 171.107 92.5114 169.765 93.8538L166.49 97.129L157.522 88.1611ZM160.48 87.9125L166.738 94.1708L168.242 92.6668C169.146 91.7636 169.568 90.8024 169.51 89.7831C169.452 88.7639 168.914 87.7447 167.894 86.7255C166.892 85.7228 165.881 85.1966 164.861 85.1469C163.838 85.093 162.879 85.5136 161.984 86.4085L160.48 87.9125Z" fill="#919EAC"/>
</svg>
