<svg width="15" height="16" viewBox="0 0 15 16" fill="none" xmlns="http://www.w3.org/2000/svg">
<path d="M11.3889 11.8889H12.9444C13.357 11.8889 13.7527 11.725 14.0444 11.4333C14.3361 11.1416 14.5 10.7459 14.5 10.3333V7.22222C14.5 6.80966 14.3361 6.414 14.0444 6.12228C13.7527 5.83056 13.357 5.66667 12.9444 5.66667H2.05556C1.643 5.66667 1.24733 5.83056 0.955612 6.12228C0.663888 6.414 0.5 6.80966 0.5 7.22222V10.3333C0.5 10.7459 0.663888 11.1416 0.955612 11.4333C1.24733 11.725 1.643 11.8889 2.05556 11.8889H3.61111M5.16667 15H9.83333C10.2459 15 10.6416 14.8361 10.9333 14.5444C11.225 14.2527 11.3889 13.857 11.3889 13.4444V10.3333C11.3889 9.92077 11.225 9.52511 10.9333 9.23339C10.6416 8.94167 10.2459 8.77778 9.83333 8.77778H5.16667C4.75411 8.77778 4.35845 8.94167 4.06672 9.23339C3.775 9.52511 3.61111 9.92077 3.61111 10.3333V13.4444C3.61111 13.857 3.775 14.2527 4.06672 14.5444C4.35845 14.8361 4.75411 15 5.16667 15ZM11.3889 5.66667V2.55556C11.3889 2.143 11.225 1.74733 10.9333 1.45561C10.6416 1.16389 10.2459 1 9.83333 1H5.16667C4.75411 1 4.35845 1.16389 4.06672 1.45561C3.775 1.74733 3.61111 2.143 3.61111 2.55556V5.66667H11.3889Z" stroke="#007AFF" stroke-linecap="round" stroke-linejoin="round"/>
</svg>
