<svg width="24" height="24" viewBox="0 0 24 24" fill="none" xmlns="http://www.w3.org/2000/svg">
<path d="M12 12H9M12 9V12V9ZM12 12V15V12ZM12 12H15H12Z" stroke="#00C48C" stroke-linecap="round" stroke-linejoin="round"/>
<path fill-rule="evenodd" clip-rule="evenodd" d="M6.17971 8.11101C5.41054 9.26216 5 10.6155 5 12L4 12L5.5 14L7 12L6.00641 12C6.00641 10.8146 6.35793 9.65578 7.01651 8.67014C7.6751 7.6845 8.61117 6.91629 9.70635 6.46265C10.8015 6.00901 12.0066 5.89031 13.1693 6.12158C14.3319 6.35284 15.3999 6.92368 16.2381 7.76189C17.0763 8.60011 17.6472 9.66807 17.8784 10.8307C18.1097 11.9934 17.991 13.1985 17.5374 14.2937C17.0837 15.3888 16.3155 16.3249 15.3299 16.9835C14.3442 17.6421 13.1854 17.9936 12 17.9936L12 19C13.3845 19 14.7378 18.5895 15.889 17.8203C17.0401 17.0511 17.9373 15.9579 18.4672 14.6788C18.997 13.3997 19.1356 11.9922 18.8655 10.6344C18.5954 9.27651 17.9287 8.02922 16.9497 7.05026C15.9708 6.07129 14.7235 5.4046 13.3656 5.13451C12.0078 4.86441 10.6003 5.00303 9.32122 5.53285C8.04213 6.06266 6.94888 6.95987 6.17971 8.11101Z" fill="#00C48C"/>
</svg>
