<svg width="14" height="11" viewBox="0 0 14 11" fill="none" xmlns="http://www.w3.org/2000/svg">
<g clip-path="url(#clip0)">
<path d="M1.9167 10.5417C1.53164 10.5417 1.16236 10.3899 0.890081 10.1198C0.617806 9.84961 0.464844 9.48322 0.464844 9.10118V1.8988C0.464844 1.51677 0.617806 1.15038 0.890081 0.880234C1.16236 0.610092 1.53164 0.458328 1.9167 0.458328H4.8204L6.27225 1.8988H9.17595C9.56101 1.8988 9.93029 2.05057 10.2026 2.32071C10.4748 2.59085 10.6278 2.95724 10.6278 3.33928V4.05952M1.9167 10.5417H12.0797C12.4647 10.5417 12.834 10.3899 13.1063 10.1198C13.3785 9.84961 13.5315 9.48322 13.5315 9.10118V5.49999C13.5315 5.11796 13.3785 4.75157 13.1063 4.48142C12.834 4.21128 12.4647 4.05952 12.0797 4.05952H4.8204C4.43534 4.05952 4.06606 4.21128 3.79378 4.48142C3.52151 4.75157 3.36855 5.11796 3.36855 5.49999V9.10118C3.36855 9.48322 3.21558 9.84961 2.94331 10.1198C2.67103 10.3899 2.30175 10.5417 1.9167 10.5417Z" stroke="#919EAC" stroke-linecap="round" stroke-linejoin="round"/>
</g>
<defs>
<clipPath id="clip0">
<rect width="14" height="11" fill="white"/>
</clipPath>
</defs>
</svg>
