<svg width="24" height="24" viewBox="0 0 24 24" fill="none" xmlns="http://www.w3.org/2000/svg">
<path d="M5.16549 18.8557C5.52482 19.2751 6.15611 19.3238 6.57551 18.9645C6.99491 18.6051 7.0436 17.9738 6.68427 17.5544L5.16549 18.8557ZM4.08159 14.1396L5.07139 13.9972L4.08159 14.1396ZM4.7036 9.71936L5.61565 10.1294H5.61565L4.7036 9.71936ZM7.59726 6.32049L8.1476 7.15543L7.59726 6.32049ZM11.8617 5.0012L11.8789 6.00105L11.8617 5.0012ZM16.1691 6.17223L15.648 7.0257L16.1691 6.17223ZM19.1786 9.469L20.0759 9.02763V9.02763L19.1786 9.469ZM19.9531 13.8651L18.9589 13.757V13.757L19.9531 13.8651ZM17.4701 17.3679C17.1254 17.7995 17.1959 18.4287 17.6275 18.7733C18.0591 19.1179 18.6883 19.0474 19.0329 18.6159L17.4701 17.3679ZM6.68427 17.5544C5.82002 16.5457 5.26062 15.3119 5.07139 13.9972L3.09179 14.2821C3.33508 15.9725 4.05431 17.5588 5.16549 18.8557L6.68427 17.5544ZM5.07139 13.9972C4.88217 12.6824 5.07094 11.3409 5.61565 10.1294L3.79155 9.30929C3.09121 10.8669 2.8485 12.5917 3.09179 14.2821L5.07139 13.9972ZM5.61565 10.1294C6.16037 8.91795 7.03854 7.88646 8.1476 7.15543L7.04692 5.48555C5.62098 6.42545 4.4919 7.75166 3.79155 9.30929L5.61565 10.1294ZM8.1476 7.15543C9.25666 6.4244 10.5508 6.02402 11.8789 6.00105L11.8444 4.00135C10.1368 4.03088 8.47285 4.54566 7.04692 5.48555L8.1476 7.15543ZM11.8789 6.00105C13.2071 5.97808 14.5143 6.33346 15.648 7.0257L16.6903 5.31876C15.2327 4.42874 13.5519 3.97181 11.8444 4.00135L11.8789 6.00105ZM15.648 7.0257C16.7817 7.71794 17.695 8.71845 18.2813 9.91038L20.0759 9.02763C19.3221 7.49515 18.1478 6.20878 16.6903 5.31876L15.648 7.0257ZM18.2813 9.91037C18.8675 11.1023 19.1026 12.4364 18.9589 13.757L20.9472 13.9732C21.1319 12.2754 20.8297 10.5601 20.0759 9.02763L18.2813 9.91037ZM18.9589 13.757C18.8153 15.0775 18.2989 16.3299 17.4701 17.3679L19.0329 18.6159C20.0986 17.2813 20.7625 15.6711 20.9472 13.9732L18.9589 13.757Z" fill="#007AFF"/>
<path d="M12.6666 18.0001L8 12" stroke="#007AFF" stroke-width="2" stroke-linecap="round"/>
</svg>
