<svg width="500" height="290" viewBox="0 0 500 290" fill="none" xmlns="http://www.w3.org/2000/svg">
<g clip-path="url(#clip0)">
<path d="M473.617 174.81C455.946 220.579 422.724 260.678 376.579 278.301C370.577 280.589 364.448 282.531 358.224 284.115C325.301 292.513 289.283 289.592 258.934 274.291C246.054 267.792 234.308 259.204 221.381 252.799C208.454 246.393 193.691 242.2 179.621 245.362C167.506 248.085 157.285 255.887 146.994 262.837C122.733 279.223 93.5624 292.19 64.8347 286.562C51.6158 283.975 38.5991 276.811 32.4601 264.836C18.8913 238.361 44.4815 206.885 39.299 177.606C35.9826 158.867 20.8353 144.835 11.4188 128.297C-4.69656 100.01 -2.79149 62.4354 16.1037 35.9296C34.9989 9.42385 69.8812 -4.63608 101.863 1.37683C140.863 8.7121 170.349 41.7286 208.271 53.4122C231.987 60.7124 257.737 58.5344 280.388 48.92C316.985 33.3821 367.263 9.5522 408.448 13.4337C430.348 15.499 451.829 25.2223 466.284 41.8258C484.557 62.7854 490.035 92.5427 486.987 120.18C484.895 138.889 480.401 157.25 473.617 174.81Z" fill="url(#paint0_linear)"/>
<path d="M485.374 211.012C484.562 211.011 483.752 210.913 482.963 210.72C480.468 210.106 478.301 208.563 476.905 206.405C475.508 204.248 474.988 201.638 475.45 199.109C475.912 196.581 477.321 194.324 479.39 192.8C481.459 191.275 484.031 190.598 486.582 190.907C489.133 191.216 491.47 192.487 493.116 194.461C494.761 196.434 495.592 198.962 495.438 201.528C495.284 204.094 494.156 206.504 492.286 208.267C490.416 210.029 487.943 211.011 485.374 211.012ZM485.374 195.384C484.037 195.389 482.748 195.883 481.75 196.773C480.752 197.662 480.114 198.886 479.955 200.214C479.797 201.542 480.129 202.881 480.889 203.981C481.649 205.081 482.785 205.865 484.083 206.185C484.834 206.366 485.615 206.385 486.375 206.242C487.134 206.099 487.855 205.797 488.489 205.355C489.123 204.914 489.657 204.343 490.055 203.68C490.453 203.018 490.706 202.278 490.798 201.511C490.89 200.743 490.818 199.965 490.587 199.227C490.357 198.489 489.973 197.808 489.46 197.23C488.948 196.651 488.319 196.187 487.615 195.869C486.91 195.551 486.147 195.386 485.374 195.384Z" fill="#DFEEFF"/>
<path d="M476.169 221.711C476.743 219.346 475.291 216.964 472.926 216.39C470.562 215.817 468.181 217.269 467.607 219.635C467.034 222 468.486 224.382 470.85 224.955C473.215 225.529 475.596 224.077 476.169 221.711Z" fill="#DFEEFF"/>
<path d="M21.4573 210.051C18.7869 209.993 16.2473 208.883 14.3898 206.963C12.5323 205.043 11.5068 202.467 11.536 199.795C11.5652 197.123 12.6467 194.571 14.5457 192.692C16.4447 190.813 19.0079 189.759 21.6789 189.759C24.35 189.759 26.9132 190.813 28.8122 192.692C30.7112 194.571 31.7927 197.123 31.8219 199.795C31.8511 202.467 30.8256 205.043 28.9681 206.963C27.1106 208.883 24.571 209.993 21.9006 210.051H21.4573ZM21.4573 194.428H21.2279C19.7857 194.459 18.414 195.058 17.4106 196.095C16.4072 197.132 15.8532 198.523 15.8688 199.966C15.8844 201.409 16.4684 202.787 17.494 203.802C18.5196 204.817 19.9039 205.386 21.3465 205.386C22.7891 205.386 24.1735 204.817 25.1991 203.802C26.2247 202.787 26.8086 201.409 26.8243 199.966C26.8399 198.523 26.2859 197.132 25.2825 196.095C24.2791 195.058 22.9074 194.459 21.4651 194.428H21.4573Z" fill="#DFEEFF"/>
<path d="M14.2257 227.08C16.6562 226.975 18.5416 224.919 18.4367 222.487C18.3319 220.056 16.2765 218.17 13.846 218.275C11.4154 218.379 9.53006 220.435 9.63491 222.867C9.73975 225.298 11.7951 227.184 14.2257 227.08Z" fill="#DFEEFF"/>
<path d="M275.684 45.9952C273.263 45.9973 270.922 45.1326 269.084 43.5574C267.245 41.9822 266.031 39.8007 265.662 37.4077C265.292 35.0147 265.791 32.5684 267.068 30.5115C268.345 28.4546 270.316 26.9231 272.625 26.1942C274.933 25.4652 277.426 25.587 279.652 26.5375C281.878 27.488 283.691 29.2044 284.761 31.376C285.832 33.5476 286.09 36.0309 285.489 38.3765C284.888 40.722 283.467 42.7748 281.484 44.1633C279.784 45.3537 277.759 45.9931 275.684 45.9952ZM275.653 30.3756C274.236 30.3742 272.874 30.9195 271.85 31.8981C270.826 32.8766 270.219 34.2128 270.155 35.6281C270.091 37.0435 270.576 38.4288 271.508 39.4953C272.441 40.5618 273.748 41.2273 275.159 41.353C276.57 41.4787 277.975 41.0549 279.081 40.17C280.187 39.2851 280.909 38.0073 281.096 36.603C281.283 35.1987 280.922 33.7762 280.087 32.632C279.251 31.4878 278.007 30.7102 276.613 30.4612C276.296 30.4047 275.975 30.376 275.653 30.3756Z" fill="#DFEEFF"/>
<path d="M255.002 45.4406C256.994 44.0433 257.476 41.2953 256.079 39.3027C254.682 37.3101 251.935 36.8275 249.944 38.2248C247.952 39.6221 247.469 42.3702 248.866 44.3628C250.263 46.3554 253.01 46.8379 255.002 45.4406Z" fill="#DFEEFF"/>
<path d="M499.985 98.2678C499.985 93.9911 498.286 89.8896 495.263 86.8656C492.24 83.8415 488.14 82.1426 483.865 82.1426C483.508 82.1426 483.154 82.1426 482.804 82.1776C482.827 81.8276 482.839 81.4737 482.839 81.1159C482.838 78.824 482.35 76.5586 481.405 74.4706C480.461 72.3827 479.082 70.5201 477.361 69.0071C475.64 67.4941 473.617 66.3654 471.426 65.6963C469.234 65.0272 466.926 64.8331 464.654 65.1268C462.382 65.4206 460.198 66.1954 458.249 67.3998C456.3 68.6041 454.63 70.2103 453.35 72.1112C452.07 74.0121 451.21 76.1641 450.827 78.4237C450.444 80.6833 450.547 82.9985 451.129 85.2152C449.181 83.8019 446.941 82.8428 444.574 82.4085C442.207 81.9741 439.773 82.0755 437.45 82.7051C435.127 83.3347 432.975 84.4766 431.151 86.047C429.327 87.6174 427.878 89.5765 426.909 91.7804C425.941 93.9843 425.478 96.3771 425.555 98.7833C425.632 101.19 426.246 103.548 427.353 105.686C428.46 107.823 430.031 109.686 431.951 111.137C433.872 112.588 436.093 113.59 438.451 114.07C439.414 116.625 441.009 118.893 443.087 120.662C445.166 122.431 447.659 123.643 450.334 124.185C453.009 124.727 455.777 124.581 458.38 123.76C460.983 122.939 463.335 121.47 465.215 119.492C467.139 120.945 469.364 121.947 471.727 122.426C474.09 122.905 476.53 122.847 478.867 122.257C481.205 121.668 483.38 120.561 485.234 119.019C487.087 117.477 488.571 115.539 489.577 113.347C492.636 112.187 495.27 110.123 497.129 107.429C498.988 104.736 499.984 101.541 499.985 98.2678Z" fill="#FBFDFF"/>
<path d="M74.434 59.5067C74.4361 57.3882 74.0208 55.29 73.2119 53.332C72.4029 51.3741 71.2163 49.5948 69.7197 48.0958C68.2231 46.5969 66.4459 45.4077 64.4896 44.5961C62.5334 43.7845 60.4364 43.3665 58.3187 43.366C57.961 43.366 57.6072 43.366 57.2573 43.401C57.2806 43.051 57.2923 42.6971 57.2923 42.3392C57.2918 40.0474 56.803 37.782 55.8584 35.694C54.9139 33.606 53.5352 31.7435 51.8144 30.2305C50.0936 28.7175 48.0702 27.5888 45.879 26.9197C43.6878 26.2506 41.3792 26.0565 39.1071 26.3502C36.835 26.6439 34.6516 27.4188 32.7024 28.6232C30.7532 29.8275 29.0831 31.4337 27.8033 33.3346C26.5235 35.2355 25.6635 37.3875 25.2805 39.6471C24.8976 41.9066 25.0005 44.2219 25.5825 46.4386C23.6343 45.0253 21.3946 44.0662 19.0275 43.6319C16.6605 43.1975 14.2263 43.2989 11.9035 43.9285C9.58074 44.5581 7.42837 45.7 5.60435 47.2704C3.78034 48.8408 2.33096 50.7999 1.3626 53.0038C0.39423 55.2077 -0.0685556 57.6005 0.0082022 60.0067C0.08496 62.4129 0.699313 64.7714 1.80618 66.909C2.91304 69.0467 4.48432 70.9093 6.40472 72.3602C8.32511 73.811 10.5459 74.8133 12.9041 75.2935C13.8678 77.8457 15.463 80.1116 17.5406 81.879C19.6181 83.6465 22.1099 84.8577 24.7828 85.3994C27.4557 85.9411 30.2223 85.7955 32.8237 84.9763C35.425 84.1571 37.776 82.691 39.6567 80.7153C41.5808 82.1681 43.8061 83.1708 46.1689 83.6494C48.5316 84.128 50.9715 84.0703 53.3091 83.4807C55.6466 82.8911 57.8221 81.7844 59.6755 80.2423C61.5289 78.7002 63.0129 76.7619 64.0183 74.5701C67.0766 73.4121 69.7107 71.3512 71.5709 68.6609C73.4312 65.9706 74.4297 62.778 74.434 59.5067Z" fill="#FBFDFF"/>
<path d="M370.976 288.95H139.063V283.894H370.976C371.646 283.894 372.289 284.16 372.763 284.634C373.237 285.108 373.503 285.751 373.503 286.422C373.503 287.092 373.237 287.735 372.763 288.209C372.289 288.684 371.646 288.95 370.976 288.95Z" fill="#091C31"/>
<path d="M128.69 288.95H114.511C113.84 288.95 113.198 288.684 112.724 288.209C112.25 287.735 111.983 287.092 111.983 286.422C111.983 285.751 112.25 285.108 112.724 284.634C113.198 284.16 113.84 283.894 114.511 283.894H128.69C129.36 283.894 130.003 284.16 130.477 284.634C130.951 285.108 131.217 285.751 131.217 286.422C131.217 287.092 130.951 287.735 130.477 288.209C130.003 288.684 129.36 288.95 128.69 288.95Z" fill="#091C31"/>
<path d="M105.308 288.95H100.79C100.12 288.95 99.477 288.684 99.0031 288.209C98.5292 287.735 98.2629 287.092 98.2629 286.422C98.2629 285.751 98.5292 285.108 99.0031 284.634C99.477 284.16 100.12 283.894 100.79 283.894H105.308C105.978 283.894 106.621 284.16 107.095 284.634C107.569 285.108 107.835 285.751 107.835 286.422C107.835 287.092 107.569 287.735 107.095 288.209C106.621 288.684 105.978 288.95 105.308 288.95Z" fill="#091C31"/>
<path d="M452.295 288.95H383.543C382.147 288.95 381.015 287.818 381.015 286.422C381.015 285.026 382.146 283.894 383.543 283.894H452.295C452.966 283.894 453.608 284.16 454.082 284.634C454.556 285.108 454.823 285.751 454.823 286.422C454.823 287.092 454.556 287.735 454.082 288.209C453.608 288.684 452.966 288.95 452.295 288.95Z" fill="#091C31"/>
<path d="M87.8668 288.95H19.1101C17.7139 288.95 16.582 287.818 16.582 286.422C16.582 285.026 17.7139 283.894 19.1101 283.894H87.8668C88.537 283.894 89.1798 284.16 89.6537 284.634C90.1276 285.108 90.3939 285.751 90.3939 286.422C90.3939 287.092 90.1276 287.735 89.6537 288.209C89.1798 288.684 88.537 288.95 87.8668 288.95Z" fill="#091C31"/>
<path d="M110.455 91.617H370.097C374.784 91.617 379.278 93.4787 382.592 96.7929C385.907 100.107 387.77 104.602 387.772 109.29V277.41H92.781V109.29C92.7831 104.602 94.6461 100.107 97.9605 96.7929C101.275 93.4787 105.769 91.617 110.455 91.617Z" fill="#DFEEFF"/>
<path d="M377.519 104.51H104.204V260.706H377.519V104.51Z" fill="#919EAC"/>
<path d="M102.155 260.414H378.682C378.682 261.654 378.191 262.843 377.317 263.722C376.443 264.601 375.256 265.098 374.016 265.104H106.84C105.596 265.104 104.404 264.61 103.524 263.731C102.645 262.851 102.151 261.658 102.151 260.414H102.155Z" fill="#FBFDFF"/>
<g opacity="0.5">
<path opacity="0.5" d="M185.877 103.927L145.011 261.585H124.432L165.298 103.927H185.877Z" fill="#091C31"/>
<path opacity="0.5" d="M238.328 103.927L197.467 261.585H154.311L195.177 103.927H238.328Z" fill="#091C31"/>
</g>
<path d="M390.105 279.744H90.4482V101.753C90.4524 98.4468 91.7669 95.2776 94.1036 92.9401C96.4403 90.6026 99.6083 89.2875 102.913 89.2834H377.64C380.944 89.2875 384.112 90.6026 386.449 92.9401C388.786 95.2776 390.1 98.4468 390.105 101.753V279.744ZM95.1137 275.077H385.439V101.753C385.437 99.684 384.615 97.7007 383.152 96.238C381.69 94.7753 379.708 93.9527 377.64 93.9506H102.913C100.845 93.9527 98.8625 94.7753 97.4003 96.238C95.9381 97.7007 95.1158 99.684 95.1137 101.753V275.077Z" fill="#091C31"/>
<path d="M55.5776 271.845H432.887V273.085C432.887 277.108 431.289 280.966 428.446 283.811C425.602 286.656 421.746 288.254 417.724 288.254H70.7405C66.719 288.254 62.8623 286.656 60.0187 283.811C57.1751 280.966 55.5776 277.108 55.5776 273.085V271.845Z" fill="#DFEEFF"/>
<path opacity="0.5" d="M430.955 279.755C430.125 281.913 428.661 283.769 426.756 285.077C424.851 286.385 422.593 287.085 420.283 287.083H65.8301C63.5204 287.083 61.2651 286.383 59.3613 285.075C57.4575 283.767 55.9946 281.912 55.1655 279.755H430.955Z" fill="#A7B1BD"/>
<path d="M415.963 290H68.9831C64.3446 289.995 59.8975 288.149 56.6176 284.868C53.3376 281.587 51.4927 277.138 51.4875 272.498V268.924H433.462V272.498C433.457 277.139 431.612 281.588 428.331 284.869C425.05 288.151 420.602 289.996 415.963 290ZM56.1958 273.591C56.4694 276.794 57.9347 279.778 60.3019 281.952C62.669 284.126 65.7656 285.333 68.9792 285.333H415.963C419.177 285.333 422.273 284.126 424.64 281.952C427.008 279.778 428.473 276.794 428.746 273.591H56.1958Z" fill="#091C31"/>
<path d="M379.265 262.16H101.28V102.177H379.265V262.16ZM105.946 257.493H374.6V106.844H105.946V257.493Z" fill="#091C31"/>
<path d="M335.74 54.3689V259.827H149.428V54.3689C149.435 53.4427 149.806 52.5565 150.46 51.9016C151.115 51.2467 152.001 50.8756 152.927 50.8685H332.225C332.437 50.8686 332.647 50.8882 332.855 50.9268C333.661 51.0759 334.39 51.5011 334.916 52.1292C335.442 52.7573 335.734 53.5492 335.74 54.3689Z" fill="#FBFDFF"/>
<path d="M152.359 67.8493H336.327V55.489L332.809 50.853H171.694H155.874L150.015 55.489V67.8493H152.359Z" fill="#DFEEFF"/>
<path d="M338.66 262.16H147.682V54.3689C147.688 52.8235 148.305 51.3432 149.397 50.2504C150.489 49.1577 151.969 48.5411 153.514 48.5349H332.805C334.349 48.5411 335.829 49.1577 336.922 50.2504C338.014 51.3432 338.63 52.8235 338.636 54.3689L338.66 262.16ZM152.348 257.493H333.994V54.3689C333.986 54.0619 333.861 53.7697 333.644 53.5526C333.427 53.3354 333.135 53.21 332.828 53.2021H153.53C153.223 53.21 152.931 53.3354 152.714 53.5526C152.496 53.7697 152.371 54.0619 152.363 54.3689L152.348 257.493Z" fill="#091C31"/>
<path d="M324.865 58.056H160.975C159.68 58.056 158.63 59.106 158.63 60.4013C158.63 61.6965 159.68 62.7465 160.975 62.7465H324.865C326.16 62.7465 327.21 61.6965 327.21 60.4013C327.21 59.106 326.16 58.056 324.865 58.056Z" fill="#DFEEFF"/>
<path opacity="0.6" d="M202.767 89.859H180.46C176.041 89.859 172.46 93.4408 172.46 97.859V125.525C172.46 129.943 176.041 133.525 180.46 133.525H202.767C207.186 133.525 210.767 129.943 210.767 125.525V97.859C210.767 93.4408 207.186 89.859 202.767 89.859Z" fill="#FF003A"/>
<path opacity="0.6" d="M297.216 89.859H222.383C217.965 89.859 214.383 93.4408 214.383 97.859V125.525C214.383 129.943 217.965 133.525 222.383 133.525H297.216C301.634 133.525 305.216 129.943 305.216 125.525V97.859C305.216 93.4408 301.634 89.859 297.216 89.859Z" fill="#FF003A"/>
<path d="M297.216 138.359H270.329C265.91 138.359 262.329 141.941 262.329 146.359V174.024C262.329 178.443 265.91 182.024 270.329 182.024H297.216C301.634 182.024 305.216 178.443 305.216 174.024V146.359C305.216 141.941 301.634 138.359 297.216 138.359Z" fill="#D3D8DE"/>
<path d="M250.713 138.359H180.942C176.524 138.359 172.942 141.941 172.942 146.359V174.024C172.942 178.443 176.524 182.024 180.942 182.024H250.713C255.131 182.024 258.713 178.443 258.713 174.024V146.359C258.713 141.941 255.131 138.359 250.713 138.359Z" fill="#D3D8DE"/>
<path d="M297.457 186.859H180.942C176.524 186.859 172.942 190.441 172.942 194.859V222.524C172.942 226.943 176.524 230.524 180.942 230.524H297.457C301.875 230.524 305.457 226.943 305.457 222.524V194.859C305.457 190.441 301.875 186.859 297.457 186.859Z" fill="#D3D8DE"/>
<path d="M304.294 236.393H274.981C273.692 236.393 272.647 237.438 272.647 238.727C272.647 240.016 273.692 241.061 274.981 241.061H304.294C305.583 241.061 306.627 240.016 306.627 238.727C306.627 237.438 305.583 236.393 304.294 236.393Z" fill="#D3D8DE"/>
<path d="M121 248.699H65.3792C64.4634 248.706 63.5608 248.481 62.7549 248.046C61.5885 247.408 60.842 246.362 60.842 245.183L60.8731 168.696C60.8739 168.195 61.0081 167.704 61.2619 167.272C61.9695 166.043 63.5675 165.18 65.4103 165.18H121.031C122.975 165.18 124.611 166.121 125.265 167.436C125.462 167.825 125.566 168.255 125.568 168.692L125.541 245.183C125.541 246.949 123.834 248.423 121.629 248.664C121.42 248.688 121.21 248.7 121 248.699Z" fill="#FBFDFF"/>
<path d="M122.512 248.112L66.8721 248.1C65.9563 248.107 65.0537 247.882 64.2478 247.447C63.0814 246.809 62.335 245.763 62.335 244.584L62.3661 168.097C62.3669 167.596 62.5011 167.105 62.7549 166.673C63.4625 165.444 65.0604 164.581 66.9032 164.581H67.6614L67.6497 239.894C67.6497 241.061 68.404 242.118 69.5626 242.756C70.3685 243.192 71.2711 243.416 72.1869 243.41H127.053V244.577C127.053 246.342 125.346 247.816 123.142 248.057C122.933 248.088 122.723 248.106 122.512 248.112Z" fill="#E9ECEE"/>
<path d="M121.754 250.446H66.1295C64.8179 250.452 63.5259 250.127 62.3738 249.5C60.4298 248.423 59.2634 246.587 59.2634 244.596L59.2945 168.108C59.2992 167.196 59.5447 166.301 60.006 165.514C61.1724 163.511 63.5051 162.263 66.1683 162.263H121.789C124.51 162.263 126.94 163.605 128.044 165.689L128.355 166.168V166.385C128.557 166.94 128.659 167.526 128.659 168.116L128.628 244.604C128.628 247.536 126.05 250.049 122.636 250.403C122.343 250.434 122.048 250.448 121.754 250.446ZM66.1567 166.911C65.1108 166.911 64.2944 167.373 64.0339 167.832C63.9829 167.91 63.9546 168 63.9522 168.093L63.9211 244.58C63.9211 244.837 64.205 245.164 64.6287 245.401C65.0909 245.646 65.6066 245.771 66.1295 245.767H121.75C121.872 245.767 121.994 245.761 122.115 245.747C123.282 245.623 123.958 244.969 123.958 244.58L123.989 168.093C123.989 168.047 123.981 168 123.966 167.957L123.748 167.622C123.211 167.137 122.504 166.882 121.781 166.911H66.1606H66.1567Z" fill="#091C31"/>
<path d="M113.005 198.278H79.9518C78.663 198.278 77.6182 199.323 77.6182 200.612C77.6182 201.9 78.663 202.945 79.9518 202.945H113.005C114.294 202.945 115.339 201.9 115.339 200.612C115.339 199.323 114.294 198.278 113.005 198.278Z" fill="#091C31"/>
<path d="M113.005 188.539H79.9518C78.6629 188.539 77.6182 189.584 77.6182 190.873C77.6182 192.162 78.6629 193.206 79.9518 193.206H113.005C114.294 193.206 115.339 192.162 115.339 190.873C115.339 189.584 114.294 188.539 113.005 188.539Z" fill="#091C31"/>
<path d="M113.005 209.312H79.9518C78.663 209.312 77.6182 210.357 77.6182 211.646C77.6182 212.934 78.6629 213.979 79.9518 213.979H113.005C114.294 213.979 115.339 212.934 115.339 211.646C115.339 210.357 114.294 209.312 113.005 209.312Z" fill="#091C31"/>
<path opacity="0.2" d="M416.784 110.457C419.501 105.355 421.169 99.7593 421.69 94.0015C422.211 88.2436 421.573 82.4398 419.815 76.9324C418.057 71.425 415.215 66.3256 411.455 61.9351C407.695 57.5446 403.094 53.9519 397.923 51.3691C392.753 48.7863 387.118 47.2657 381.35 46.8969C375.583 46.5282 369.8 47.3188 364.343 49.2221C358.885 51.1254 353.865 54.1028 349.577 57.9787C345.288 61.8546 341.82 66.5505 339.375 71.7892C336 78.1307 334.254 85.2129 334.297 92.3975C334.339 99.582 336.168 106.643 339.618 112.944C343.069 119.245 348.033 124.589 354.062 128.492C360.091 132.396 366.997 134.738 374.157 135.306C372.907 135.601 371.638 135.841 370.35 136.025C377.128 137.003 384.04 136.358 390.52 134.143C397 131.928 402.861 128.206 407.624 123.284C411.434 119.604 414.539 115.256 416.784 110.457Z" fill="#091C31"/>
<path d="M372.757 125.197C396.655 125.197 416.029 105.817 416.029 81.9092C416.029 58.0018 396.655 38.621 372.757 38.621C348.858 38.621 329.484 58.0018 329.484 81.9092C329.484 105.817 348.858 125.197 372.757 125.197Z" fill="#00C48C"/>
<path opacity="0.2" d="M413.965 85.0013C413.964 91.2077 412.628 97.3413 410.05 102.986C407.471 108.631 403.709 113.656 399.019 117.719C394.33 121.782 388.821 124.789 382.868 126.535C376.914 128.282 370.655 128.728 364.514 127.842C374.811 126.353 384.227 121.203 391.037 113.335C397.847 105.466 401.596 95.407 401.596 84.9993C401.596 74.5916 397.847 64.5323 391.037 56.664C384.227 48.7958 374.811 43.6454 364.514 42.1564C370.656 41.2703 376.916 41.7157 382.87 43.4623C388.824 45.209 394.333 48.216 399.024 52.2796C403.714 56.3431 407.476 61.3682 410.055 67.0139C412.633 72.6597 413.968 78.7941 413.969 85.0013H413.965Z" fill="#091C31"/>
<path d="M371.726 129.589C362.707 129.589 353.889 126.913 346.39 121.9C338.89 116.887 333.045 109.762 329.593 101.425C326.141 93.0892 325.238 83.9161 326.998 75.0664C328.757 66.2166 333.101 58.0876 339.479 51.7072C345.857 45.3269 353.983 40.9818 362.829 39.2215C371.676 37.4612 380.846 38.3646 389.179 41.8177C397.512 45.2707 404.635 51.1181 409.646 58.6206C414.657 66.1231 417.332 74.9436 417.332 83.9667C417.318 96.0623 412.509 107.659 403.959 116.211C395.41 124.764 383.818 129.575 371.726 129.589ZM371.726 43.016C363.629 43.016 355.714 45.4179 348.982 49.9181C342.249 54.4182 337.002 60.8145 333.903 68.298C330.805 75.7814 329.994 84.016 331.573 91.9605C333.153 99.9049 337.052 107.202 342.778 112.93C348.503 118.658 355.798 122.558 363.74 124.138C371.681 125.719 379.913 124.908 387.393 121.808C394.874 118.708 401.268 113.459 405.766 106.724C410.265 99.9888 412.666 92.0707 412.666 83.9706C412.655 73.1122 408.338 62.7019 400.663 55.0238C392.987 47.3458 382.581 43.0273 371.726 43.016Z" fill="#091C31"/>
<path d="M393.584 66.2664C392.651 65.7445 391.552 65.6045 390.517 65.8757C389.483 66.1469 388.594 66.8082 388.036 67.721L380.544 79.9724L368.573 99.5279L368.239 100.076L354.417 89.0151L351.898 87.0004C350.246 85.678 347.754 85.2619 346.163 87.0004C344.81 88.4744 344.394 91.3214 346.163 92.7371L363.935 106.957L366.454 108.971C367.5 109.811 368.496 110.27 369.86 110.087C370.47 110.012 371.054 109.798 371.568 109.461C372.082 109.124 372.511 108.673 372.823 108.143L380.315 95.8914L392.29 76.3397L395.054 71.8203C396.146 70.0079 395.493 67.2854 393.584 66.2664Z" fill="#FBFDFF"/>
</g>
<defs>
<linearGradient id="paint0_linear" x1="0.513229" y1="144.368" x2="487.776" y2="144.368" gradientUnits="userSpaceOnUse">
<stop stop-color="#BFDEFF"/>
<stop offset="1" stop-color="#51FFCD" stop-opacity="0.48"/>
</linearGradient>
<clipPath id="clip0">
<rect width="500" height="290" fill="white"/>
</clipPath>
</defs>
</svg>
