<svg width="80" height="80" viewBox="0 0 80 80" fill="none" xmlns="http://www.w3.org/2000/svg">
<path fill-rule="evenodd" clip-rule="evenodd" d="M18.6667 76.2667H61.3333C65.1625 76.2667 68.2667 73.1625 68.2667 69.3333V29.1244L46.2936 3.73333H18.6667C14.8375 3.73333 11.7333 6.83749 11.7333 10.6667V69.3333C11.7333 73.1625 14.8375 76.2667 18.6667 76.2667ZM48 0H18.6667C12.7756 0 8 4.77563 8 10.6667V69.3333C8 75.2244 12.7756 80 18.6667 80H61.3333C67.2244 80 72 75.2244 72 69.3333V27.7333L48 0Z" fill="#A7B1BD"/>
<path fill-rule="evenodd" clip-rule="evenodd" d="M29.0817 29.0801C29.8106 28.3511 30.9925 28.3511 31.7215 29.0801L50.5777 47.9362C51.3067 48.6652 51.3067 49.8471 50.5777 50.5761C49.8487 51.3051 48.6668 51.3051 47.9378 50.5761L29.0817 31.7199C28.3527 30.9909 28.3527 29.809 29.0817 29.0801Z" fill="#A7B1BD"/>
<path fill-rule="evenodd" clip-rule="evenodd" d="M29.0817 50.5761C28.3527 49.8471 28.3527 48.6652 29.0817 47.9362L47.9378 29.08C48.6668 28.351 49.8487 28.351 50.5777 29.08C51.3067 29.809 51.3067 30.9909 50.5777 31.7199L31.7215 50.5761C30.9925 51.305 29.8106 51.305 29.0817 50.5761Z" fill="#A7B1BD"/>
</svg>
