<svg width="80" height="80" viewBox="0 0 80 80" fill="none" xmlns="http://www.w3.org/2000/svg">
<path fill-rule="evenodd" clip-rule="evenodd" d="M18.6667 76.2667H61.3333C65.1625 76.2667 68.2667 73.1625 68.2667 69.3333V29.1244L46.2936 3.73333H18.6667C14.8375 3.73333 11.7333 6.83749 11.7333 10.6667V69.3333C11.7333 73.1625 14.8375 76.2667 18.6667 76.2667ZM48 0H18.6667C12.7756 0 8 4.77563 8 10.6667V69.3333C8 75.2244 12.7756 80 18.6667 80H61.3333C67.2244 80 72 75.2244 72 69.3333V27.7333L48 0Z" fill="#A7B1BD"/>
<path fill-rule="evenodd" clip-rule="evenodd" d="M54.654 29.6134C55.383 30.3424 55.383 31.5243 54.654 32.2533L36.8763 50.031C36.1473 50.76 34.9654 50.76 34.2364 50.031L25.3475 41.1421C24.6185 40.4132 24.6185 39.2313 25.3475 38.5023C26.0765 37.7733 27.2584 37.7733 27.9874 38.5023L35.5563 46.0712L52.0142 29.6134C52.7432 28.8844 53.9251 28.8844 54.654 29.6134Z" fill="#A7B1BD"/>
</svg>
