<svg width="80" height="80" viewBox="0 0 80 80" fill="none" xmlns="http://www.w3.org/2000/svg">
<path fill-rule="evenodd" clip-rule="evenodd" d="M18.6667 76.2667H61.3333C65.1625 76.2667 68.2667 73.1625 68.2667 69.3333V29.1244L46.2936 3.73333H18.6667C14.8375 3.73333 11.7333 6.83749 11.7333 10.6667V69.3333C11.7333 73.1625 14.8375 76.2667 18.6667 76.2667ZM48 0H18.6667C12.7756 0 8 4.77563 8 10.6667V69.3333C8 75.2244 12.7756 80 18.6667 80H61.3333C67.2244 80 72 75.2244 72 69.3333V27.7333L48 0Z" fill="#A7B1BD"/>
<path fill-rule="evenodd" clip-rule="evenodd" d="M38.1328 39.6304V27.9822C38.1328 26.9611 38.9685 26.1333 39.9995 26.1333C41.0304 26.1333 41.8661 26.9611 41.8661 27.9822V39.6304L45.3462 36.1834L46.1005 36.9305L45.3462 36.1834C46.0752 35.4614 47.2571 35.4614 47.9861 36.1834L47.0433 37.1173L47.9861 36.1834C48.7151 36.9055 48.7151 38.0761 47.9861 38.7981L47.2318 38.0511L47.9861 38.7982L41.3194 45.4013L40.4262 44.5166L41.3194 45.4013C40.5904 46.1234 39.4085 46.1234 38.6796 45.4013L39.5727 44.5166M39.5727 44.5166L38.6795 45.4013L32.0129 38.7982L32.7671 38.0511L32.0129 38.7982C31.2839 38.0761 31.2839 36.9055 32.0129 36.1834L32.9557 37.1173L32.0129 36.1834C32.7419 35.4614 33.9238 35.4614 34.6527 36.1834L33.8985 36.9305L34.6527 36.1834L38.1328 39.6304M26.1328 44.094C26.1328 43.0729 26.9685 42.2451 27.9995 42.2451C29.0304 42.2451 29.8661 43.0729 29.8661 44.094V49.3765C29.8661 49.5867 29.9504 49.7882 30.1005 49.9368C30.2505 50.0854 30.454 50.1689 30.6661 50.1689H49.3328C49.545 50.1689 49.7485 50.0854 49.8985 49.9368C50.0485 49.7882 50.1328 49.5867 50.1328 49.3765V44.094C50.1328 43.0729 50.9685 42.2451 51.9995 42.2451C53.0304 42.2451 53.8661 43.0729 53.8661 44.094V49.3765C53.8661 50.5674 53.3885 51.7095 52.5384 52.5515C51.6882 53.3936 50.5351 53.8667 49.3328 53.8667H30.6661C29.4638 53.8667 28.3108 53.3936 27.4606 52.5515C26.6104 51.7095 26.1328 50.5674 26.1328 49.3765V44.094Z" fill="#A7B1BD"/>
</svg>
