<svg width="80" height="80" viewBox="0 0 80 80" fill="none" xmlns="http://www.w3.org/2000/svg">
<path fill-rule="evenodd" clip-rule="evenodd" d="M18.6667 76.2667H61.3333C65.1625 76.2667 68.2667 73.1625 68.2667 69.3333V29.1244L46.2936 3.73333H18.6667C14.8375 3.73333 11.7333 6.83749 11.7333 10.6667V69.3333C11.7333 73.1625 14.8375 76.2667 18.6667 76.2667ZM48 0H18.6667C12.7756 0 8 4.77563 8 10.6667V69.3333C8 75.2244 12.7756 80 18.6667 80H61.3333C67.2244 80 72 75.2244 72 69.3333V27.7333L48 0Z" fill="#A7B1BD"/>
<path d="M29.332 40C29.332 40.3536 29.4725 40.6928 29.7226 40.9428C29.9726 41.1929 30.3117 41.3333 30.6654 41.3333H40.7854L37.7187 44.3867C37.5937 44.5106 37.4945 44.6581 37.4268 44.8206C37.3591 44.983 37.3243 45.1573 37.3243 45.3333C37.3243 45.5094 37.3591 45.6836 37.4268 45.8461C37.4945 46.0086 37.5937 46.1561 37.7187 46.28C37.8426 46.405 37.9901 46.5042 38.1526 46.5719C38.3151 46.6396 38.4893 46.6744 38.6654 46.6744C38.8414 46.6744 39.0157 46.6396 39.1781 46.5719C39.3406 46.5042 39.4881 46.405 39.612 46.28L44.9454 40.9467C45.0667 40.8199 45.1619 40.6703 45.2254 40.5067C45.3587 40.1821 45.3587 39.818 45.2254 39.4933C45.1619 39.3297 45.0667 39.1801 44.9454 39.0533L39.612 33.72C39.4877 33.5957 39.3401 33.4971 39.1777 33.4298C39.0153 33.3625 38.8412 33.3279 38.6654 33.3279C38.4896 33.3279 38.3155 33.3625 38.153 33.4298C37.9906 33.4971 37.843 33.5957 37.7187 33.72C37.5944 33.8443 37.4958 33.9919 37.4285 34.1543C37.3612 34.3168 37.3266 34.4909 37.3266 34.6667C37.3266 34.8425 37.3612 35.0166 37.4285 35.179C37.4958 35.3414 37.5944 35.489 37.7187 35.6133L40.7854 38.6667H30.6654C30.3117 38.6667 29.9726 38.8071 29.7226 39.0572C29.4725 39.3072 29.332 39.6464 29.332 40ZM46.6654 26.6667H33.332C32.2712 26.6667 31.2537 27.0881 30.5036 27.8382C29.7535 28.5884 29.332 29.6058 29.332 30.6667V34.6667C29.332 35.0203 29.4725 35.3594 29.7226 35.6095C29.9726 35.8595 30.3117 36 30.6654 36C31.019 36 31.3581 35.8595 31.6082 35.6095C31.8582 35.3594 31.9987 35.0203 31.9987 34.6667V30.6667C31.9987 30.3131 32.1392 29.9739 32.3892 29.7239C32.6393 29.4738 32.9784 29.3333 33.332 29.3333H46.6654C47.019 29.3333 47.3581 29.4738 47.6082 29.7239C47.8582 29.9739 47.9987 30.3131 47.9987 30.6667V49.3333C47.9987 49.687 47.8582 50.0261 47.6082 50.2761C47.3581 50.5262 47.019 50.6667 46.6654 50.6667H33.332C32.9784 50.6667 32.6393 50.5262 32.3892 50.2761C32.1392 50.0261 31.9987 49.687 31.9987 49.3333V45.3333C31.9987 44.9797 31.8582 44.6406 31.6082 44.3905C31.3581 44.1405 31.019 44 30.6654 44C30.3117 44 29.9726 44.1405 29.7226 44.3905C29.4725 44.6406 29.332 44.9797 29.332 45.3333V49.3333C29.332 50.3942 29.7535 51.4116 30.5036 52.1618C31.2537 52.9119 32.2712 53.3333 33.332 53.3333H46.6654C47.7262 53.3333 48.7436 52.9119 49.4938 52.1618C50.2439 51.4116 50.6654 50.3942 50.6654 49.3333V30.6667C50.6654 29.6058 50.2439 28.5884 49.4938 27.8382C48.7436 27.0881 47.7262 26.6667 46.6654 26.6667Z" fill="#A7B1BD"/>
</svg>
