<svg width="80" height="80" viewBox="0 0 80 80" fill="none" xmlns="http://www.w3.org/2000/svg">
<path fill-rule="evenodd" clip-rule="evenodd" d="M39.9995 24.8C41.0304 24.8 41.8661 25.6357 41.8661 26.6667V27.5931C44.492 27.9526 46.8559 29.0666 48.3399 30.7765C48.9016 31.4237 48.9505 32.3703 48.4584 33.0719C47.9663 33.7735 47.0597 34.0499 46.2598 33.7422L41.8661 32.0516V38.2591C43.6801 38.5068 45.3478 39.1125 46.6918 40.0085C48.4735 41.1961 49.8661 43.0419 49.8661 45.3333C49.8661 47.6248 48.4735 49.4706 46.6918 50.6582C45.3478 51.5541 43.6801 52.1599 41.8661 52.4075V53.3333C41.8661 54.3643 41.0304 55.2 39.9995 55.2C38.9685 55.2 38.1328 54.3643 38.1328 53.3333V52.4069C35.507 52.0474 33.1431 50.9334 31.659 49.2235C31.0973 48.5763 31.0485 47.6297 31.5406 46.9281C32.0327 46.2265 32.9393 45.9501 33.7391 46.2578L38.1328 47.9484V41.7409C36.3189 41.4932 34.6512 40.8875 33.3071 39.9916C31.5254 38.8039 30.1328 36.9581 30.1328 34.6667C30.1328 32.3752 31.5254 30.5294 33.3071 29.3418C34.6512 28.4459 36.3189 27.8401 38.1328 27.5925V26.6667C38.1328 25.6357 38.9685 24.8 39.9995 24.8ZM38.1328 31.3741C37.0387 31.5842 36.096 31.9695 35.3778 32.4482C34.2642 33.1906 33.8661 34.0115 33.8661 34.6667C33.8661 35.3219 34.2642 36.1428 35.3778 36.8851C36.096 37.3638 37.0387 37.7492 38.1328 37.9593V31.3741ZM41.8661 42.0408V48.6259C42.9602 48.4159 43.903 48.0305 44.6211 47.5518C45.7348 46.8095 46.1328 45.9886 46.1328 45.3333C46.1328 44.6781 45.7348 43.8572 44.6211 43.1149C43.903 42.6362 42.9602 42.2508 41.8661 42.0408Z" fill="#A7B1BD"/>
<path fill-rule="evenodd" clip-rule="evenodd" d="M18.6667 76.2667H61.3333C65.1625 76.2667 68.2667 73.1625 68.2667 69.3333V29.1244L46.2936 3.73333H18.6667C14.8375 3.73333 11.7333 6.83749 11.7333 10.6667V69.3333C11.7333 73.1625 14.8375 76.2667 18.6667 76.2667ZM48 0H18.6667C12.7756 0 8 4.77563 8 10.6667V69.3333C8 75.2244 12.7756 80 18.6667 80H61.3333C67.2244 80 72 75.2244 72 69.3333V27.7333L48 0Z" fill="#A7B1BD"/>
</svg>
