<svg width="80" height="80" viewBox="0 0 80 80" fill="none" xmlns="http://www.w3.org/2000/svg">
<path fill-rule="evenodd" clip-rule="evenodd" d="M18.6667 76.2667H61.3333C65.1625 76.2667 68.2667 73.1625 68.2667 69.3333V29.1244L46.2936 3.73333H18.6667C14.8375 3.73333 11.7333 6.83749 11.7333 10.6667V69.3333C11.7333 73.1625 14.8375 76.2667 18.6667 76.2667ZM48 0H18.6667C12.7756 0 8 4.77563 8 10.6667V69.3333C8 75.2244 12.7756 80 18.6667 80H61.3333C67.2244 80 72 75.2244 72 69.3333V27.7333L48 0Z" fill="#A7B1BD"/>
<path fill-rule="evenodd" clip-rule="evenodd" d="M26.3238 26.323C27.299 25.3479 28.6217 24.8 30.0008 24.8H50.0008C51.3799 24.8 52.7025 25.3479 53.6777 26.323C54.6529 27.2982 55.2008 28.6209 55.2008 30V50C55.2008 51.3791 54.6529 52.7018 53.6777 53.677C52.7025 54.6521 51.3799 55.2 50.0008 55.2H30.0008C28.6217 55.2 27.299 54.6521 26.3238 53.677C25.3486 52.7018 24.8008 51.3791 24.8008 50V30C24.8008 28.6209 25.3486 27.2982 26.3238 26.323ZM30.0008 28.5333C29.6118 28.5333 29.2387 28.6879 28.9637 28.9629C28.6886 29.238 28.5341 29.611 28.5341 30V50C28.5341 50.389 28.6886 50.762 28.9637 51.0371C29.2387 51.3121 29.6118 51.4667 30.0008 51.4667H50.0008C50.3898 51.4667 50.7628 51.3121 51.0379 51.0371C51.3129 50.762 51.4674 50.389 51.4674 50V30C51.4674 29.611 51.3129 29.238 51.0379 28.9629C50.7628 28.6879 50.3898 28.5333 50.0008 28.5333H30.0008ZM46.6674 31.4667C47.6984 31.4667 48.5341 32.3024 48.5341 33.3333V46.6667C48.5341 47.6976 47.6984 48.5333 46.6674 48.5333C45.6365 48.5333 44.8008 47.6976 44.8008 46.6667V33.3333C44.8008 32.3024 45.6365 31.4667 46.6674 31.4667ZM40.0008 36.4667C41.0317 36.4667 41.8674 37.3024 41.8674 38.3333V46.6667C41.8674 47.6976 41.0317 48.5333 40.0008 48.5333C38.9699 48.5333 38.1341 47.6976 38.1341 46.6667V38.3333C38.1341 37.3024 38.9699 36.4667 40.0008 36.4667ZM33.3341 41.4667C34.365 41.4667 35.2008 42.3024 35.2008 43.3333V46.6667C35.2008 47.6976 34.365 48.5333 33.3341 48.5333C32.3032 48.5333 31.4674 47.6976 31.4674 46.6667V43.3333C31.4674 42.3024 32.3032 41.4667 33.3341 41.4667Z" fill="#A7B1BD"/>
</svg>
