<svg width="80" height="80" viewBox="0 0 80 80" fill="none" xmlns="http://www.w3.org/2000/svg">
<path fill-rule="evenodd" clip-rule="evenodd" d="M18.6667 76.2667H61.3333C65.1625 76.2667 68.2667 73.1625 68.2667 69.3333V29.1244L46.2936 3.73333H18.6667C14.8375 3.73333 11.7333 6.83749 11.7333 10.6667V69.3333C11.7333 73.1625 14.8375 76.2667 18.6667 76.2667ZM48 0H18.6667C12.7756 0 8 4.77563 8 10.6667V69.3333C8 75.2244 12.7756 80 18.6667 80H61.3333C67.2244 80 72 75.2244 72 69.3333V27.7333L48 0Z" fill="#A7B1BD"/>
<path fill-rule="evenodd" clip-rule="evenodd" d="M19.4648 28.8C19.4648 27.7691 20.3006 26.9333 21.3315 26.9333H26.6648C27.6958 26.9333 28.5315 27.7691 28.5315 28.8C28.5315 29.8309 27.6958 30.6667 26.6648 30.6667H21.3315C20.3006 30.6667 19.4648 29.8309 19.4648 28.8Z" fill="#A7B1BD"/>
<path fill-rule="evenodd" clip-rule="evenodd" d="M19.4648 40.5333C19.4648 39.5024 20.3006 38.6667 21.3315 38.6667H26.6648C27.6958 38.6667 28.5315 39.5024 28.5315 40.5333C28.5315 41.5643 27.6958 42.4 26.6648 42.4H21.3315C20.3006 42.4 19.4648 41.5643 19.4648 40.5333Z" fill="#A7B1BD"/>
<path fill-rule="evenodd" clip-rule="evenodd" d="M19.4648 52.2667C19.4648 51.2357 20.3006 50.4 21.3315 50.4H26.6648C27.6958 50.4 28.5315 51.2357 28.5315 52.2667C28.5315 53.2976 27.6958 54.1333 26.6648 54.1333H21.3315C20.3006 54.1333 19.4648 53.2976 19.4648 52.2667Z" fill="#A7B1BD"/>
<path fill-rule="evenodd" clip-rule="evenodd" d="M30.1328 28.8C30.1328 27.7691 30.9685 26.9333 31.9995 26.9333H50.6661C51.6971 26.9333 52.5328 27.7691 52.5328 28.8C52.5328 29.8309 51.6971 30.6667 50.6661 30.6667H31.9995C30.9685 30.6667 30.1328 29.8309 30.1328 28.8Z" fill="#A7B1BD"/>
<path fill-rule="evenodd" clip-rule="evenodd" d="M30.1328 40.5333C30.1328 39.5024 30.9685 38.6667 31.9995 38.6667H58.6661C59.6971 38.6667 60.5328 39.5024 60.5328 40.5333C60.5328 41.5643 59.6971 42.4 58.6661 42.4H31.9995C30.9685 42.4 30.1328 41.5643 30.1328 40.5333Z" fill="#A7B1BD"/>
<path fill-rule="evenodd" clip-rule="evenodd" d="M30.1328 52.2667C30.1328 51.2357 30.9685 50.4 31.9995 50.4H58.6661C59.6971 50.4 60.5328 51.2357 60.5328 52.2667C60.5328 53.2976 59.6971 54.1333 58.6661 54.1333H31.9995C30.9685 54.1333 30.1328 53.2976 30.1328 52.2667Z" fill="#A7B1BD"/>
</svg>
