<svg width="80" height="80" viewBox="0 0 80 80" fill="none" xmlns="http://www.w3.org/2000/svg">
<path fill-rule="evenodd" clip-rule="evenodd" d="M18.6667 76.2667H61.3333C65.1625 76.2667 68.2667 73.1625 68.2667 69.3333V29.1244L46.2936 3.73333H18.6667C14.8375 3.73333 11.7333 6.83749 11.7333 10.6667V69.3333C11.7333 73.1625 14.8375 76.2667 18.6667 76.2667ZM48 0H18.6667C12.7756 0 8 4.77563 8 10.6667V69.3333C8 75.2244 12.7756 80 18.6667 80H61.3333C67.2244 80 72 75.2244 72 69.3333V27.7333L48 0Z" fill="#A7B1BD"/>
<path fill-rule="evenodd" clip-rule="evenodd" d="M26.4029 29.6031C27.2586 28.7474 28.4192 28.2667 29.6294 28.2667H44.4442C45.6544 28.2667 46.815 28.7474 47.6707 29.6031C48.5264 30.4588 49.0071 31.6195 49.0071 32.8296V34.1926H50.3701C51.5803 34.1926 52.7409 34.6733 53.5966 35.529C54.4523 36.3848 54.9331 37.5454 54.9331 38.7556V47.6444C54.9331 48.8546 54.4523 50.0152 53.5966 50.8709C52.7409 51.7267 51.5803 52.2074 50.3701 52.2074H35.5553C34.3451 52.2074 33.1845 51.7267 32.3288 50.8709C31.4731 50.0152 30.9923 48.8546 30.9923 47.6444V46.2815H29.6294C28.4192 46.2815 27.2586 45.8007 26.4029 44.945C25.5471 44.0893 25.0664 42.9287 25.0664 41.7185V32.8296C25.0664 31.6195 25.5471 30.4588 26.4029 29.6031ZM34.1923 47.6444C34.1923 48.0059 34.3359 48.3526 34.5915 48.6082C34.8471 48.8638 35.1938 49.0074 35.5553 49.0074H50.3701C50.7316 49.0074 51.0783 48.8638 51.3339 48.6082C51.5895 48.3526 51.7331 48.0059 51.7331 47.6444V38.7556C51.7331 38.3941 51.5895 38.0474 51.3339 37.7918C51.0783 37.5362 50.7316 37.3926 50.3701 37.3926H35.5553C35.1938 37.3926 34.8471 37.5362 34.5915 37.7918C34.3359 38.0474 34.1923 38.3941 34.1923 38.7556V47.6444ZM45.8071 34.1926H35.5553C34.3451 34.1926 33.1845 34.6733 32.3288 35.529C31.4731 36.3848 30.9923 37.5454 30.9923 38.7556V43.0815H29.6294C29.2679 43.0815 28.9212 42.9379 28.6656 42.6823C28.41 42.4267 28.2664 42.08 28.2664 41.7185V32.8296C28.2664 32.4681 28.41 32.1215 28.6656 31.8659C28.9212 31.6103 29.2679 31.4667 29.6294 31.4667H44.4442C44.8057 31.4667 45.1523 31.6103 45.4079 31.8659C45.6635 32.1215 45.8071 32.4681 45.8071 32.8296V34.1926ZM42.9627 41.837C42.6012 41.837 42.2545 41.9806 41.9989 42.2362C41.7433 42.4918 41.5997 42.8385 41.5997 43.2C41.5997 43.5615 41.7433 43.9081 41.9989 44.1638C42.2545 44.4194 42.6012 44.563 42.9627 44.563C43.3242 44.563 43.6709 44.4194 43.9265 44.1638C44.1821 43.9081 44.3257 43.5615 44.3257 43.2C44.3257 42.8385 44.1821 42.4918 43.9265 42.2362C43.6709 41.9806 43.3242 41.837 42.9627 41.837ZM39.7362 39.9735C40.5919 39.1178 41.7525 38.637 42.9627 38.637C44.1729 38.637 45.3335 39.1178 46.1892 39.9735C47.0449 40.8292 47.5257 41.9898 47.5257 43.2C47.5257 44.4102 47.0449 45.5708 46.1892 46.4265C45.3335 47.2822 44.1729 47.763 42.9627 47.763C41.7525 47.763 40.5919 47.2822 39.7362 46.4265C38.8805 45.5708 38.3997 44.4102 38.3997 43.2C38.3997 41.9898 38.8805 40.8292 39.7362 39.9735Z" fill="#A7B1BD"/>
</svg>
